<?xml version="1.0" standalone="no"?>
<!DOCTYPE svg PUBLIC "-//W3C//DTD SVG 1.1//EN" "http://www.w3.org/Graphics/SVG/1.1/DTD/svg11.dtd" >
<svg xmlns="http://www.w3.org/2000/svg" xmlns:xlink="http://www.w3.org/1999/xlink" version="1.1">
<metadata>
Created by FontForge 20170731 at Tue Mar  6 22:53:03 2018
 By Aleksey,,,
Copyright (c) 2018 by TypeType. Designers Ivan Gladkikh, Pavel Emelyanov. Technical designers Marina Khodak, Vika Usmanova, Nadyr Rakhimov. All rights reserved.
</metadata>
<defs>
<font id="TTCommons-Black" horiz-adv-x="540" >
  <font-face 
    font-family="TT Commons Black"
    font-weight="900"
    font-stretch="normal"
    units-per-em="1000"
    panose-1="2 0 5 3 2 0 0 2 0 4"
    ascent="700"
    descent="-300"
    x-height="460"
    cap-height="630"
    bbox="-190 -310 1438 885"
    underline-thickness="50"
    underline-position="-300"
    unicode-range="U+000D-FB06"
  />
<missing-glyph horiz-adv-x="0" 
 />
    <glyph glyph-name="ff" unicode="ff" horiz-adv-x="670" 
d="M640 270h-90v-270h-180v270h-120v-270h-180v270h-55v160h55v5q0 91 49 140.5t136 49.5q19 0 34.5 -2.5t26.5 -5.5q13 -4 24 -7v-160l-12 2q-5 1 -11.5 2t-11.5 1q-14 0 -22.5 -4t-13.5 -9q-6 -5 -9 -12h110v25q0 91 49 140.5t136 49.5q19 0 34.5 -2.5t26.5 -5.5
q13 -4 24 -7v-160l-12 2q-5 1 -11.5 2t-11.5 1q-19 0 -30 -7.5t-16 -15.5q-7 -10 -9 -22h90v-160z" />
    <glyph glyph-name="uniFB01" unicode="fi" horiz-adv-x="590" 
d="M550 0h-180v270h-120v-270h-180v270h-55v160h55v25q0 91 49 140.5t136 49.5q19 0 34.5 -2.5t26.5 -5.5q13 -4 24 -7v-160l-12 2q-5 1 -11.5 2t-11.5 1q-19 0 -30 -7.5t-16 -15.5q-7 -10 -9 -22h300v-430zM365 550q0 38 26.5 64t68.5 26t68.5 -26t26.5 -64t-26.5 -64
t-68.5 -26t-68.5 26t-26.5 64z" />
    <glyph glyph-name="uniFB02" unicode="fl" horiz-adv-x="590" 
d="M370 475q-6 2 -14 5q-7 2 -16 3.5t-20 1.5q-34 0 -52 -16t-18 -39h90v-160h-90v-270h-180v270h-55v160h55q0 51 16 92.5t45 71t69.5 45.5t89.5 16q23 0 42.5 -4t34.5 -9q18 -5 33 -12h150v-630h-180v475z" />
    <glyph glyph-name="ffi" unicode="ffi" horiz-adv-x="890" 
d="M850 0h-180v270h-120v-270h-180v270h-120v-270h-180v270h-55v160h55v5q0 91 49 140.5t136 49.5q19 0 34.5 -2.5t26.5 -5.5q13 -4 24 -7v-160l-12 2q-5 1 -11.5 2t-11.5 1q-14 0 -22.5 -4t-13.5 -9q-6 -5 -9 -12h110v25q0 91 49 140.5t136 49.5q19 0 34.5 -2.5t26.5 -5.5
q13 -4 24 -7v-160l-12 2q-5 1 -11.5 2t-11.5 1q-19 0 -30 -7.5t-16 -15.5q-7 -10 -9 -22h300v-430zM665 550q0 38 26.5 64t68.5 26t68.5 -26t26.5 -64t-26.5 -64t-68.5 -26t-68.5 26t-26.5 64z" />
    <glyph glyph-name="ffl" unicode="ffl" horiz-adv-x="890" 
d="M670 475q-6 2 -14 5q-7 2 -16 3.5t-20 1.5q-34 0 -52 -16t-18 -39h90v-160h-90v-270h-180v270h-120v-270h-180v270h-55v160h55v5q0 91 49 140.5t136 49.5q19 0 34.5 -2.5t26.5 -5.5q13 -4 24 -7v-160l-12 2q-5 1 -11.5 2t-11.5 1q-14 0 -22.5 -4t-13.5 -9q-6 -5 -9 -12
h110q0 51 16 92.5t45 71t69.5 45.5t89.5 16q23 0 42.5 -4t34.5 -9q18 -5 33 -12h150v-630h-180v475z" />
    <glyph glyph-name="f_f_j" unicode="ffj" horiz-adv-x="890" 
d="M670 270h-120v-270h-180v270h-120v-270h-180v270h-55v160h55v5q0 91 49 140.5t136 49.5q19 0 34.5 -2.5t26.5 -5.5q13 -4 24 -7v-160l-12 2q-5 1 -11.5 2t-11.5 1q-14 0 -22.5 -4t-13.5 -9q-6 -5 -9 -12h110v25q0 91 49 140.5t136 49.5q19 0 34.5 -2.5t26.5 -5.5
q13 -4 24 -7v-160l-12 2q-5 1 -11.5 2t-11.5 1q-19 0 -30 -7.5t-16 -15.5q-7 -10 -9 -22h300v-410q0 -91 -49 -140.5t-136 -49.5q-19 0 -34.5 2t-26.5 5q-13 4 -24 8v160q5 -2 10 -3t11 -1.5t14 -0.5q55 0 55 60v210zM665 550q0 38 26.5 64t68.5 26t68.5 -26t26.5 -64
t-26.5 -64t-68.5 -26t-68.5 26t-26.5 64z" />
    <glyph glyph-name="f_j" unicode="fj" horiz-adv-x="590" 
d="M370 270h-120v-270h-180v270h-55v160h55v25q0 91 49 140.5t136 49.5q19 0 34.5 -2.5t26.5 -5.5q13 -4 24 -7v-160l-12 2q-5 1 -11.5 2t-11.5 1q-19 0 -30 -7.5t-16 -15.5q-7 -10 -9 -22h300v-410q0 -91 -49 -140.5t-136 -49.5q-19 0 -33 2t-23 5q-11 4 -19 8v160
q1 -2 5 -3q3 -1 7.5 -1.5t12.5 -0.5q55 0 55 60v210zM365 550q0 38 26.5 64t68.5 26t68.5 -26t26.5 -64t-26.5 -64t-68.5 -26t-68.5 26t-26.5 64z" />
    <glyph glyph-name="f_t" unicode="ft" horiz-adv-x="690" 
d="M550 220q0 -60 55 -60q8 0 14 0.5t11 1.5t10 3v-160q-11 -4 -24 -8q-11 -3 -26.5 -5t-34.5 -2q-87 0 -136 49.5t-49 140.5v100h-120v-280h-180v280h-55v160h55v15q0 91 49 140.5t136 49.5q19 0 34.5 -2.5t26.5 -5.5q13 -4 24 -7v-160l-12 2q-5 1 -11.5 2t-11.5 1
q-17 0 -27 -5.5t-15 -12.5q-6 -8 -8 -17h85q23 0 36.5 13.5t13.5 36.5v60h160v-110h90v-160h-90v-60z" />
    <glyph glyph-name="f_h" unicode="fh" horiz-adv-x="880" 
d="M670 470q37 0 69.5 -13.5t55.5 -39.5t36.5 -63t13.5 -84v-270h-180v230q0 30 -16 47.5t-39 17.5q-26 0 -43 -17.5t-17 -47.5v-230h-180v475q-6 2 -14 5q-7 2 -16 3.5t-20 1.5q-34 0 -52 -16t-18 -39h90v-160h-90v-270h-180v270h-55v160h55q0 51 16 92.5t45 71t69.5 45.5
t89.5 16q23 0 42.5 -4t34.5 -9q18 -5 33 -12h150v-205q14 12 32 22q16 8 37.5 15.5t50.5 7.5z" />
    <glyph glyph-name="f_k" unicode="fk" horiz-adv-x="840" 
d="M370 475q-6 2 -14 5q-7 2 -16 3.5t-20 1.5q-34 0 -52 -16t-18 -39h90v-160h-90v-270h-180v270h-55v160h55q0 51 16 92.5t45 71t69.5 45.5t89.5 16q23 0 42.5 -4t34.5 -9q18 -5 33 -12h150v-345l90 175h195l-125 -220l140 -240h-200l-100 190v-190h-180v475z" />
    <glyph glyph-name="f_b" unicode="fb" horiz-adv-x="895" 
d="M665 -10q-32 0 -57 8t-42 19q-20 12 -36 28l-25 -45h-135v475q-6 2 -14 5q-7 2 -16 3.5t-20 1.5q-34 0 -52 -16t-18 -39h90v-160h-90v-270h-180v270h-55v160h55q0 51 16 92.5t45 71t69.5 45.5t89.5 16q23 0 42.5 -4t34.5 -9q18 -5 33 -12h150v-200q10 11 27 20
q14 8 36 14t52 6q39 0 76 -18t65.5 -49.5t46 -76t17.5 -96.5q0 -53 -17.5 -97t-46 -75.5t-65.5 -49.5t-76 -18zM550 230q0 -34 20 -54.5t50 -20.5t50 20.5t20 54.5t-20 54.5t-50 20.5t-50 -20.5t-20 -54.5z" />
    <glyph glyph-name="f_f_h" unicode="ffh" horiz-adv-x="1180" 
d="M970 470q37 0 69.5 -13.5t55.5 -39.5t36.5 -63t13.5 -84v-270h-180v230q0 30 -16 47.5t-39 17.5q-26 0 -43 -17.5t-17 -47.5v-230h-180v475q-6 2 -14 5q-7 2 -16 3.5t-20 1.5q-34 0 -52 -16t-18 -39h90v-160h-90v-270h-180v270h-120v-270h-180v270h-55v160h55v5
q0 91 49 140.5t136 49.5q19 0 34.5 -2.5t26.5 -5.5q13 -4 24 -7v-160l-12 2q-5 1 -11.5 2t-11.5 1q-14 0 -22.5 -4t-13.5 -9q-6 -5 -9 -12h110q0 51 16 92.5t45 71t69.5 45.5t89.5 16q23 0 42.5 -4t34.5 -9q18 -5 33 -12h150v-205q14 12 32 22q16 8 37.5 15.5t50.5 7.5z" />
    <glyph glyph-name="f_f_k" unicode="ffk" horiz-adv-x="1140" 
d="M670 475q-6 2 -14 5q-7 2 -16 3.5t-20 1.5q-34 0 -52 -16t-18 -39h90v-160h-90v-270h-180v270h-120v-270h-180v270h-55v160h55v5q0 91 49 140.5t136 49.5q19 0 34.5 -2.5t26.5 -5.5q13 -4 24 -7v-160l-12 2q-5 1 -11.5 2t-11.5 1q-14 0 -22.5 -4t-13.5 -9q-6 -5 -9 -12
h110q0 51 16 92.5t45 71t69.5 45.5t89.5 16q23 0 42.5 -4t34.5 -9q18 -5 33 -12h150v-345l90 175h195l-125 -220l140 -240h-200l-100 190v-190h-180v475z" />
    <glyph glyph-name="f_f_b" unicode="ffb" horiz-adv-x="1195" 
d="M670 475q-6 2 -14 5q-7 2 -16 3.5t-20 1.5q-34 0 -52 -16t-18 -39h90v-160h-90v-270h-180v270h-120v-270h-180v270h-55v160h55v5q0 91 49 140.5t136 49.5q19 0 34.5 -2.5t26.5 -5.5q13 -4 24 -7v-160l-12 2q-5 1 -11.5 2t-11.5 1q-14 0 -22.5 -4t-13.5 -9q-6 -5 -9 -12
h110q0 51 16 92.5t45 71t69.5 45.5t89.5 16q23 0 42.5 -4t34.5 -9q18 -5 33 -12h150v-200q10 11 27 20q14 8 36 14t52 6q39 0 76 -18t65.5 -49.5t46 -76t17.5 -96.5q0 -53 -17.5 -97t-46 -75.5t-65.5 -49.5t-76 -18q-32 0 -57 8t-42 19q-20 12 -36 28l-25 -45h-135v475z
M850 230q0 -34 20 -54.5t50 -20.5t50 20.5t20 54.5t-20 54.5t-50 20.5t-50 -20.5t-20 -54.5z" />
    <glyph glyph-name=".notdef" horiz-adv-x="0" 
 />
    <glyph glyph-name=".null" horiz-adv-x="0" 
 />
    <glyph glyph-name=".null" horiz-adv-x="0" 
 />
    <glyph glyph-name="nonmarkingreturn" unicode="&#xd;" horiz-adv-x="0" 
 />
    <glyph glyph-name="space" unicode=" " horiz-adv-x="240" 
 />
    <glyph glyph-name="exclam" unicode="!" horiz-adv-x="310" 
d="M50 630h210l-20 -410h-170zM250 85q0 -42 -26.5 -68.5t-68.5 -26.5t-68.5 26.5t-26.5 68.5t26.5 68.5t68.5 26.5t68.5 -26.5t26.5 -68.5z" />
    <glyph glyph-name="quotedbl" unicode="&#x22;" horiz-adv-x="435" 
d="M395 405h-155v225h155v-225zM195 405h-155v225h155v-225z" />
    <glyph glyph-name="numbersign" unicode="#" horiz-adv-x="655" 
d="M85 500h90l25 130h150l-25 -130h75l25 130h150l-25 -130h95l-30 -135h-90l-20 -100h95l-30 -135h-90l-25 -130h-150l25 130h-75l-25 -130h-150l25 130h-95l30 135h90l20 100h-95zM280 260h75l20 110h-75z" />
    <glyph glyph-name="dollar" unicode="$" horiz-adv-x="560" 
d="M195 0q-79 23 -127 75t-48 135l195 20q0 -26 16 -43t39 -17t34 10t11 25t-21 23.5t-53 17.5t-68.5 21.5t-68.5 34.5t-53 57.5t-21 90.5q0 56 25.5 91t56.5 55q36 23 83 34v80h180v-85q68 -23 111.5 -71.5t43.5 -123.5l-195 -20q0 23 -13 36.5t-32 13.5q-15 0 -25 -7
t-10 -18q0 -15 21 -23.5t53 -17.5t68.5 -21.5t68.5 -34.5t53 -57.5t21 -90.5q0 -56 -26 -92.5t-57 -58.5q-36 -26 -82 -39v-80h-180v80z" />
    <glyph glyph-name="percent" unicode="%" horiz-adv-x="695" 
d="M560 135q0 15 -10 25t-25 10t-25 -10t-10 -25t10 -25t25 -10t25 10t10 25zM375 135q0 30 11.5 56.5t31.5 46t47.5 31t59.5 11.5t59.5 -11.5t47.5 -31t31.5 -46t11.5 -56.5t-11.5 -56.5t-31.5 -46t-47.5 -31t-59.5 -11.5t-59.5 11.5t-47.5 31t-31.5 46t-11.5 56.5z
M615 630l-385 -630h-150l385 630h150zM135 495q0 -15 10 -25t25 -10t25 10t10 25t-10 25t-25 10t-25 -10t-10 -25zM320 495q0 -30 -11.5 -56.5t-31.5 -46t-47.5 -31t-59.5 -11.5t-59.5 11.5t-47.5 31t-31.5 46t-11.5 56.5t11.5 56.5t31.5 46t47.5 31t59.5 11.5t59.5 -11.5
t47.5 -31t31.5 -46t11.5 -56.5z" />
    <glyph glyph-name="ampersand" unicode="&#x26;" horiz-adv-x="635" 
d="M455 0l-50 50q-18 -17 -44 -30q-22 -11 -53 -20.5t-73 -9.5q-53 0 -93 13t-67 36t-41 54t-14 67q0 42 18.5 73t41.5 53q26 26 60 44q-17 18 -30 41q-11 20 -20.5 46t-9.5 58q0 34 13.5 64t39.5 52.5t63 35.5t84 13q43 0 78 -13t60 -35.5t38.5 -52.5t13.5 -64
q0 -36 -15.5 -64.5t-34.5 -48.5q-22 -24 -50 -42l40 -40l25 35h190l-100 -145l170 -170h-240zM280 410q8 8 15 16q5 7 10 15.5t5 18.5q0 11 -7.5 20.5t-22.5 9.5t-22.5 -9.5t-7.5 -20.5q0 -10 4.5 -18.5t10.5 -15.5q6 -8 15 -16zM255 155q13 0 22 7l8 8l-50 50q-4 -4 -8 -9
q-7 -11 -7 -21q0 -15 10 -25t25 -10z" />
    <glyph glyph-name="quotesingle" unicode="'" horiz-adv-x="245" 
d="M40 630h165v-225h-165v225z" />
    <glyph glyph-name="parenleft" unicode="(" horiz-adv-x="385" 
d="M250 225q0 -74 16 -137t36 -111q23 -55 53 -102l-150 -100q-47 56 -83 126q-31 60 -56.5 142t-25.5 182t25.5 182t56.5 142q36 70 83 126l150 -100q-30 -47 -53 -102q-20 -48 -36 -111.5t-16 -136.5z" />
    <glyph glyph-name="parenright" unicode=")" horiz-adv-x="385" 
d="M135 225q0 73 -16.5 136.5t-36.5 111.5q-23 55 -52 102l150 100q46 -56 82 -126q31 -60 57 -142t26 -182t-26 -182.5t-57 -141.5q-36 -70 -82 -126l-150 100q29 47 52 102q20 48 36.5 111t16.5 137z" />
    <glyph glyph-name="asterisk" unicode="*" horiz-adv-x="400" 
d="M250 535l85 35l35 -105l-90 -20l60 -70l-90 -65l-50 80l-50 -80l-90 65l60 70l-90 20l35 105l85 -35l-5 95h110z" />
    <glyph glyph-name="plus" unicode="+" horiz-adv-x="480" 
d="M155 45v125h-120v170h120v125h170v-125h120v-170h-120v-125h-170z" />
    <glyph glyph-name="comma" unicode="," horiz-adv-x="250" 
d="M125 180q19 0 36 -8t30 -22.5t21 -35t8 -44.5q0 -57 -18.5 -95t-41.5 -61q-26 -27 -60 -44l-35 50q14 7 26 18q11 9 20.5 22t13.5 30q-42 0 -68.5 26.5t-26.5 68.5t26.5 68.5t68.5 26.5z" />
    <glyph glyph-name="hyphen" unicode="-" horiz-adv-x="400" 
d="M360 170h-320v170h320v-170z" />
    <glyph glyph-name="period" unicode="." horiz-adv-x="250" 
d="M30 85q0 42 26.5 68.5t68.5 26.5t68.5 -26.5t26.5 -68.5t-26.5 -68.5t-68.5 -26.5t-68.5 26.5t-26.5 68.5z" />
    <glyph glyph-name="slash" unicode="/" horiz-adv-x="445" 
d="M185 -180h-185l260 810h185z" />
    <glyph glyph-name="zero" unicode="0" horiz-adv-x="630" 
d="M400 315q0 71 -25.5 103t-59.5 32t-59.5 -32t-25.5 -103t25.5 -103t59.5 -32t59.5 32t25.5 103zM600 315q0 -75 -22 -135t-60.5 -102.5t-90.5 -65t-112 -22.5t-112 22.5t-90.5 65t-60.5 102.5t-22 135t22 135t60.5 102.5t90.5 65t112 22.5t112 -22.5t90.5 -65
t60.5 -102.5t22 -135z" />
    <glyph glyph-name="one" unicode="1" horiz-adv-x="390" 
d="M340 630v-630h-200v400l-60 -40l-90 150l180 120h170z" />
    <glyph glyph-name="two" unicode="2" horiz-adv-x="530" 
d="M500 190v-190h-470v130l205 215q14 13 25 26q9 11 17 24.5t8 24.5q0 15 -10 22.5t-25 7.5t-27.5 -13.5t-12.5 -36.5l-195 20q2 47 20 87t50 69.5t76.5 46.5t98.5 17q56 0 100.5 -16t75.5 -43t47.5 -63.5t16.5 -77.5q0 -42 -18 -78t-40 -63q-26 -32 -57 -59l-50 -50h165z
" />
    <glyph glyph-name="three" unicode="3" 
d="M20 440q2 41 19.5 77.5t49 63.5t76 43t100.5 16q58 0 103 -15t75.5 -39.5t46 -57t15.5 -68.5q0 -34 -14 -58.5t-31 -40.5q-20 -18 -45 -31q29 -13 52 -34q20 -18 36.5 -46t16.5 -70q0 -38 -16.5 -72t-48 -60.5t-77 -42t-103.5 -15.5q-62 0 -110.5 16.5t-82 45t-52 67
t-20.5 81.5l200 20q3 -14 10 -25q5 -10 15 -17.5t25 -7.5q19 0 29.5 12.5t10.5 27.5t-11 27.5t-34 12.5h-60v150h60q15 0 25 7.5t10 22.5t-9.5 22.5t-20.5 7.5t-18.5 -6t-12.5 -14q-5 -9 -9 -20z" />
    <glyph glyph-name="four" unicode="4" horiz-adv-x="550" 
d="M540 100h-60v-100h-200v100h-260v160l230 370h230v-350h60v-180zM215 280h75v120z" />
    <glyph glyph-name="five" unicode="5" horiz-adv-x="545" 
d="M325 430q41 0 77.5 -16t63.5 -44.5t43 -68t16 -86.5q0 -49 -17.5 -90t-49.5 -71t-78.5 -47t-104.5 -17t-104.5 16.5t-79.5 44t-51 64t-20 75.5l200 20q3 -11 9 -20q5 -8 13.5 -14t22.5 -6q19 0 32 14.5t13 40.5t-13 40.5t-32 14.5q-11 0 -20 -5t-14 -10q-7 -7 -11 -15
h-185l45 380h400v-160h-235l-10 -60q10 6 24 10q12 4 28.5 7t37.5 3z" />
    <glyph glyph-name="six" unicode="6" 
d="M275 -10q-58 0 -105 18t-80.5 49.5t-51.5 75.5t-18 97q0 42 14 80.5t31 68.5q19 35 45 66l130 185h210l-130 -185q45 -6 83.5 -25t66.5 -48.5t44 -68t16 -83.5q0 -49 -18 -91t-51.5 -73t-80.5 -48.5t-105 -17.5zM225 220q0 -23 13.5 -36.5t36.5 -13.5t36.5 13.5
t13.5 36.5t-13.5 36.5t-36.5 13.5t-36.5 -13.5t-13.5 -36.5z" />
    <glyph glyph-name="seven" unicode="7" horiz-adv-x="490" 
d="M470 630v-165l-215 -465h-215l205 440h-225v190h450z" />
    <glyph glyph-name="eight" unicode="8" horiz-adv-x="560" 
d="M280 250q-19 0 -32 -13.5t-13 -36.5t13 -36.5t32 -13.5t32 13.5t13 36.5t-13 36.5t-32 13.5zM280 485q-15 0 -25 -10.5t-10 -29.5t10 -29.5t25 -10.5t25 10.5t10 29.5t-10 29.5t-25 10.5zM280 -10q-64 0 -112.5 16t-81.5 43t-49.5 63.5t-16.5 77.5q0 42 15.5 70t34.5 46
q22 21 50 34q-21 13 -38 31q-14 16 -25.5 39t-11.5 55q0 34 15.5 65.5t45.5 56t74 39t100 14.5t100 -14.5t74 -39t45.5 -56t15.5 -65.5q0 -32 -12 -55t-26 -39q-17 -18 -37 -31q28 -13 50 -34q19 -18 34.5 -46t15.5 -70q0 -41 -16.5 -77.5t-49.5 -63.5t-81.5 -43t-112.5 -16
z" />
    <glyph glyph-name="nine" unicode="9" 
d="M265 640q58 0 105 -18t80.5 -49.5t51.5 -76t18 -96.5q0 -42 -14 -80.5t-31 -68.5q-20 -35 -45 -66l-130 -185h-210l130 185q-45 6 -83.5 25t-66.5 48.5t-44 68t-16 83.5q0 49 18 91t51.5 73t80.5 48.5t105 17.5zM315 410q0 23 -13.5 36.5t-36.5 13.5t-36.5 -13.5
t-13.5 -36.5t13.5 -36.5t36.5 -13.5t36.5 13.5t13.5 36.5z" />
    <glyph glyph-name="colon" unicode=":" horiz-adv-x="250" 
d="M30 85q0 42 26.5 68.5t68.5 26.5t68.5 -26.5t26.5 -68.5t-26.5 -68.5t-68.5 -26.5t-68.5 26.5t-26.5 68.5zM30 365q0 42 26.5 68.5t68.5 26.5t68.5 -26.5t26.5 -68.5t-26.5 -68.5t-68.5 -26.5t-68.5 26.5t-26.5 68.5z" />
    <glyph glyph-name="semicolon" unicode=";" horiz-adv-x="250" 
d="M30 365q0 42 26.5 68.5t68.5 26.5t68.5 -26.5t26.5 -68.5t-26.5 -68.5t-68.5 -26.5t-68.5 26.5t-26.5 68.5zM125 180q19 0 36 -8t30 -22.5t21 -35t8 -44.5q0 -57 -18.5 -95t-41.5 -61q-26 -27 -60 -44l-35 50q14 7 26 18q11 9 20.5 22t13.5 30q-42 0 -68.5 26.5
t-26.5 68.5t26.5 68.5t68.5 26.5z" />
    <glyph glyph-name="less" unicode="&#x3c;" horiz-adv-x="475" 
d="M435 160v-160l-395 150v160l395 150v-160l-205 -70z" />
    <glyph glyph-name="equal" unicode="=" horiz-adv-x="480" 
d="M435 80h-390v145h390v-145zM435 285h-390v145h390v-145z" />
    <glyph glyph-name="greater" unicode="&#x3e;" horiz-adv-x="475" 
d="M40 300v160l395 -150v-160l-395 -150v160l205 70z" />
    <glyph glyph-name="question" unicode="?" horiz-adv-x="475" 
d="M465 460q0 -33 -9.5 -55.5t-24.5 -40t-32.5 -32t-33 -30.5t-27 -35.5t-13.5 -46.5h-180q0 52 17 87.5t38 59.5t38 39.5t17 28.5q0 25 -25 25q-11 0 -23 -11t-12 -34l-185 20q2 43 19 80.5t47 65t71.5 43.5t92.5 16q54 0 96 -14t70.5 -38.5t43.5 -57.5t15 -70zM330 85
q0 -42 -26.5 -68.5t-68.5 -26.5t-68.5 26.5t-26.5 68.5t26.5 68.5t68.5 26.5t68.5 -26.5t26.5 -68.5z" />
    <glyph glyph-name="at" unicode="@" horiz-adv-x="765" 
d="M380 565q79 0 144 -25.5t112 -70t73 -105t26 -129.5q0 -45 -11.5 -79.5t-32 -58t-49 -35.5t-62.5 -12q-30 0 -51 9.5t-34 20.5q-16 13 -25 30q-10 -17 -26 -30q-14 -11 -35.5 -20.5t-53.5 -9.5t-60 12.5t-49 35.5t-33.5 55.5t-12.5 71.5t12 71.5t32.5 55.5t46.5 35.5
t54 12.5q19 0 33.5 -5.5t25.5 -12.5q12 -8 21 -17l10 25h105v-155q0 -42 12.5 -58.5t27.5 -16.5t27.5 16.5t12.5 58.5q0 47 -17 87t-48.5 69.5t-76 46.5t-98.5 17q-51 0 -94 -17.5t-74.5 -48.5t-49 -73t-17.5 -91t17.5 -91t49 -73t74.5 -48.5t94 -17.5q32 0 58 7.5t46 17.5
q23 11 41 25l65 -90q-22 -20 -54 -35q-27 -14 -66 -24.5t-90 -10.5q-75 0 -139 26.5t-111 72.5t-73.5 108t-26.5 133t26.5 133t73.5 108t111 72.5t139 26.5zM420 225q0 30 -15.5 47.5t-34.5 17.5t-34.5 -17.5t-15.5 -47.5t15.5 -47.5t34.5 -17.5t34.5 17.5t15.5 47.5z" />
    <glyph glyph-name="A" unicode="A" horiz-adv-x="640" 
d="M320 420l-40 -150h80zM235 110l-30 -110h-215l210 630h240l210 -630h-215l-30 110h-170z" />
    <glyph glyph-name="B" unicode="B" horiz-adv-x="615" 
d="M475 335q34 -12 60 -33q23 -18 41.5 -49t18.5 -78q0 -36 -14.5 -67.5t-42.5 -55.5t-67.5 -38t-90.5 -14h-330v630h310q51 0 90 -13t65.5 -35t40.5 -51t14 -61q0 -38 -15 -63.5t-33 -41.5q-21 -18 -47 -30zM250 390h60q23 0 36.5 13t13.5 32t-13.5 32t-36.5 13h-60v-90z
M325 150q26 0 40.5 13.5t14.5 36.5t-14.5 36.5t-40.5 13.5h-75v-100h75z" />
    <glyph glyph-name="C" unicode="C" horiz-adv-x="690" 
d="M360 180q30 0 50.5 10.5t34.5 24.5q15 15 25 35l200 -20q-15 -67 -54 -120q-17 -23 -40 -44.5t-54 -38t-71 -27t-91 -10.5q-69 0 -129.5 25.5t-105 69.5t-70 103t-25.5 127q0 67 25.5 126.5t70 103.5t105 69.5t129.5 25.5q51 0 91 -10.5t71 -27t54 -38.5t40 -44
q39 -53 54 -120l-200 -20q-10 19 -25 35q-14 13 -34.5 24t-50.5 11q-26 0 -49.5 -10.5t-41.5 -29t-28.5 -43t-10.5 -52.5t10.5 -52.5t28.5 -43t41.5 -29t49.5 -10.5z" />
    <glyph glyph-name="D" unicode="D" horiz-adv-x="650" 
d="M290 180q26 0 49.5 10.5t41.5 29t28.5 43t10.5 52.5t-10.5 52.5t-28.5 43t-41.5 29t-49.5 10.5h-40v-270h40zM50 630h240q73 0 134 -24t104.5 -66t67.5 -100t24 -125q0 -68 -24 -125.5t-67.5 -99.5t-104.5 -66t-134 -24h-240v630z" />
    <glyph glyph-name="E" unicode="E" horiz-adv-x="580" 
d="M50 630h490v-170h-290v-60h265v-160h-265v-70h300v-170h-500v630z" />
    <glyph glyph-name="F" unicode="F" horiz-adv-x="545" 
d="M50 630h475v-180h-275v-80h220v-180h-220v-190h-200v630z" />
    <glyph glyph-name="G" unicode="G" horiz-adv-x="715" 
d="M350 340h325v-340h-125l-25 60q-18 -20 -44 -35q-23 -14 -57.5 -24.5t-83.5 -10.5q-62 0 -118 25.5t-99 69.5t-68 103t-25 127q0 67 25.5 126.5t70 103.5t105 69.5t129.5 25.5q49 0 89 -9.5t71 -25t54 -35t40 -40.5q39 -48 56 -110l-200 -20q-11 14 -27 25
q-14 9 -34.5 17t-48.5 8q-26 0 -49.5 -10.5t-41.5 -29t-28.5 -43t-10.5 -52.5t10.5 -52.5t28.5 -43t41.5 -29t49.5 -10.5q24 0 42.5 6t31.5 14q15 9 26 20h-110v120z" />
    <glyph glyph-name="H" unicode="H" horiz-adv-x="690" 
d="M640 630v-630h-200v225h-190v-225h-200v630h200v-215h190v215h200z" />
    <glyph glyph-name="I" unicode="I" horiz-adv-x="300" 
d="M250 0h-200v630h200v-630z" />
    <glyph glyph-name="J" unicode="J" horiz-adv-x="535" 
d="M490 630v-400q0 -54 -17 -98.5t-49 -76t-77.5 -48.5t-101.5 -17t-101.5 17t-77.5 47t-49 71t-17 90l200 20q0 -26 13 -40.5t32 -14.5t32 13.5t13 36.5v400h200z" />
    <glyph glyph-name="K" unicode="K" horiz-adv-x="620" 
d="M405 0l-155 270v-270h-200v630h200v-265l135 265h225l-180 -310l200 -320h-225z" />
    <glyph glyph-name="L" unicode="L" horiz-adv-x="530" 
d="M50 630h200v-440h270v-190h-470v630z" />
    <glyph glyph-name="M" unicode="M" horiz-adv-x="830" 
d="M570 630h210v-630h-200v295l-135 -295h-60l-135 295v-295h-200v630h210l155 -330z" />
    <glyph glyph-name="N" unicode="N" horiz-adv-x="700" 
d="M650 630v-630h-190l-210 300v-300h-200v630h190l210 -300v300h200z" />
    <glyph glyph-name="O" unicode="O" horiz-adv-x="720" 
d="M490 315q0 28 -10.5 52.5t-28.5 43t-41.5 29t-49.5 10.5t-49.5 -10.5t-41.5 -29t-28.5 -43t-10.5 -52.5t10.5 -52.5t28.5 -43t41.5 -29t49.5 -10.5t49.5 10.5t41.5 29t28.5 43t10.5 52.5zM690 315q0 -68 -25.5 -127t-70 -103t-105 -69.5t-129.5 -25.5t-129.5 25.5
t-105 69.5t-70 103t-25.5 127q0 67 25.5 126.5t70 103.5t105 69.5t129.5 25.5t129.5 -25.5t105 -69.5t70 -103.5t25.5 -126.5z" />
    <glyph glyph-name="P" unicode="P" horiz-adv-x="595" 
d="M330 630q56 0 101.5 -17t77.5 -47.5t49 -72.5t17 -93t-17 -93t-49 -72.5t-77.5 -47.5t-101.5 -17h-80v-170h-200v630h280zM310 350q26 0 40.5 13.5t14.5 36.5t-14.5 36.5t-40.5 13.5h-60v-100h60z" />
    <glyph glyph-name="Q" unicode="Q" horiz-adv-x="720" 
d="M590 -30l-65 65q-18 -13 -43 -23q-21 -8 -52 -15t-70 -7q-69 0 -129.5 25.5t-105 69.5t-70 103t-25.5 127q0 67 25.5 126.5t70 103.5t105 69.5t129.5 25.5t129.5 -25.5t105 -69.5t70 -103.5t25.5 -126.5q0 -40 -8.5 -72.5t-19.5 -56.5q-12 -28 -27 -51l60 -60zM230 315
q0 -28 10.5 -52.5t28.5 -43t41.5 -29t49.5 -10.5h10l-35 35l105 105l45 -45q1 5 2 11q1 5 2 12t1 17q0 28 -10.5 52.5t-28.5 43t-41.5 29t-49.5 10.5t-49.5 -10.5t-41.5 -29t-28.5 -43t-10.5 -52.5z" />
    <glyph glyph-name="R" unicode="R" horiz-adv-x="620" 
d="M305 190h-55v-190h-200v630h294q55 0 99.5 -17t76 -46.5t48.5 -69.5t17 -87q0 -45 -15.5 -77.5t-34.5 -52.5q-22 -25 -50 -40l140 -240h-220zM324 365q23 0 37 13t14 32t-14 32t-37 13h-74v-90h74z" />
    <glyph glyph-name="S" unicode="S" horiz-adv-x="560" 
d="M30 450q0 37 16.5 71.5t47.5 61t75.5 42t100.5 15.5q62 0 110.5 -16.5t81.5 -45t50.5 -67t17.5 -81.5l-195 -20q0 23 -13 36.5t-32 13.5q-15 0 -25 -7t-10 -18q0 -15 21 -23.5t53 -17.5t68.5 -21.5t68.5 -34.5t53 -57.5t21 -90.5q0 -39 -17.5 -75.5t-49.5 -64t-78.5 -44
t-104.5 -16.5q-64 0 -114 17.5t-84.5 47.5t-53 70t-18.5 85l195 20q0 -26 16 -43t39 -17t34 10t11 25t-21 23.5t-53 17.5t-68.5 21.5t-68.5 34.5t-53 57.5t-21 90.5z" />
    <glyph glyph-name="T" unicode="T" horiz-adv-x="560" 
d="M380 0h-200v440h-165v190h530v-190h-165v-440z" />
    <glyph glyph-name="U" unicode="U" horiz-adv-x="670" 
d="M245 630v-360q0 -42 24 -66t66 -24t66 24t24 66v360h200v-360q0 -64 -20 -115.5t-57.5 -88t-91.5 -56.5t-121 -20q-68 0 -121.5 20t-91 56.5t-57.5 88t-20 115.5v360h200z" />
    <glyph glyph-name="V" unicode="V" horiz-adv-x="630" 
d="M630 630l-195 -630h-240l-195 630h215l100 -380l100 380h215z" />
    <glyph glyph-name="W" unicode="W" horiz-adv-x="910" 
d="M360 0h-180l-180 630h215l80 -320l90 320h140l90 -320l80 320h215l-180 -630h-180l-95 335z" />
    <glyph glyph-name="X" unicode="X" horiz-adv-x="620" 
d="M620 630l-185 -310l195 -320h-225l-95 170l-95 -170h-225l195 320l-185 310h225l85 -160l85 160h225z" />
    <glyph glyph-name="Y" unicode="Y" horiz-adv-x="620" 
d="M210 220l-220 410h220l100 -205l100 205h220l-220 -410v-220h-200v220z" />
    <glyph glyph-name="Z" unicode="Z" horiz-adv-x="580" 
d="M295 190h255v-190h-520v165l240 275h-230v190h495v-165z" />
    <glyph glyph-name="bracketleft" unicode="[" horiz-adv-x="365" 
d="M240 0h95v-180h-285v810h285v-180h-95v-450z" />
    <glyph glyph-name="backslash" unicode="\" horiz-adv-x="445" 
d="M0 630h185l260 -810h-185z" />
    <glyph glyph-name="bracketright" unicode="]" horiz-adv-x="365" 
d="M125 450h-95v180h285v-810h-285v180h95v450z" />
    <glyph glyph-name="asciicircum" unicode="^" horiz-adv-x="460" 
d="M290 330l-60 125l-60 -125h-150l150 300h120l150 -300h-150z" />
    <glyph glyph-name="underscore" unicode="_" horiz-adv-x="295" 
d="M315 -220h-335v170h335v-170z" />
    <glyph glyph-name="grave" unicode="`" horiz-adv-x="315" 
d="M285 500h-155l-100 140h190z" />
    <glyph glyph-name="a" unicode="a" horiz-adv-x="495" 
d="M255 470q47 0 85 -14t64.5 -39.5t41 -60.5t14.5 -76v-280h-130l-25 45q-16 -16 -36 -28q-17 -11 -42 -19t-57 -8q-75 0 -115 36.5t-40 93.5q0 34 14 63t45.5 50.5t82 34t123.5 12.5q0 19 -10 29.5t-25 10.5q-10 0 -16 -4t-11 -9t-8 -12l-175 20q7 43 33 77q11 15 27 29
t38.5 25t52.5 17.5t69 6.5zM230 120q19 0 34.5 17.5t15.5 47.5v10q-49 0 -67 -13t-18 -32q0 -11 10 -20.5t25 -9.5z" />
    <glyph glyph-name="b" unicode="b" horiz-adv-x="565" 
d="M335 -10q-32 0 -57 8t-42 19q-20 12 -36 28l-25 -45h-135v630h180v-200q10 11 27 20q14 8 36 14t52 6q39 0 76 -18t65.5 -49.5t46 -76t17.5 -96.5q0 -53 -17.5 -97t-46 -75.5t-65.5 -49.5t-76 -18zM220 230q0 -34 20 -54.5t50 -20.5t50 20.5t20 54.5t-20 54.5t-50 20.5
t-50 -20.5t-20 -54.5z" />
    <glyph glyph-name="c" unicode="c" horiz-adv-x="535" 
d="M275 470q39 0 70.5 -8t55.5 -21.5t42 -30.5t31 -35q30 -42 41 -95l-175 -20q-5 12 -14 22q-8 8 -20 15.5t-31 7.5q-30 0 -50 -20.5t-20 -54.5q0 -35 20 -55t50 -20q19 0 31 7t20 15q9 10 14 23l175 -20q-11 -54 -41 -95q-13 -18 -31 -35t-42 -30.5t-55.5 -21.5t-70.5 -8
q-53 0 -98.5 19t-79 52t-53 76.5t-19.5 92.5t19.5 92.5t53 76.5t79 52t98.5 19z" />
    <glyph glyph-name="d" unicode="d" horiz-adv-x="565" 
d="M230 -10q-39 0 -76 18t-65.5 49.5t-46 75.5t-17.5 97q0 52 17.5 96.5t46 76t65.5 49.5t76 18q30 0 51.5 -6t35.5 -14q17 -9 28 -20v200h180v-630h-135l-25 45q-16 -16 -36 -28q-17 -11 -42 -19t-57 -8zM345 230q0 34 -20 54.5t-50 20.5t-50 -20.5t-20 -54.5t20 -54.5
t50 -20.5t50 20.5t20 54.5z" />
    <glyph glyph-name="e" unicode="e" 
d="M505 145q-9 -28 -28 -56t-47.5 -50t-67 -35.5t-87.5 -13.5q-53 0 -98.5 19t-79 52t-53 76.5t-19.5 92.5t19.5 92.5t53 76.5t79 52t98.5 19q51 0 94.5 -18.5t76 -50t51 -73t18.5 -88.5q0 -11 -1 -21t-2 -18q-1 -9 -2 -16h-300q4 -19 21.5 -34.5t43.5 -15.5q15 0 25 4.5
t17 10.5q8 6 13 15zM275 330q-23 0 -39.5 -16t-20.5 -39h120q-4 23 -20.5 39t-39.5 16z" />
    <glyph glyph-name="f" unicode="f" horiz-adv-x="370" 
d="M15 430h55v15q0 91 49 140.5t136 49.5q19 0 34.5 -2.5t26.5 -5.5q13 -4 24 -7v-160l-12 2q-5 1 -11.5 2t-11.5 1q-17 0 -27 -5.5t-15 -12.5q-6 -8 -8 -17h85v-160h-90v-270h-180v270h-55v160z" />
    <glyph glyph-name="g" unicode="g" horiz-adv-x="565" 
d="M340 250q0 30 -19.5 50t-45.5 20t-45.5 -20t-19.5 -50t19.5 -50t45.5 -20t45.5 20t19.5 50zM345 70q-11 -11 -28 -20q-14 -8 -35.5 -14t-51.5 -6q-41 0 -78.5 17t-65.5 46.5t-44.5 69.5t-16.5 87t16.5 87t44.5 69.5t65.5 46.5t78.5 17q32 0 57 -8.5t42 -19.5
q20 -12 36 -27l25 45h135v-410q0 -47 -17 -87t-48.5 -69.5t-76 -46.5t-98.5 -17q-39 0 -70.5 7t-55.5 18.5t-42 26.5t-31 30q-30 36 -41 83l185 20q4 -10 12 -18q7 -7 17.5 -12t25.5 -5q26 0 43 18t17 52v20z" />
    <glyph glyph-name="h" unicode="h" horiz-adv-x="550" 
d="M340 470q37 0 69.5 -13.5t55.5 -39.5t36.5 -63t13.5 -84v-270h-180v230q0 30 -16 47.5t-39 17.5q-26 0 -43 -17.5t-17 -47.5v-230h-180v630h180v-205q14 12 32 22q16 8 37.5 15.5t50.5 7.5z" />
    <glyph glyph-name="i" unicode="i" horiz-adv-x="260" 
d="M220 0h-180v460h180v-460zM35 590q0 38 26.5 64t68.5 26t68.5 -26t26.5 -64t-26.5 -64t-68.5 -26t-68.5 26t-26.5 64z" />
    <glyph glyph-name="j" unicode="j" horiz-adv-x="260" 
d="M40 460h180v-440q0 -91 -49 -140.5t-136 -49.5q-19 0 -34.5 2t-26.5 5q-13 4 -24 8v160q5 -2 10 -3t11 -1.5t14 -0.5q55 0 55 60v400zM35 590q0 38 26.5 64t68.5 26t68.5 -26t26.5 -64t-26.5 -64t-68.5 -26t-68.5 26t-26.5 64z" />
    <glyph glyph-name="k" unicode="k" horiz-adv-x="510" 
d="M320 0l-100 190v-190h-180v630h180v-345l90 175h195l-125 -220l140 -240h-200z" />
    <glyph glyph-name="l" unicode="l" horiz-adv-x="260" 
d="M220 0h-180v630h180v-630z" />
    <glyph glyph-name="m" unicode="m" horiz-adv-x="775" 
d="M575 470q75 0 120 -47t45 -138v-285h-180v245q0 50 -40 50t-40 -50v-245h-180v245q0 50 -40 50t-40 -50v-245h-180v460h130l25 -45q12 15 30 27q15 11 37.5 19.5t52.5 8.5q34 0 57.5 -8.5t38.5 -19.5q18 -12 29 -27q16 15 36 27q17 11 42 19.5t57 8.5z" />
    <glyph glyph-name="n" unicode="n" horiz-adv-x="550" 
d="M330 470q41 0 75 -13.5t58.5 -39.5t38 -63t13.5 -84v-270h-180v230q0 30 -16 47.5t-39 17.5q-26 0 -43 -17.5t-17 -47.5v-230h-180v460h130l25 -45q16 15 36 27q17 11 42 19.5t57 8.5z" />
    <glyph glyph-name="o" unicode="o" horiz-adv-x="550" 
d="M25 230q0 49 19.5 92.5t53 76.5t79 52t98.5 19q52 0 98 -19t79.5 -52t53 -76.5t19.5 -92.5t-19.5 -92.5t-53 -76.5t-79.5 -52t-98 -19q-53 0 -98.5 19t-79 52t-53 76.5t-19.5 92.5zM345 230q0 34 -20 54.5t-50 20.5t-50 -20.5t-20 -54.5t20 -54.5t50 -20.5t50 20.5
t20 54.5z" />
    <glyph glyph-name="p" unicode="p" horiz-adv-x="565" 
d="M335 470q39 0 76 -18t65.5 -49.5t46 -76t17.5 -96.5q0 -53 -17.5 -97t-46 -75.5t-65.5 -49.5t-76 -18q-30 0 -52 6t-36 14q-17 9 -27 20v-190h-180v620h135l25 -45q16 15 36 27q17 11 42 19.5t57 8.5zM220 230q0 -34 20 -54.5t50 -20.5t50 20.5t20 54.5t-20 54.5
t-50 20.5t-50 -20.5t-20 -54.5z" />
    <glyph glyph-name="q" unicode="q" horiz-adv-x="565" 
d="M230 470q32 0 57 -8.5t42 -19.5q20 -12 36 -27l25 45h135v-620h-180v190q-11 -11 -28 -20q-14 -8 -35.5 -14t-51.5 -6q-39 0 -76 18t-65.5 49.5t-46 75.5t-17.5 97q0 52 17.5 96.5t46 76t65.5 49.5t76 18zM345 230q0 34 -20 54.5t-50 20.5t-50 -20.5t-20 -54.5t20 -54.5
t50 -20.5t50 20.5t20 54.5z" />
    <glyph glyph-name="r" unicode="r" horiz-adv-x="365" 
d="M300 470q11 0 20 -1.5t16 -3.5q8 -3 14 -5v-185q-6 2 -14 5q-7 2 -16 3.5t-20 1.5q-34 0 -57 -23.5t-23 -61.5v-200h-180v460h130l25 -45q12 15 28 27q14 11 33 19.5t44 8.5z" />
    <glyph glyph-name="s" unicode="s" horiz-adv-x="465" 
d="M185 155q0 -11 10 -20.5t25 -9.5q35 0 35 25q0 8 -17 12t-42.5 9.5t-55.5 14.5t-55.5 25.5t-42.5 42.5t-17 66q0 28 13.5 55t39.5 48t63 34t84 13q52 0 90.5 -10.5t64.5 -30t41.5 -46t23.5 -58.5l-170 -20q0 11 -7.5 20.5t-22.5 9.5q-11 0 -18 -6t-7 -14t17 -12
t42.5 -9.5t55.5 -14.5t55.5 -25.5t42.5 -42.5t17 -66q0 -30 -14 -58t-40.5 -49.5t-65.5 -34.5t-90 -13q-54 0 -93.5 10.5t-66 30t-42.5 46t-23 58.5z" />
    <glyph glyph-name="t" unicode="t" horiz-adv-x="400" 
d="M260 220q0 -60 55 -60q8 0 14 0.5t11 1.5t10 3v-160q-11 -4 -24 -8q-11 -3 -26.5 -5t-34.5 -2q-87 0 -136 49.5t-49 140.5v120h-65v150h35q23 0 36.5 13.5t13.5 36.5v70h160v-110h90v-160h-90v-80z" />
    <glyph glyph-name="u" unicode="u" horiz-adv-x="555" 
d="M225 -10q-41 0 -75 13.5t-58.5 39.5t-38 63t-13.5 84v270h180v-230q0 -30 16 -47.5t39 -17.5q26 0 43 17.5t17 47.5v230h180v-460h-130l-25 45q-16 -16 -36 -28q-17 -11 -42 -19t-57 -8z" />
    <glyph glyph-name="v" unicode="v" horiz-adv-x="520" 
d="M185 460l75 -270l75 270h190l-160 -460h-210l-160 460h190z" />
    <glyph glyph-name="w" unicode="w" horiz-adv-x="740" 
d="M305 0h-155l-155 460h190l55 -220l65 220h130l65 -220l55 220h190l-155 -460h-155l-65 220z" />
    <glyph glyph-name="x" unicode="x" horiz-adv-x="500" 
d="M250 350l60 110h190l-135 -225l145 -235h-195l-65 115l-65 -115h-195l145 235l-135 225h190z" />
    <glyph glyph-name="y" unicode="y" horiz-adv-x="520" 
d="M-5 460h190l75 -240l75 240h190l-180 -460q-32 -83 -79 -126.5t-126 -43.5q-30 0 -50 5q-11 2 -20 5v160h40q15 0 25 3.5t17 8.5q8 5 13 13z" />
    <glyph glyph-name="z" unicode="z" horiz-adv-x="475" 
d="M195 295h-165v165h405v-145l-165 -150h175v-165h-415v145z" />
    <glyph glyph-name="braceleft" unicode="{" horiz-adv-x="390" 
d="M30 300q17 0 30 7q11 5 20.5 17.5t9.5 35.5v80q0 98 47 144t153 46h70v-180h-30q-23 0 -36.5 -13.5t-13.5 -36.5v-70q0 -32 -12 -52t-26 -32q-17 -14 -37 -21q20 -7 37 -21q14 -12 26 -32t12 -52v-70q0 -23 13.5 -36.5t36.5 -13.5h30v-180h-70q-106 0 -153 46t-47 144v80
q0 23 -9.5 34.5t-20.5 17.5q-13 6 -30 8v150z" />
    <glyph glyph-name="bar" unicode="|" horiz-adv-x="430" 
d="M310 -160h-190v790h190v-790z" />
    <glyph glyph-name="braceright" unicode="}" horiz-adv-x="390" 
d="M360 150q-17 -2 -30 -8q-11 -6 -20.5 -17.5t-9.5 -34.5v-80q0 -98 -47 -144t-153 -46h-70v180h30q23 0 36.5 13.5t13.5 36.5v70q0 32 11.5 52t25.5 32q17 14 38 21q-21 7 -38 21q-14 12 -25.5 32t-11.5 52v70q0 23 -13.5 36.5t-36.5 13.5h-30v180h70q106 0 153 -46
t47 -144v-80q0 -23 9.5 -35.5t20.5 -17.5q13 -7 30 -7v-150z" />
    <glyph glyph-name="asciitilde" unicode="~" horiz-adv-x="480" 
d="M470 355q0 -49 -10.5 -84.5t-29 -59t-43 -35t-52.5 -11.5q-26 0 -47 7t-38 15.5t-30.5 15.5t-24.5 7q-32 0 -40 -40l-145 10q0 49 10.5 84.5t29 59t43 35t52.5 11.5q26 0 47 -7t38 -15.5t30.5 -15.5t24.5 -7q32 0 40 40z" />
    <glyph glyph-name="nonbreakingspace" unicode="&#xa0;" horiz-adv-x="240" 
 />
    <glyph glyph-name="exclamdown" unicode="&#xa1;" horiz-adv-x="310" 
d="M70 240h170l20 -400h-210zM250 375q0 -42 -26.5 -68.5t-68.5 -26.5t-68.5 26.5t-26.5 68.5t26.5 68.5t68.5 26.5t68.5 -26.5t26.5 -68.5z" />
    <glyph glyph-name="cent" unicode="&#xa2;" horiz-adv-x="535" 
d="M180 10q-44 18 -78 48q-29 26 -53 67.5t-24 104.5q0 62 24 104t53 68q34 30 78 48v80h180v-73q51 -16 81 -45.5t47 -58.5q19 -34 27 -73l-175 -20q-5 12 -14 22q-8 8 -20 15.5t-31 7.5q-30 0 -50 -20.5t-20 -54.5q0 -35 20 -55t50 -20q19 0 31 7t20 15q9 10 14 23
l175 -20q-8 -39 -27 -73q-17 -29 -47 -59t-81 -46v-82h-180v90z" />
    <glyph glyph-name="sterling" unicode="&#xa3;" horiz-adv-x="545" 
d="M280 240q0 -11 -5 -20t-10 -16q-7 -8 -15 -14h270v-190h-490v190q23 0 36.5 13.5t13.5 36.5h-40v140h40v45q0 49 15.5 88.5t44 67.5t69 43.5t91.5 15.5q41 0 73 -8.5t56.5 -22t41.5 -31.5t29 -36q27 -43 35 -97l-185 -20q0 23 -10 34t-25 11t-25 -11t-10 -33v-46h110
v-140h-110z" />
    <glyph glyph-name="currency" unicode="&#xa4;" horiz-adv-x="595" 
d="M25 375h55v255h245q60 0 106.5 -15.5t78.5 -42.5t48.5 -62.5t16.5 -74.5t-16.5 -74.5t-48.5 -62.5t-78.5 -42.5t-106.5 -15.5h-45v-30h150v-130h-150v-80h-200v80h-55v130h55v30h-55v135zM305 375q26 0 43 16t17 39t-17 39t-43 16h-25v-110h25z" />
    <glyph glyph-name="yen" unicode="&#xa5;" horiz-adv-x="620" 
d="M95 200h115v30h-115v130h45l-150 270h220l100 -205l100 205h220l-150 -270h40v-130h-110v-30h110v-130h-110v-70h-200v70h-115v130z" />
    <glyph glyph-name="brokenbar" unicode="&#xa6;" horiz-adv-x="430" 
d="M310 630v-310h-190v310h190zM120 150h190v-310h-190v310z" />
    <glyph glyph-name="section" unicode="&#xa7;" horiz-adv-x="505" 
d="M390 120q14 -12 25 -28q9 -14 17 -33.5t8 -43.5q0 -28 -12 -53.5t-35.5 -44.5t-58 -30.5t-79.5 -11.5q-91 0 -143 41.5t-67 113.5l160 20q0 -23 10 -34t25 -11q11 0 20.5 7.5t9.5 22.5q0 14 -17 23.5t-42.5 19.5t-55.5 23t-55.5 34t-42.5 52.5t-17 77.5q0 34 11.5 58.5
t25.5 40.5q17 18 38 31q-14 12 -25 28q-10 14 -17.5 33t-7.5 44q0 28 12 53.5t35.5 44.5t58 30.5t79.5 11.5q91 0 143 -41.5t67 -113.5l-160 -20q0 23 -10 34t-25 11q-11 0 -20.5 -7.5t-9.5 -22.5q0 -14 17 -23.5t42.5 -19.5t55.5 -23t55.5 -34t42.5 -52.5t17 -77.5
q0 -34 -12 -58.5t-26 -40.5q-17 -18 -37 -31zM225 305q-3 -4 -5 -9q-5 -10 -5 -21q0 -21 10 -33.5t22 -19.5q14 -8 33 -12q2 4 5 9q2 5 3.5 10t1.5 11q0 20 -10.5 33t-22.5 20q-14 8 -32 12z" />
    <glyph glyph-name="dieresis" unicode="&#xa8;" horiz-adv-x="430" 
d="M400 575q0 -17 -7 -32.5t-18.5 -27t-27 -18.5t-32.5 -7t-32.5 7t-27 18.5t-18.5 27t-7 32.5t7 32.5t18.5 27t27 18.5t32.5 7t32.5 -7t27 -18.5t18.5 -27t7 -32.5zM200 575q0 -17 -7 -32.5t-18.5 -27t-27 -18.5t-32.5 -7t-32.5 7t-27 18.5t-18.5 27t-7 32.5t7 32.5
t18.5 27t27 18.5t32.5 7t32.5 -7t27 -18.5t18.5 -27t7 -32.5z" />
    <glyph glyph-name="copyright" unicode="&#xa9;" horiz-adv-x="750" 
d="M325 315q0 -30 16 -47.5t39 -17.5q17 0 27.5 6t16.5 14q7 9 11 20l110 -10l-2 -10.5t-8.5 -26t-17.5 -33.5t-29.5 -33.5t-45 -26t-62.5 -10.5q-38 0 -70 13.5t-55 36.5t-36.5 55t-13.5 70q0 37 13.5 69.5t36.5 55.5t55 36.5t70 13.5q54 0 87 -22t50 -48q20 -31 28 -70
l-110 -10q-4 11 -11 20q-6 8 -16.5 14t-27.5 6q-23 0 -39 -17.5t-16 -47.5zM605 315q0 47 -17.5 88t-48.5 71.5t-73 48t-91 17.5t-91 -17.5t-73 -48t-48.5 -71.5t-17.5 -88t17.5 -88t48.5 -71.5t73 -48t91 -17.5t91 17.5t73 48t48.5 71.5t17.5 88zM710 315q0 -68 -25.5 -127
t-70.5 -103t-106.5 -69.5t-132.5 -25.5t-132.5 25.5t-106.5 69.5t-70.5 103t-25.5 127q0 67 25.5 126.5t70.5 103.5t106.5 69.5t132.5 25.5t132.5 -25.5t106.5 -69.5t70.5 -103.5t25.5 -126.5z" />
    <glyph glyph-name="ordfeminine" unicode="&#xaa;" horiz-adv-x="340" 
d="M169 635q61 0 96 -33t35 -82v-170h-82l-13 30q-11 -10 -24 -18q-12 -7 -28.5 -12t-37.5 -5q-45 0 -70 23t-25 57q0 21 8.5 38t28 30t52 20t81.5 7q0 25 -25 25q-10 0 -16 -8q-3 -4 -4 -7h-105q0 45 33 75t96 30zM155 420q15 0 25 10t10 25v15q-30 0 -42.5 -9.5
t-12.5 -20.5q0 -8 4.5 -14t15.5 -6z" />
    <glyph glyph-name="guillemotleft" unicode="&#xab;" horiz-adv-x="585" 
d="M320 50h-170l-120 175l120 175h170l-120 -175zM555 50h-170l-120 175l120 175h170l-120 -175z" />
    <glyph glyph-name="logicalnot" unicode="&#xac;" horiz-adv-x="505" 
d="M285 250h-255v170h435v-265h-180v95z" />
    <glyph glyph-name="uni00AD" unicode="&#xad;" horiz-adv-x="400" 
d="M360 170h-320v170h320v-170z" />
    <glyph glyph-name="registered" unicode="&#xae;" horiz-adv-x="750" 
d="M710 315q0 -68 -25.5 -127t-70.5 -103t-106.5 -69.5t-132.5 -25.5t-132.5 25.5t-106.5 69.5t-70.5 103t-25.5 127q0 67 25.5 126.5t70.5 103.5t106.5 69.5t132.5 25.5t132.5 -25.5t106.5 -69.5t70.5 -103.5t25.5 -126.5zM605 315q0 47 -17.5 88t-48.5 71.5t-73 48
t-91 17.5t-91 -17.5t-73 -48t-48.5 -71.5t-17.5 -88t17.5 -88t48.5 -71.5t73 -48t91 -17.5q38 0 67 9.5t50 20.5q24 13 43 30h-100l-65 100h-10v-100h-110v330h140q60 0 95 -33t35 -82q0 -25 -8.5 -41t-19.5 -26q-12 -11 -27 -18l85 -115q15 16 27 39q11 20 19.5 47.5
t8.5 63.5zM390 345q11 0 18 6t7 14t-7 14t-18 6h-30v-40h30z" />
    <glyph glyph-name="macron" unicode="&#xaf;" horiz-adv-x="350" 
d="M320 510h-290v135h290v-135z" />
    <glyph glyph-name="degree" unicode="&#xb0;" horiz-adv-x="340" 
d="M310 500q0 -28 -10.5 -52.5t-29.5 -43t-44.5 -29t-55.5 -10.5t-55.5 10.5t-44.5 29t-29.5 43t-10.5 52.5t10.5 52.5t29.5 43t44.5 29t55.5 10.5t55.5 -10.5t44.5 -29t29.5 -43t10.5 -52.5zM135 500q0 -15 10 -25t25 -10t25 10t10 25t-10 25t-25 10t-25 -10t-10 -25z" />
    <glyph glyph-name="plusminus" unicode="&#xb1;" horiz-adv-x="480" 
d="M445 0h-410v165h120v80h-120v170h120v125h170v-125h120v-170h-120v-80h120v-165z" />
    <glyph glyph-name="twosuperior" unicode="&#xb2;" horiz-adv-x="289" 
d="M274 510v-100h-260v80l115 90q7 6 12 12q5 5 9 11t4 12q0 15 -15 15q-8 0 -14 -7t-6 -18l-109 10q7 49 41 79.5t98 30.5t97 -29t33 -71q0 -15 -6 -29t-15 -26t-19.5 -22.5t-19.5 -17.5l-25 -20h80z" />
    <glyph glyph-name="threesuperior" unicode="&#xb3;" horiz-adv-x="295" 
d="M5 625q8 45 40.5 72.5t104.5 27.5q32 0 56 -7.5t40.5 -20.5t25 -29t8.5 -33t-6 -29t-14 -20q-9 -10 -20 -16q12 -6 22 -16q8 -8 15.5 -20t7.5 -29q0 -42 -33.5 -71t-101.5 -29q-75 0 -109 27.5t-41 72.5l120 10q-1 -6 2 -10q4 -10 18 -10q8 0 14 3.5t6 11.5t-6 11.5
t-14 3.5h-30v80h25q8 0 14 3.5t6 11.5t-6 11.5t-14 3.5q-14 0 -18 -10q-3 -4 -2 -10z" />
    <glyph glyph-name="acute" unicode="&#xb4;" horiz-adv-x="315" 
d="M95 640h190l-100 -140h-155z" />
    <glyph glyph-name="mu" unicode="&#xb5;" horiz-adv-x="555" 
d="M40 460h180v-230q0 -30 16 -47.5t39 -17.5q26 0 43 17.5t17 47.5v230h180v-460h-130l-25 45q-9 -16 -24 -28q-13 -11 -33 -19t-48 -8q-8 0 -14 0.5t-11 1.5t-10 3v-155h-180v620z" />
    <glyph glyph-name="paragraph" unicode="&#xb6;" horiz-adv-x="595" 
d="M545 630v-720h-145v550h-50v-550h-145v350q-39 0 -73 14t-59 39t-39 59t-14 73t14 73t39 59t59 39t73 14h340z" />
    <glyph glyph-name="periodcentered" unicode="&#xb7;" horiz-adv-x="240" 
d="M25 315q0 42 26.5 68.5t68.5 26.5t68.5 -26.5t26.5 -68.5t-26.5 -68.5t-68.5 -26.5t-68.5 26.5t-26.5 68.5z" />
    <glyph glyph-name="cedilla" unicode="&#xb8;" horiz-adv-x="280" 
d="M145 -40q29 -4 52 -15q20 -10 36.5 -27.5t16.5 -47.5q0 -41 -34.5 -70.5t-105.5 -29.5q-34 0 -57 5q-12 3 -23 6v59q5 -2 12 -3q5 -1 12.5 -1.5t15.5 -0.5q30 0 42.5 10.5t12.5 29.5q0 15 -12.5 25t-42.5 10h-10l35 90h65z" />
    <glyph glyph-name="onesuperior" unicode="&#xb9;" horiz-adv-x="275" 
d="M215 720v-310h-125v165l-25 -15l-55 85l120 75h85z" />
    <glyph glyph-name="ordmasculine" unicode="&#xba;" horiz-adv-x="330" 
d="M195 490q0 19 -9.5 29.5t-20.5 10.5t-20.5 -10.5t-9.5 -29.5t9.5 -29.5t20.5 -10.5t20.5 10.5t9.5 29.5zM310 490q0 -30 -11.5 -56.5t-31 -46t-46 -31t-56.5 -11.5t-56.5 11.5t-46 31t-31 46t-11.5 56.5t11.5 56.5t31 46t46 31t56.5 11.5t56.5 -11.5t46 -31t31 -46
t11.5 -56.5z" />
    <glyph glyph-name="guillemotright" unicode="&#xbb;" horiz-adv-x="585" 
d="M385 225l-120 175h170l120 -175l-120 -175h-170zM150 225l-120 175h170l120 -175l-120 -175h-170z" />
    <glyph glyph-name="onequarter" unicode="&#xbc;" horiz-adv-x="690" 
d="M75 0l385 630h150l-385 -630h-150zM215 630v-310h-125v165l-25 -15l-55 85l120 75h85zM670 60h-30v-60h-125v60h-135v70l110 180h150v-150h30v-100zM530 150v65l-40 -65h40z" />
    <glyph glyph-name="onehalf" unicode="&#xbd;" horiz-adv-x="710" 
d="M75 0l385 630h150l-385 -630h-150zM215 630v-310h-125v165l-25 -15l-55 85l120 75h85zM675 100v-100h-260v80l115 90q7 6 12 12q5 5 9 11t4 12q0 15 -15 15q-8 0 -14 -7t-6 -18l-109 10q7 49 41 79.5t98 30.5t97 -29t33 -71q0 -15 -6 -29t-15 -26t-19.5 -22.5
t-19.5 -17.5l-25 -20h80z" />
    <glyph glyph-name="threequarters" unicode="&#xbe;" horiz-adv-x="725" 
d="M110 0l385 630h150l-385 -630h-150zM705 60h-30v-60h-125v60h-135v70l110 180h150v-150h30v-100zM565 150v65l-40 -65h40zM15 535q8 45 40.5 72.5t104.5 27.5q32 0 56 -7.5t40.5 -20.5t25 -29t8.5 -33t-6 -29t-14 -20q-9 -10 -20 -16q12 -6 22 -16q8 -8 15.5 -20t7.5 -29
q0 -42 -33.5 -71t-101.5 -29q-75 0 -109 27.5t-41 72.5l120 10q-1 -6 2 -10q4 -10 18 -10q8 0 14 3.5t6 11.5t-6 11.5t-14 3.5h-30v80h25q8 0 14 3.5t6 11.5t-6 11.5t-14 3.5q-14 0 -18 -10q-3 -4 -2 -10z" />
    <glyph glyph-name="questiondown" unicode="&#xbf;" horiz-adv-x="475" 
d="M10 10q0 32 9.5 55t24.5 40t32.5 31t33 29t26.5 32.5t14 42.5h180q0 -49 -17 -82t-38 -56t-38 -38.5t-17 -28.5q0 -25 25 -25q11 0 23 11t12 34l185 -20q-2 -43 -19 -80.5t-47 -65t-71.5 -43.5t-92.5 -16q-54 0 -96 14t-70.5 38.5t-43.5 57t-15 70.5zM145 375
q0 42 26.5 68.5t68.5 26.5t68.5 -26.5t26.5 -68.5t-26.5 -68.5t-68.5 -26.5t-68.5 26.5t-26.5 68.5z" />
    <glyph glyph-name="Agrave" unicode="&#xc0;" horiz-adv-x="640" 
d="M0 0zM320 420l-40 -150h80zM235 110l-30 -110h-215l210 630h240l210 -630h-215l-30 110h-170zM400 695h-155l-100 140h190z" />
    <glyph glyph-name="Aacute" unicode="&#xc1;" horiz-adv-x="640" 
d="M0 0zM320 420l-40 -150h80zM235 110l-30 -110h-215l210 630h240l210 -630h-215l-30 110h-170zM305 835h190l-100 -140h-155z" />
    <glyph glyph-name="Acircumflex" unicode="&#xc2;" horiz-adv-x="640" 
d="M0 0zM320 420l-40 -150h80zM235 110l-30 -110h-215l210 630h240l210 -630h-215l-30 110h-170zM320 745l-40 -55h-150l105 145h170l105 -145h-150z" />
    <glyph glyph-name="Atilde" unicode="&#xc3;" horiz-adv-x="640" 
d="M0 0zM320 420l-40 -150h80zM235 110l-30 -110h-215l210 630h240l210 -630h-215l-30 110h-170zM160 690q0 75 26 107.5t64 32.5q19 0 32.5 -4.5t24.5 -10.5t20 -10.5t18 -4.5q25 0 25 25l110 -10q0 -75 -26 -107.5t-64 -32.5q-19 0 -32.5 4.5t-24.5 10.5t-20 10.5t-18 4.5
q-25 0 -25 -25z" />
    <glyph glyph-name="Adieresis" unicode="&#xc4;" horiz-adv-x="640" 
d="M0 0zM320 420l-40 -150h80zM235 110l-30 -110h-215l210 630h240l210 -630h-215l-30 110h-170zM505 765q0 -17 -7 -32.5t-18.5 -27t-27 -18.5t-32.5 -7t-32.5 7t-27 18.5t-18.5 27t-7 32.5t7 32.5t18.5 27t27 18.5t32.5 7t32.5 -7t27 -18.5t18.5 -27t7 -32.5zM305 765
q0 -17 -7 -32.5t-18.5 -27t-27 -18.5t-32.5 -7t-32.5 7t-27 18.5t-18.5 27t-7 32.5t7 32.5t18.5 27t27 18.5t32.5 7t32.5 -7t27 -18.5t18.5 -27t7 -32.5z" />
    <glyph glyph-name="Aring" unicode="&#xc5;" horiz-adv-x="640" 
d="M0 0zM320 420l-40 -150h80zM235 110l-30 -110h-215l210 630h240l210 -630h-215l-30 110h-170zM435 775q0 -45 -31 -75t-84 -30t-84 30t-31 75t31 75t84 30t84 -30t31 -75zM355 775q0 15 -10 25t-25 10t-25 -10t-10 -25t10 -25t25 -10t25 10t10 25z" />
    <glyph glyph-name="AE" unicode="&#xc6;" horiz-adv-x="900" 
d="M400 110h-165l-50 -110h-215l300 630h590v-170h-260v-60h235v-160h-235v-70h270v-170h-470v110zM400 460l-85 -180h85v180z" />
    <glyph glyph-name="Ccedilla" unicode="&#xc7;" horiz-adv-x="690" 
d="M360 180q30 0 50.5 10.5t34.5 24.5q15 15 25 35l200 -20q-15 -63 -51 -114q-15 -22 -36.5 -43.5t-50 -39t-65 -29t-82.5 -14.5l-10 -30q29 -4 52 -15q20 -10 36.5 -27.5t16.5 -47.5q0 -41 -34.5 -70.5t-105.5 -29.5q-34 0 -57 5q-12 3 -23 6v59q5 -2 12 -3
q5 -1 12.5 -1.5t15.5 -0.5q30 0 42.5 10.5t12.5 29.5q0 15 -12.5 25t-42.5 10h-10l35 80q-62 7 -116 34.5t-93.5 70t-62.5 98.5t-23 122q0 67 25.5 126.5t70 103.5t105 69.5t129.5 25.5q51 0 91 -10.5t71 -27t54 -38.5t40 -44q39 -53 54 -120l-200 -20q-10 19 -25 35
q-14 13 -34.5 24t-50.5 11q-26 0 -49.5 -10.5t-41.5 -29t-28.5 -43t-10.5 -52.5t10.5 -52.5t28.5 -43t41.5 -29t49.5 -10.5z" />
    <glyph glyph-name="Egrave" unicode="&#xc8;" horiz-adv-x="580" 
d="M50 0zM50 630h490v-170h-290v-60h265v-160h-265v-70h300v-170h-500v630zM380 696h-155l-100 140h190z" />
    <glyph glyph-name="Eacute" unicode="&#xc9;" horiz-adv-x="580" 
d="M50 0zM50 630h490v-170h-290v-60h265v-160h-265v-70h300v-170h-500v630zM275 835h190l-100 -140h-155z" />
    <glyph glyph-name="Ecircumflex" unicode="&#xca;" horiz-adv-x="580" 
d="M50 0zM50 630h490v-170h-290v-60h265v-160h-265v-70h300v-170h-500v630zM300 745l-40 -55h-150l105 145h170l105 -145h-150z" />
    <glyph glyph-name="Edieresis" unicode="&#xcb;" horiz-adv-x="580" 
d="M50 0zM50 630h490v-170h-290v-60h265v-160h-265v-70h300v-170h-500v630zM485 765q0 -17 -7 -32.5t-18.5 -27t-27 -18.5t-32.5 -7t-32.5 7t-27 18.5t-18.5 27t-7 32.5t7 32.5t18.5 27t27 18.5t32.5 7t32.5 -7t27 -18.5t18.5 -27t7 -32.5zM285 765q0 -17 -7 -32.5
t-18.5 -27t-27 -18.5t-32.5 -7t-32.5 7t-27 18.5t-18.5 27t-7 32.5t7 32.5t18.5 27t27 18.5t32.5 7t32.5 -7t27 -18.5t18.5 -27t7 -32.5z" />
    <glyph glyph-name="Igrave" unicode="&#xcc;" horiz-adv-x="300" 
d="M0 0zM250 0h-200v630h200v-630zM230 695h-155l-100 140h190z" />
    <glyph glyph-name="Iacute" unicode="&#xcd;" horiz-adv-x="300" 
d="M50 0zM250 0h-200v630h200v-630zM135 835h190l-100 -140h-155z" />
    <glyph glyph-name="Icircumflex" unicode="&#xce;" horiz-adv-x="300" 
d="M0 0zM250 0h-200v630h200v-630zM150 745l-40 -55h-150l105 145h170l105 -145h-150z" />
    <glyph glyph-name="Idieresis" unicode="&#xcf;" horiz-adv-x="300" 
d="M0 0zM335 765q0 -17 -7 -32.5t-18.5 -27t-27 -18.5t-32.5 -7t-32.5 7t-27 18.5t-18.5 27t-7 32.5t7 32.5t18.5 27t27 18.5t32.5 7t32.5 -7t27 -18.5t18.5 -27t7 -32.5zM135 765q0 -17 -7 -32.5t-18.5 -27t-27 -18.5t-32.5 -7t-32.5 7t-27 18.5t-18.5 27t-7 32.5t7 32.5
t18.5 27t27 18.5t32.5 7t32.5 -7t27 -18.5t18.5 -27t7 -32.5zM250 0h-200v630h200v-630z" />
    <glyph glyph-name="Eth" unicode="&#xd0;" horiz-adv-x="675" 
d="M75 230h-55v160h55v240h240q73 0 134 -24t104.5 -66t67.5 -100t24 -125q0 -68 -24 -125.5t-67.5 -99.5t-104.5 -66t-134 -24h-240v230zM345 230h-70v-50h40q26 0 49.5 10.5t41.5 29t28.5 43t10.5 52.5t-10.5 52.5t-28.5 43t-41.5 29t-49.5 10.5h-40v-60h70v-160z" />
    <glyph glyph-name="Ntilde" unicode="&#xd1;" horiz-adv-x="700" 
d="M50 0zM650 630v-630h-190l-210 300v-300h-200v630h190l210 -300v300h200zM190 700q0 75 26 107.5t64 32.5q19 0 32.5 -4.5t24.5 -10.5t20 -10.5t18 -4.5q25 0 25 25l110 -10q0 -75 -26 -107.5t-64 -32.5q-19 0 -32.5 4.5t-24.5 10.5t-20 10.5t-18 4.5q-25 0 -25 -25z" />
    <glyph glyph-name="Ograve" unicode="&#xd2;" horiz-adv-x="720" 
d="M30 0zM490 315q0 28 -10.5 52.5t-28.5 43t-41.5 29t-49.5 10.5t-49.5 -10.5t-41.5 -29t-28.5 -43t-10.5 -52.5t10.5 -52.5t28.5 -43t41.5 -29t49.5 -10.5t49.5 10.5t41.5 29t28.5 43t10.5 52.5zM690 315q0 -68 -25.5 -127t-70 -103t-105 -69.5t-129.5 -25.5t-129.5 25.5
t-105 69.5t-70 103t-25.5 127q0 67 25.5 126.5t70 103.5t105 69.5t129.5 25.5t129.5 -25.5t105 -69.5t70 -103.5t25.5 -126.5zM445 695h-155l-100 140h190z" />
    <glyph glyph-name="Oacute" unicode="&#xd3;" horiz-adv-x="720" 
d="M30 0zM490 315q0 28 -10.5 52.5t-28.5 43t-41.5 29t-49.5 10.5t-49.5 -10.5t-41.5 -29t-28.5 -43t-10.5 -52.5t10.5 -52.5t28.5 -43t41.5 -29t49.5 -10.5t49.5 10.5t41.5 29t28.5 43t10.5 52.5zM690 315q0 -68 -25.5 -127t-70 -103t-105 -69.5t-129.5 -25.5t-129.5 25.5
t-105 69.5t-70 103t-25.5 127q0 67 25.5 126.5t70 103.5t105 69.5t129.5 25.5t129.5 -25.5t105 -69.5t70 -103.5t25.5 -126.5zM340 835h190l-100 -140h-155z" />
    <glyph glyph-name="Ocircumflex" unicode="&#xd4;" horiz-adv-x="720" 
d="M30 0zM490 315q0 28 -10.5 52.5t-28.5 43t-41.5 29t-49.5 10.5t-49.5 -10.5t-41.5 -29t-28.5 -43t-10.5 -52.5t10.5 -52.5t28.5 -43t41.5 -29t49.5 -10.5t49.5 10.5t41.5 29t28.5 43t10.5 52.5zM690 315q0 -68 -25.5 -127t-70 -103t-105 -69.5t-129.5 -25.5t-129.5 25.5
t-105 69.5t-70 103t-25.5 127q0 67 25.5 126.5t70 103.5t105 69.5t129.5 25.5t129.5 -25.5t105 -69.5t70 -103.5t25.5 -126.5zM360 745l-40 -55h-150l105 145h170l105 -145h-150z" />
    <glyph glyph-name="Otilde" unicode="&#xd5;" horiz-adv-x="720" 
d="M30 0zM490 315q0 28 -10.5 52.5t-28.5 43t-41.5 29t-49.5 10.5t-49.5 -10.5t-41.5 -29t-28.5 -43t-10.5 -52.5t10.5 -52.5t28.5 -43t41.5 -29t49.5 -10.5t49.5 10.5t41.5 29t28.5 43t10.5 52.5zM690 315q0 -68 -25.5 -127t-70 -103t-105 -69.5t-129.5 -25.5t-129.5 25.5
t-105 69.5t-70 103t-25.5 127q0 67 25.5 126.5t70 103.5t105 69.5t129.5 25.5t129.5 -25.5t105 -69.5t70 -103.5t25.5 -126.5zM200 700q0 75 26 107.5t64 32.5q19 0 32.5 -4.5t24.5 -10.5t20 -10.5t18 -4.5q25 0 25 25l110 -10q0 -75 -26 -107.5t-64 -32.5q-19 0 -32.5 4.5
t-24.5 10.5t-20 10.5t-18 4.5q-25 0 -25 -25z" />
    <glyph glyph-name="Odieresis" unicode="&#xd6;" horiz-adv-x="720" 
d="M30 0zM490 315q0 28 -10.5 52.5t-28.5 43t-41.5 29t-49.5 10.5t-49.5 -10.5t-41.5 -29t-28.5 -43t-10.5 -52.5t10.5 -52.5t28.5 -43t41.5 -29t49.5 -10.5t49.5 10.5t41.5 29t28.5 43t10.5 52.5zM690 315q0 -68 -25.5 -127t-70 -103t-105 -69.5t-129.5 -25.5t-129.5 25.5
t-105 69.5t-70 103t-25.5 127q0 67 25.5 126.5t70 103.5t105 69.5t129.5 25.5t129.5 -25.5t105 -69.5t70 -103.5t25.5 -126.5zM545 765q0 -17 -7 -32.5t-18.5 -27t-27 -18.5t-32.5 -7t-32.5 7t-27 18.5t-18.5 27t-7 32.5t7 32.5t18.5 27t27 18.5t32.5 7t32.5 -7t27 -18.5
t18.5 -27t7 -32.5zM345 765q0 -17 -7 -32.5t-18.5 -27t-27 -18.5t-32.5 -7t-32.5 7t-27 18.5t-18.5 27t-7 32.5t7 32.5t18.5 27t27 18.5t32.5 7t32.5 -7t27 -18.5t18.5 -27t7 -32.5z" />
    <glyph glyph-name="multiply" unicode="&#xd7;" horiz-adv-x="480" 
d="M350 255l95 -95l-110 -110l-95 95l-95 -95l-110 110l95 95l-95 95l110 110l95 -95l95 95l110 -110z" />
    <glyph glyph-name="Oslash" unicode="&#xd8;" horiz-adv-x="730" 
d="M70 170q-10 16 -18 37q-7 18 -12 45t-5 63q0 67 25.5 126.5t70 103.5t105 69.5t129.5 25.5q38 0 67 -6t50 -14q24 -9 43 -20l40 40l140 -140l-45 -40q9 -16 17 -37q7 -18 12.5 -45.5t5.5 -62.5q0 -68 -25.5 -127t-70 -103t-105 -69.5t-129.5 -25.5q-38 0 -68 6t-50 14
q-25 9 -42 20l-40 -40l-140 140zM335 170q83 0 126.5 43.5t43.5 126.5zM395 460q-83 0 -126.5 -43.5t-43.5 -126.5z" />
    <glyph glyph-name="Ugrave" unicode="&#xd9;" horiz-adv-x="670" 
d="M45 0zM245 630v-360q0 -42 24 -66t66 -24t66 24t24 66v360h200v-360q0 -64 -20 -115.5t-57.5 -88t-91.5 -56.5t-121 -20q-68 0 -121.5 20t-91 56.5t-57.5 88t-20 115.5v360h200zM415 695h-155l-100 140h190z" />
    <glyph glyph-name="Uacute" unicode="&#xda;" horiz-adv-x="670" 
d="M45 0zM245 630v-360q0 -42 24 -66t66 -24t66 24t24 66v360h200v-360q0 -64 -20 -115.5t-57.5 -88t-91.5 -56.5t-121 -20q-68 0 -121.5 20t-91 56.5t-57.5 88t-20 115.5v360h200zM320 835h190l-100 -140h-155z" />
    <glyph glyph-name="Ucircumflex" unicode="&#xdb;" horiz-adv-x="670" 
d="M45 0zM245 630v-360q0 -42 24 -66t66 -24t66 24t24 66v360h200v-360q0 -64 -20 -115.5t-57.5 -88t-91.5 -56.5t-121 -20q-68 0 -121.5 20t-91 56.5t-57.5 88t-20 115.5v360h200zM335 745l-40 -55h-150l105 145h170l105 -145h-150z" />
    <glyph glyph-name="Udieresis" unicode="&#xdc;" horiz-adv-x="670" 
d="M45 0zM245 630v-360q0 -42 24 -66t66 -24t66 24t24 66v360h200v-360q0 -64 -20 -115.5t-57.5 -88t-91.5 -56.5t-121 -20q-68 0 -121.5 20t-91 56.5t-57.5 88t-20 115.5v360h200zM520 765q0 -17 -7 -32.5t-18.5 -27t-27 -18.5t-32.5 -7t-32.5 7t-27 18.5t-18.5 27t-7 32.5
t7 32.5t18.5 27t27 18.5t32.5 7t32.5 -7t27 -18.5t18.5 -27t7 -32.5zM320 765q0 -17 -7 -32.5t-18.5 -27t-27 -18.5t-32.5 -7t-32.5 7t-27 18.5t-18.5 27t-7 32.5t7 32.5t18.5 27t27 18.5t32.5 7t32.5 -7t27 -18.5t18.5 -27t7 -32.5z" />
    <glyph glyph-name="Yacute" unicode="&#xdd;" horiz-adv-x="620" 
d="M0 0zM210 220l-220 410h220l100 -205l100 205h220l-220 -410v-220h-200v220zM295 835h190l-100 -140h-155z" />
    <glyph glyph-name="Thorn" unicode="&#xde;" horiz-adv-x="650" 
d="M50 630h200v-80h135q56 0 101.5 -17t77.5 -47t49 -71t17 -90t-17 -90t-49 -71t-77.5 -47t-101.5 -17h-135v-100h-200v630zM365 280q26 0 40.5 13t14.5 32t-14.5 32t-40.5 13h-115v-90h115z" />
    <glyph glyph-name="germandbls" unicode="&#xdf;" horiz-adv-x="555" 
d="M430 340q29 -13 52 -35q20 -19 36.5 -49.5t16.5 -75.5q0 -38 -14.5 -70.5t-41 -57t-64.5 -38.5t-85 -14h-70v160h50q23 0 34 12.5t11 27.5t-11 27.5t-34 12.5h-50v155q26 0 38 12.5t12 27.5t-11 27.5t-34 12.5t-34 -13t-11 -32v-430h-180v430q0 45 16.5 83.5t47 66.5
t74 44t97.5 16q49 0 88.5 -15t67.5 -40t43.5 -59t15.5 -71q0 -29 -9.5 -50.5t-20.5 -35.5q-13 -17 -30 -29z" />
    <glyph glyph-name="agrave" unicode="&#xe0;" horiz-adv-x="495" 
d="M15 0zM255 470q47 0 85 -14t64.5 -39.5t41 -60.5t14.5 -76v-280h-130l-25 45q-16 -16 -36 -28q-17 -11 -42 -19t-57 -8q-75 0 -115 36.5t-40 93.5q0 34 14 63t45.5 50.5t82 34t123.5 12.5q0 19 -10 29.5t-25 10.5q-10 0 -16 -4t-11 -9t-8 -12l-175 20q7 43 33 77
q11 15 27 29t38.5 25t52.5 17.5t69 6.5zM230 120q19 0 34.5 17.5t15.5 47.5v10q-49 0 -67 -13t-18 -32q0 -11 10 -20.5t25 -9.5zM335 514h-155l-100 140h190z" />
    <glyph glyph-name="aacute" unicode="&#xe1;" horiz-adv-x="495" 
d="M15 0zM255 470q47 0 85 -14t64.5 -39.5t41 -60.5t14.5 -76v-280h-130l-25 45q-16 -16 -36 -28q-17 -11 -42 -19t-57 -8q-75 0 -115 36.5t-40 93.5q0 34 14 63t45.5 50.5t82 34t123.5 12.5q0 19 -10 29.5t-25 10.5q-10 0 -16 -4t-11 -9t-8 -12l-175 20q7 43 33 77
q11 15 27 29t38.5 25t52.5 17.5t69 6.5zM230 120q19 0 34.5 17.5t15.5 47.5v10q-49 0 -67 -13t-18 -32q0 -11 10 -20.5t25 -9.5zM230 654h190l-100 -140h-155z" />
    <glyph glyph-name="acircumflex" unicode="&#xe2;" horiz-adv-x="495" 
d="M15 0zM255 470q47 0 85 -14t64.5 -39.5t41 -60.5t14.5 -76v-280h-130l-25 45q-16 -16 -36 -28q-17 -11 -42 -19t-57 -8q-75 0 -115 36.5t-40 93.5q0 34 14 63t45.5 50.5t82 34t123.5 12.5q0 19 -10 29.5t-25 10.5q-10 0 -16 -4t-11 -9t-8 -12l-175 20q7 43 33 77
q11 15 27 29t38.5 25t52.5 17.5t69 6.5zM230 120q19 0 34.5 17.5t15.5 47.5v10q-49 0 -67 -13t-18 -32q0 -11 10 -20.5t25 -9.5zM255 565l-40 -55h-150l105 145h170l105 -145h-150z" />
    <glyph glyph-name="atilde" unicode="&#xe3;" horiz-adv-x="495" 
d="M15 0zM255 470q47 0 85 -14t64.5 -39.5t41 -60.5t14.5 -76v-280h-130l-25 45q-16 -16 -36 -28q-17 -11 -42 -19t-57 -8q-75 0 -115 36.5t-40 93.5q0 34 14 63t45.5 50.5t82 34t123.5 12.5q0 19 -10 29.5t-25 10.5q-10 0 -16 -4t-11 -9t-8 -12l-175 20q7 43 33 77
q11 15 27 29t38.5 25t52.5 17.5t69 6.5zM230 120q19 0 34.5 17.5t15.5 47.5v10q-49 0 -67 -13t-18 -32q0 -11 10 -20.5t25 -9.5zM97 515q0 75 26 107.5t64 32.5q19 0 32.5 -4.5t24.5 -10.5t20 -10.5t18 -4.5q25 0 25 25l110 -10q0 -75 -26 -107.5t-64 -32.5q-19 0 -32.5 4.5
t-24.5 10.5t-20 10.5t-18 4.5q-25 0 -25 -25z" />
    <glyph glyph-name="adieresis" unicode="&#xe4;" horiz-adv-x="495" 
d="M15 0zM255 470q47 0 85 -14t64.5 -39.5t41 -60.5t14.5 -76v-280h-130l-25 45q-16 -16 -36 -28q-17 -11 -42 -19t-57 -8q-75 0 -115 36.5t-40 93.5q0 34 14 63t45.5 50.5t82 34t123.5 12.5q0 19 -10 29.5t-25 10.5q-10 0 -16 -4t-11 -9t-8 -12l-175 20q7 43 33 77
q11 15 27 29t38.5 25t52.5 17.5t69 6.5zM230 120q19 0 34.5 17.5t15.5 47.5v10q-49 0 -67 -13t-18 -32q0 -11 10 -20.5t25 -9.5zM445 585q0 -17 -7 -32.5t-18.5 -27t-27 -18.5t-32.5 -7t-32.5 7t-27 18.5t-18.5 27t-7 32.5t7 32.5t18.5 27t27 18.5t32.5 7t32.5 -7t27 -18.5
t18.5 -27t7 -32.5zM245 585q0 -17 -7 -32.5t-18.5 -27t-27 -18.5t-32.5 -7t-32.5 7t-27 18.5t-18.5 27t-7 32.5t7 32.5t18.5 27t27 18.5t32.5 7t32.5 -7t27 -18.5t18.5 -27t7 -32.5z" />
    <glyph glyph-name="aring" unicode="&#xe5;" horiz-adv-x="495" 
d="M15 0zM255 470q47 0 85 -14t64.5 -39.5t41 -60.5t14.5 -76v-280h-130l-25 45q-16 -16 -36 -28q-17 -11 -42 -19t-57 -8q-75 0 -115 36.5t-40 93.5q0 34 14 63t45.5 50.5t82 34t123.5 12.5q0 19 -10 29.5t-25 10.5q-10 0 -16 -4t-11 -9t-8 -12l-175 20q7 43 33 77
q11 15 27 29t38.5 25t52.5 17.5t69 6.5zM230 120q19 0 34.5 17.5t15.5 47.5v10q-49 0 -67 -13t-18 -32q0 -11 10 -20.5t25 -9.5zM372 600q0 -45 -31 -75t-84 -30t-84 30t-31 75t31 75t84 30t84 -30t31 -75zM292 600q0 15 -10 25t-25 10t-25 -10t-10 -25t10 -25t25 -10t25 10
t10 25z" />
    <glyph glyph-name="ae" unicode="&#xe6;" horiz-adv-x="775" 
d="M245 470q34 0 59 -8t42 -17q19 -11 34 -25q15 14 35 25q17 9 41 17t54 8q51 0 94.5 -18.5t76 -50t51 -73t18.5 -88.5q0 -10 -1 -18.5t-2 -15.5l-2 -16h-300q4 -23 21.5 -39t43.5 -16q15 0 25 4.5t17 10.5q8 6 13 15l175 -20q-9 -28 -28 -56t-47.5 -50t-67 -35.5
t-87.5 -13.5q-34 0 -60 9.5t-44 20.5q-21 13 -36 30q-18 -17 -44 -30q-22 -11 -53 -20.5t-73 -9.5q-47 0 -81.5 10.5t-57.5 28.5t-34.5 41.5t-11.5 49.5q0 34 14 63t45.5 50.5t82 34t123.5 12.5q0 19 -10 29.5t-25 10.5q-10 0 -16 -4t-11 -9t-8 -12l-175 20q7 43 32 77
q10 15 25.5 29t37 25t50 17.5t65.5 6.5zM510 330q-23 0 -39.5 -16t-20.5 -39h120q-4 23 -20.5 39t-39.5 16zM230 120q19 0 34.5 17.5t15.5 47.5v10q-49 0 -67 -13t-18 -32q0 -11 10 -20.5t25 -9.5z" />
    <glyph glyph-name="ccedilla" unicode="&#xe7;" horiz-adv-x="535" 
d="M275 470q39 0 70.5 -8t55.5 -21.5t42 -30.5t31 -35q30 -42 41 -95l-175 -20q-5 12 -14 22q-8 8 -20 15.5t-31 7.5q-30 0 -50 -20.5t-20 -54.5q0 -35 20 -55t50 -20q19 0 31 7t20 15q9 10 14 23l175 -20q-11 -49 -38 -89q-12 -17 -28 -34t-37.5 -31t-49.5 -23.5t-62 -12.5
l-10 -30q29 -4 52 -15q20 -10 36.5 -27.5t16.5 -47.5q0 -41 -34.5 -70.5t-105.5 -29.5q-34 0 -57 5q-12 3 -23 6v59q5 -2 12 -3q5 -1 12.5 -1.5t15.5 -0.5q30 0 42.5 10.5t12.5 29.5q0 15 -12.5 25t-42.5 10h-10l35 85q-43 4 -82 23.5t-68.5 51t-47 72.5t-17.5 88
q0 49 19.5 92.5t53 76.5t79 52t98.5 19z" />
    <glyph glyph-name="egrave" unicode="&#xe8;" 
d="M25 0zM505 145q-9 -28 -28 -56t-47.5 -50t-67 -35.5t-87.5 -13.5q-53 0 -98.5 19t-79 52t-53 76.5t-19.5 92.5t19.5 92.5t53 76.5t79 52t98.5 19q51 0 94.5 -18.5t76 -50t51 -73t18.5 -88.5q0 -11 -1 -21t-2 -18q-1 -9 -2 -16h-300q4 -19 21.5 -34.5t43.5 -15.5
q15 0 25 4.5t17 10.5q8 6 13 15zM275 330q-23 0 -39.5 -16t-20.5 -39h120q-4 23 -20.5 39t-39.5 16zM355 514h-155l-100 140h190z" />
    <glyph glyph-name="eacute" unicode="&#xe9;" 
d="M25 0zM505 145q-9 -28 -28 -56t-47.5 -50t-67 -35.5t-87.5 -13.5q-53 0 -98.5 19t-79 52t-53 76.5t-19.5 92.5t19.5 92.5t53 76.5t79 52t98.5 19q51 0 94.5 -18.5t76 -50t51 -73t18.5 -88.5q0 -11 -1 -21t-2 -18q-1 -9 -2 -16h-300q4 -19 21.5 -34.5t43.5 -15.5
q15 0 25 4.5t17 10.5q8 6 13 15zM275 330q-23 0 -39.5 -16t-20.5 -39h120q-4 23 -20.5 39t-39.5 16zM255 654h190l-100 -140h-155z" />
    <glyph glyph-name="ecircumflex" unicode="&#xea;" 
d="M25 0zM505 145q-9 -28 -28 -56t-47.5 -50t-67 -35.5t-87.5 -13.5q-53 0 -98.5 19t-79 52t-53 76.5t-19.5 92.5t19.5 92.5t53 76.5t79 52t98.5 19q51 0 94.5 -18.5t76 -50t51 -73t18.5 -88.5q0 -11 -1 -21t-2 -18q-1 -9 -2 -16h-300q4 -19 21.5 -34.5t43.5 -15.5
q15 0 25 4.5t17 10.5q8 6 13 15zM275 330q-23 0 -39.5 -16t-20.5 -39h120q-4 23 -20.5 39t-39.5 16zM270 565l-40 -55h-150l105 145h170l105 -145h-150z" />
    <glyph glyph-name="edieresis" unicode="&#xeb;" 
d="M25 0zM505 145q-9 -28 -28 -56t-47.5 -50t-67 -35.5t-87.5 -13.5q-53 0 -98.5 19t-79 52t-53 76.5t-19.5 92.5t19.5 92.5t53 76.5t79 52t98.5 19q51 0 94.5 -18.5t76 -50t51 -73t18.5 -88.5q0 -11 -1 -21t-2 -18q-1 -9 -2 -16h-300q4 -19 21.5 -34.5t43.5 -15.5
q15 0 25 4.5t17 10.5q8 6 13 15zM275 330q-23 0 -39.5 -16t-20.5 -39h120q-4 23 -20.5 39t-39.5 16zM455 585q0 -17 -7 -32.5t-18.5 -27t-27 -18.5t-32.5 -7t-32.5 7t-27 18.5t-18.5 27t-7 32.5t7 32.5t18.5 27t27 18.5t32.5 7t32.5 -7t27 -18.5t18.5 -27t7 -32.5zM255 585
q0 -17 -7 -32.5t-18.5 -27t-27 -18.5t-32.5 -7t-32.5 7t-27 18.5t-18.5 27t-7 32.5t7 32.5t18.5 27t27 18.5t32.5 7t32.5 -7t27 -18.5t18.5 -27t7 -32.5z" />
    <glyph glyph-name="igrave" unicode="&#xec;" horiz-adv-x="260" 
d="M0 0zM220 0h-180v460h180v-460zM205 510h-155l-100 140h190z" />
    <glyph glyph-name="iacute" unicode="&#xed;" horiz-adv-x="260" 
d="M40 0zM220 0h-180v460h180v-460zM120 650h190l-100 -140h-155z" />
    <glyph glyph-name="icircumflex" unicode="&#xee;" horiz-adv-x="270" 
d="M0 0zM225 0h-180v460h180v-460zM135 565l-40 -55h-150l105 145h170l105 -145h-150z" />
    <glyph glyph-name="idieresis" unicode="&#xef;" horiz-adv-x="270" 
d="M0 0zM225 0h-180v460h180v-460zM320 585q0 -17 -7 -32.5t-18.5 -27t-27 -18.5t-32.5 -7t-32.5 7t-27 18.5t-18.5 27t-7 32.5t7 32.5t18.5 27t27 18.5t32.5 7t32.5 -7t27 -18.5t18.5 -27t7 -32.5zM120 585q0 -17 -7 -32.5t-18.5 -27t-27 -18.5t-32.5 -7t-32.5 7t-27 18.5
t-18.5 27t-7 32.5t7 32.5t18.5 27t27 18.5t32.5 7t32.5 -7t27 -18.5t18.5 -27t7 -32.5z" />
    <glyph glyph-name="eth" unicode="&#xf0;" horiz-adv-x="575" 
d="M180 545l15 10q-8 2 -18 5q-8 2 -18.5 3.5t-20.5 2.5l47 129q30 -4 54 -11t41 -15q19 -9 35 -19l80 55l60 -85l-50 -35q37 -35 67 -80q26 -38 47 -92.5t21 -122.5q0 -73 -20 -129t-55.5 -94t-83 -57.5t-101.5 -19.5q-56 0 -103 18.5t-81 50t-52.5 73t-18.5 88.5
q0 49 17.5 91t48 73t71.5 48.5t88 17.5q26 0 46.5 -5t34.5 -10q17 -7 29 -15q-8 20 -18.5 35.5t-19.5 25.5q-11 11 -22 19l-60 -40zM280 155q34 0 54.5 19.5t20.5 45.5t-20.5 45.5t-54.5 19.5t-54.5 -19.5t-20.5 -45.5t20.5 -45.5t54.5 -19.5z" />
    <glyph glyph-name="ntilde" unicode="&#xf1;" horiz-adv-x="550" 
d="M40 0zM330 470q41 0 75 -13.5t58.5 -39.5t38 -63t13.5 -84v-270h-180v230q0 30 -16 47.5t-39 17.5q-26 0 -43 -17.5t-17 -47.5v-230h-180v460h130l25 -45q16 15 36 27q17 11 42 19.5t57 8.5zM120 525q0 75 26 107.5t64 32.5q19 0 32.5 -4.5t24.5 -10.5t20 -10.5t18 -4.5
q25 0 25 25l110 -10q0 -75 -26 -107.5t-64 -32.5q-19 0 -32.5 4.5t-24.5 10.5t-20 10.5t-18 4.5q-25 0 -25 -25z" />
    <glyph glyph-name="ograve" unicode="&#xf2;" horiz-adv-x="550" 
d="M25 0zM25 230q0 49 19.5 92.5t53 76.5t79 52t98.5 19q52 0 98 -19t79.5 -52t53 -76.5t19.5 -92.5t-19.5 -92.5t-53 -76.5t-79.5 -52t-98 -19q-53 0 -98.5 19t-79 52t-53 76.5t-19.5 92.5zM345 230q0 34 -20 54.5t-50 20.5t-50 -20.5t-20 -54.5t20 -54.5t50 -20.5t50 20.5
t20 54.5zM355 510h-155l-100 140h190z" />
    <glyph glyph-name="oacute" unicode="&#xf3;" horiz-adv-x="550" 
d="M25 0zM25 230q0 49 19.5 92.5t53 76.5t79 52t98.5 19q52 0 98 -19t79.5 -52t53 -76.5t19.5 -92.5t-19.5 -92.5t-53 -76.5t-79.5 -52t-98 -19q-53 0 -98.5 19t-79 52t-53 76.5t-19.5 92.5zM345 230q0 34 -20 54.5t-50 20.5t-50 -20.5t-20 -54.5t20 -54.5t50 -20.5t50 20.5
t20 54.5zM260 650h190l-100 -140h-155z" />
    <glyph glyph-name="ocircumflex" unicode="&#xf4;" horiz-adv-x="550" 
d="M25 0zM25 230q0 49 19.5 92.5t53 76.5t79 52t98.5 19q52 0 98 -19t79.5 -52t53 -76.5t19.5 -92.5t-19.5 -92.5t-53 -76.5t-79.5 -52t-98 -19q-53 0 -98.5 19t-79 52t-53 76.5t-19.5 92.5zM345 230q0 34 -20 54.5t-50 20.5t-50 -20.5t-20 -54.5t20 -54.5t50 -20.5t50 20.5
t20 54.5zM275 565l-40 -55h-150l105 145h170l105 -145h-150z" />
    <glyph glyph-name="otilde" unicode="&#xf5;" horiz-adv-x="550" 
d="M25 0zM25 230q0 49 19.5 92.5t53 76.5t79 52t98.5 19q52 0 98 -19t79.5 -52t53 -76.5t19.5 -92.5t-19.5 -92.5t-53 -76.5t-79.5 -52t-98 -19q-53 0 -98.5 19t-79 52t-53 76.5t-19.5 92.5zM345 230q0 34 -20 54.5t-50 20.5t-50 -20.5t-20 -54.5t20 -54.5t50 -20.5t50 20.5
t20 54.5zM115 520q0 75 26 107.5t64 32.5q19 0 32.5 -4.5t24.5 -10.5t20 -10.5t18 -4.5q25 0 25 25l110 -10q0 -75 -26 -107.5t-64 -32.5q-19 0 -32.5 4.5t-24.5 10.5t-20 10.5t-18 4.5q-25 0 -25 -25z" />
    <glyph glyph-name="odieresis" unicode="&#xf6;" horiz-adv-x="550" 
d="M25 0zM25 230q0 49 19.5 92.5t53 76.5t79 52t98.5 19q52 0 98 -19t79.5 -52t53 -76.5t19.5 -92.5t-19.5 -92.5t-53 -76.5t-79.5 -52t-98 -19q-53 0 -98.5 19t-79 52t-53 76.5t-19.5 92.5zM345 230q0 34 -20 54.5t-50 20.5t-50 -20.5t-20 -54.5t20 -54.5t50 -20.5t50 20.5
t20 54.5zM460 585q0 -17 -7 -32.5t-18.5 -27t-27 -18.5t-32.5 -7t-32.5 7t-27 18.5t-18.5 27t-7 32.5t7 32.5t18.5 27t27 18.5t32.5 7t32.5 -7t27 -18.5t18.5 -27t7 -32.5zM260 585q0 -17 -7 -32.5t-18.5 -27t-27 -18.5t-32.5 -7t-32.5 7t-27 18.5t-18.5 27t-7 32.5t7 32.5
t18.5 27t27 18.5t32.5 7t32.5 -7t27 -18.5t18.5 -27t7 -32.5z" />
    <glyph glyph-name="divide" unicode="&#xf7;" horiz-adv-x="480" 
d="M240 0q-38 0 -61.5 23t-23.5 57t23.5 57t61.5 23t61.5 -23t23.5 -57t-23.5 -57t-61.5 -23zM240 510q38 0 61.5 -23t23.5 -57t-23.5 -57t-61.5 -23t-61.5 23t-23.5 57t23.5 57t61.5 23zM35 320h410v-130h-410v130z" />
    <glyph glyph-name="oslash" unicode="&#xf8;" horiz-adv-x="560" 
d="M255 130q120 0 120 115zM280 -10q-29 0 -51.5 5t-39.5 12q-19 8 -34 18l-40 -35l-90 95l35 35q-9 14 -15 32q-6 15 -10.5 35t-4.5 43q0 49 19.5 92.5t53 76.5t79 52t98.5 19q28 0 51 -5.5t40 -12.5q19 -8 34 -17l40 35l90 -95l-35 -35q8 -15 15 -33q5 -15 10 -34.5
t5 -42.5q0 -49 -19.5 -92.5t-53 -76.5t-79.5 -52t-98 -19zM305 330q-120 0 -120 -115z" />
    <glyph glyph-name="ugrave" unicode="&#xf9;" horiz-adv-x="555" 
d="M40 0zM225 -10q-41 0 -75 13.5t-58.5 39.5t-38 63t-13.5 84v270h180v-230q0 -30 16 -47.5t39 -17.5q26 0 43 17.5t17 47.5v230h180v-460h-130l-25 45q-16 -16 -36 -28q-17 -11 -42 -19t-57 -8zM360 514h-155l-100 140h190z" />
    <glyph glyph-name="uacute" unicode="&#xfa;" horiz-adv-x="555" 
d="M40 0zM225 -10q-41 0 -75 13.5t-58.5 39.5t-38 63t-13.5 84v270h180v-230q0 -30 16 -47.5t39 -17.5q26 0 43 17.5t17 47.5v230h180v-460h-130l-25 45q-16 -16 -36 -28q-17 -11 -42 -19t-57 -8zM260 655h190l-100 -140h-155z" />
    <glyph glyph-name="ucircumflex" unicode="&#xfb;" horiz-adv-x="555" 
d="M40 0zM225 -10q-41 0 -75 13.5t-58.5 39.5t-38 63t-13.5 84v270h180v-230q0 -30 16 -47.5t39 -17.5q26 0 43 17.5t17 47.5v230h180v-460h-130l-25 45q-16 -16 -36 -28q-17 -11 -42 -19t-57 -8zM280 565l-40 -55h-150l105 145h170l105 -145h-150z" />
    <glyph glyph-name="udieresis" unicode="&#xfc;" horiz-adv-x="555" 
d="M40 0zM225 -10q-41 0 -75 13.5t-58.5 39.5t-38 63t-13.5 84v270h180v-230q0 -30 16 -47.5t39 -17.5q26 0 43 17.5t17 47.5v230h180v-460h-130l-25 45q-16 -16 -36 -28q-17 -11 -42 -19t-57 -8zM465 585q0 -17 -7 -32.5t-18.5 -27t-27 -18.5t-32.5 -7t-32.5 7t-27 18.5
t-18.5 27t-7 32.5t7 32.5t18.5 27t27 18.5t32.5 7t32.5 -7t27 -18.5t18.5 -27t7 -32.5zM265 585q0 -17 -7 -32.5t-18.5 -27t-27 -18.5t-32.5 -7t-32.5 7t-27 18.5t-18.5 27t-7 32.5t7 32.5t18.5 27t27 18.5t32.5 7t32.5 -7t27 -18.5t18.5 -27t7 -32.5z" />
    <glyph glyph-name="yacute" unicode="&#xfd;" horiz-adv-x="520" 
d="M0 0zM-5 460h190l75 -240l75 240h190l-180 -460q-32 -83 -79 -126.5t-126 -43.5q-30 0 -50 5q-11 2 -20 5v160h40q15 0 25 3.5t17 8.5q8 5 13 13zM250 654h190l-100 -140h-155z" />
    <glyph glyph-name="thorn" unicode="&#xfe;" horiz-adv-x="565" 
d="M335 470q39 0 76 -18t65.5 -49.5t46 -76t17.5 -96.5q0 -53 -17.5 -97t-46 -75.5t-65.5 -49.5t-76 -18q-30 0 -52 6t-36 14q-17 9 -27 20v-190h-180v790h180v-200q10 11 27 20q14 8 36 14t52 6zM220 230q0 -34 20 -54.5t50 -20.5t50 20.5t20 54.5t-20 54.5t-50 20.5
t-50 -20.5t-20 -54.5z" />
    <glyph glyph-name="ydieresis" unicode="&#xff;" horiz-adv-x="520" 
d="M0 0zM-5 460h190l75 -240l75 240h190l-180 -460q-32 -83 -79 -126.5t-126 -43.5q-30 0 -50 5q-11 2 -20 5v160h40q15 0 25 3.5t17 8.5q8 5 13 13zM445 585q0 -17 -7 -32.5t-18.5 -27t-27 -18.5t-32.5 -7t-32.5 7t-27 18.5t-18.5 27t-7 32.5t7 32.5t18.5 27t27 18.5
t32.5 7t32.5 -7t27 -18.5t18.5 -27t7 -32.5zM245 585q0 -17 -7 -32.5t-18.5 -27t-27 -18.5t-32.5 -7t-32.5 7t-27 18.5t-18.5 27t-7 32.5t7 32.5t18.5 27t27 18.5t32.5 7t32.5 -7t27 -18.5t18.5 -27t7 -32.5z" />
    <glyph glyph-name="Amacron" unicode="&#x100;" horiz-adv-x="640" 
d="M0 0zM320 420l-40 -150h80zM235 110l-30 -110h-215l210 630h240l210 -630h-215l-30 110h-170zM465 700h-290v135h290v-135z" />
    <glyph glyph-name="amacron" unicode="&#x101;" horiz-adv-x="495" 
d="M15 0zM255 470q47 0 85 -14t64.5 -39.5t41 -60.5t14.5 -76v-280h-130l-25 45q-16 -16 -36 -28q-17 -11 -42 -19t-57 -8q-75 0 -115 36.5t-40 93.5q0 34 14 63t45.5 50.5t82 34t123.5 12.5q0 19 -10 29.5t-25 10.5q-10 0 -16 -4t-11 -9t-8 -12l-175 20q7 43 33 77
q11 15 27 29t38.5 25t52.5 17.5t69 6.5zM230 120q19 0 34.5 17.5t15.5 47.5v10q-49 0 -67 -13t-18 -32q0 -11 10 -20.5t25 -9.5zM395 520h-290v135h290v-135z" />
    <glyph glyph-name="Abreve" unicode="&#x102;" horiz-adv-x="640" 
d="M0 0zM320 420l-40 -150h80zM235 110l-30 -110h-215l210 630h240l210 -630h-215l-30 110h-170zM320 680q-72 0 -114 40.5t-46 104.5h120q2 -11 7 -20q5 -8 12 -14t21 -6q13 0 20.5 6t12.5 14q5 9 7 20h120q-4 -64 -46 -104.5t-114 -40.5z" />
    <glyph glyph-name="abreve" unicode="&#x103;" horiz-adv-x="495" 
d="M15 0zM255 470q47 0 85 -14t64.5 -39.5t41 -60.5t14.5 -76v-280h-130l-25 45q-16 -16 -36 -28q-17 -11 -42 -19t-57 -8q-75 0 -115 36.5t-40 93.5q0 34 14 63t45.5 50.5t82 34t123.5 12.5q0 19 -10 29.5t-25 10.5q-10 0 -16 -4t-11 -9t-8 -12l-175 20q7 43 33 77
q11 15 27 29t38.5 25t52.5 17.5t69 6.5zM230 120q19 0 34.5 17.5t15.5 47.5v10q-49 0 -67 -13t-18 -32q0 -11 10 -20.5t25 -9.5zM260 505q-72 0 -114 40.5t-46 104.5h120q2 -11 7 -20q5 -8 12 -14t21 -6q13 0 20.5 6t12.5 14q5 9 7 20h120q-4 -64 -46 -104.5t-114 -40.5z
" />
    <glyph glyph-name="Aogonek" unicode="&#x104;" horiz-adv-x="640" 
d="M405 110h-170l-30 -110h-215l210 630h240l210 -630h-125q-9 -9 -15 -20q-6 -10 -10.5 -22.5t-4.5 -27.5q0 -19 13 -32t32 -13q9 0 16.5 0.5t12.5 1.5q6 1 11 3v-79q-11 -4 -23 -8q-11 -3 -25.5 -5.5t-31.5 -2.5q-57 0 -86 26.5t-29 68.5q0 24 7.5 44.5t17.5 34.5
q11 17 25 31zM320 420l-40 -150h80z" />
    <glyph glyph-name="aogonek" unicode="&#x105;" horiz-adv-x="495" 
d="M305 45q-16 -16 -36 -28q-17 -11 -42 -19t-57 -8q-75 0 -115 36.5t-40 93.5q0 34 14 63t45.5 50.5t82 34t123.5 12.5q0 19 -10 29.5t-25 10.5q-10 0 -16 -4t-11 -9t-8 -12l-175 20q7 43 33 77q11 15 27 29t38.5 25t52.5 17.5t69 6.5q47 0 85 -14t64.5 -39.5t41 -60.5
t14.5 -76v-280h-40q-9 -9 -15 -20q-6 -10 -10.5 -22.5t-4.5 -27.5q0 -19 13 -32t32 -13q9 0 16.5 0.5t12.5 1.5q6 1 11 3v-79q-11 -4 -23 -8q-11 -3 -25.5 -5.5t-31.5 -2.5q-57 0 -86 26.5t-29 68.5q0 24 7.5 44.5t17.5 34.5q11 17 25 31zM230 120q19 0 34.5 17.5t15.5 47.5
v10q-49 0 -67 -13t-18 -32q0 -11 10 -20.5t25 -9.5z" />
    <glyph glyph-name="Cacute" unicode="&#x106;" horiz-adv-x="690" 
d="M30 0zM360 180q30 0 50.5 10.5t34.5 24.5q15 15 25 35l200 -20q-15 -67 -54 -120q-17 -23 -40 -44.5t-54 -38t-71 -27t-91 -10.5q-69 0 -129.5 25.5t-105 69.5t-70 103t-25.5 127q0 67 25.5 126.5t70 103.5t105 69.5t129.5 25.5q51 0 91 -10.5t71 -27t54 -38.5t40 -44
q39 -53 54 -120l-200 -20q-10 19 -25 35q-14 13 -34.5 24t-50.5 11q-26 0 -49.5 -10.5t-41.5 -29t-28.5 -43t-10.5 -52.5t10.5 -52.5t28.5 -43t41.5 -29t49.5 -10.5zM335 835h190l-100 -140h-155z" />
    <glyph glyph-name="cacute" unicode="&#x107;" horiz-adv-x="535" 
d="M25 0zM275 470q39 0 70.5 -8t55.5 -21.5t42 -30.5t31 -35q30 -42 41 -95l-175 -20q-5 12 -14 22q-8 8 -20 15.5t-31 7.5q-30 0 -50 -20.5t-20 -54.5q0 -35 20 -55t50 -20q19 0 31 7t20 15q9 10 14 23l175 -20q-11 -54 -41 -95q-13 -18 -31 -35t-42 -30.5t-55.5 -21.5
t-70.5 -8q-53 0 -98.5 19t-79 52t-53 76.5t-19.5 92.5t19.5 92.5t53 76.5t79 52t98.5 19zM255 654h190l-100 -140h-155z" />
    <glyph glyph-name="Ccircumflex" unicode="&#x108;" horiz-adv-x="690" 
d="M30 0zM360 180q30 0 50.5 10.5t34.5 24.5q15 15 25 35l200 -20q-15 -67 -54 -120q-17 -23 -40 -44.5t-54 -38t-71 -27t-91 -10.5q-69 0 -129.5 25.5t-105 69.5t-70 103t-25.5 127q0 67 25.5 126.5t70 103.5t105 69.5t129.5 25.5q51 0 91 -10.5t71 -27t54 -38.5t40 -44
q39 -53 54 -120l-200 -20q-10 19 -25 35q-14 13 -34.5 24t-50.5 11q-26 0 -49.5 -10.5t-41.5 -29t-28.5 -43t-10.5 -52.5t10.5 -52.5t28.5 -43t41.5 -29t49.5 -10.5zM355 745l-40 -55h-150l105 145h170l105 -145h-150z" />
    <glyph glyph-name="ccircumflex" unicode="&#x109;" horiz-adv-x="535" 
d="M25 0zM275 470q39 0 70.5 -8t55.5 -21.5t42 -30.5t31 -35q30 -42 41 -95l-175 -20q-5 12 -14 22q-8 8 -20 15.5t-31 7.5q-30 0 -50 -20.5t-20 -54.5q0 -35 20 -55t50 -20q19 0 31 7t20 15q9 10 14 23l175 -20q-11 -54 -41 -95q-13 -18 -31 -35t-42 -30.5t-55.5 -21.5
t-70.5 -8q-53 0 -98.5 19t-79 52t-53 76.5t-19.5 92.5t19.5 92.5t53 76.5t79 52t98.5 19zM275 565l-40 -55h-150l105 145h170l105 -145h-150z" />
    <glyph glyph-name="Ccaron" unicode="&#x10c;" horiz-adv-x="690" 
d="M30 0zM360 180q30 0 50.5 10.5t34.5 24.5q15 15 25 35l200 -20q-15 -67 -54 -120q-17 -23 -40 -44.5t-54 -38t-71 -27t-91 -10.5q-69 0 -129.5 25.5t-105 69.5t-70 103t-25.5 127q0 67 25.5 126.5t70 103.5t105 69.5t129.5 25.5q51 0 91 -10.5t71 -27t54 -38.5t40 -44
q39 -53 54 -120l-200 -20q-10 19 -25 35q-14 13 -34.5 24t-50.5 11q-26 0 -49.5 -10.5t-41.5 -29t-28.5 -43t-10.5 -52.5t10.5 -52.5t28.5 -43t41.5 -29t49.5 -10.5zM395 835h150l-105 -145h-170l-105 145h150l40 -55z" />
    <glyph glyph-name="ccaron" unicode="&#x10d;" horiz-adv-x="535" 
d="M25 0zM275 470q39 0 70.5 -8t55.5 -21.5t42 -30.5t31 -35q30 -42 41 -95l-175 -20q-5 12 -14 22q-8 8 -20 15.5t-31 7.5q-30 0 -50 -20.5t-20 -54.5q0 -35 20 -55t50 -20q19 0 31 7t20 15q9 10 14 23l175 -20q-11 -54 -41 -95q-13 -18 -31 -35t-42 -30.5t-55.5 -21.5
t-70.5 -8q-53 0 -98.5 19t-79 52t-53 76.5t-19.5 92.5t19.5 92.5t53 76.5t79 52t98.5 19zM315 655h150l-105 -145h-170l-105 145h150l40 -55z" />
    <glyph glyph-name="Dcaron" unicode="&#x10e;" horiz-adv-x="650" 
d="M50 0zM290 180q26 0 49.5 10.5t41.5 29t28.5 43t10.5 52.5t-10.5 52.5t-28.5 43t-41.5 29t-49.5 10.5h-40v-270h40zM50 630h240q73 0 134 -24t104.5 -66t67.5 -100t24 -125q0 -68 -24 -125.5t-67.5 -99.5t-104.5 -66t-134 -24h-240v630zM360 835h150l-105 -145h-170
l-105 145h150l40 -55z" />
    <glyph glyph-name="dcaron" unicode="&#x10f;" horiz-adv-x="690" 
d="M230 -10q-39 0 -76 18t-65.5 49.5t-46 75.5t-17.5 97q0 52 17.5 96.5t46 76t65.5 49.5t76 18q30 0 51.5 -6t35.5 -14q17 -9 28 -20v200h180v-630h-135l-25 45q-16 -16 -36 -28q-17 -11 -42 -19t-57 -8zM345 230q0 34 -20 54.5t-50 20.5t-50 -20.5t-20 -54.5t20 -54.5
t50 -20.5t50 20.5t20 54.5zM590 630h180l-70 -140h-145z" />
    <glyph glyph-name="Dcroat" unicode="&#x110;" horiz-adv-x="675" 
d="M75 230h-55v160h55v240h240q73 0 134 -24t104.5 -66t67.5 -100t24 -125q0 -68 -24 -125.5t-67.5 -99.5t-104.5 -66t-134 -24h-240v230zM345 230h-70v-50h40q26 0 49.5 10.5t41.5 29t28.5 43t10.5 52.5t-10.5 52.5t-28.5 43t-41.5 29t-49.5 10.5h-40v-60h70v-160z" />
    <glyph glyph-name="dcroat" unicode="&#x111;" horiz-adv-x="590" 
d="M250 585h95v45h180v-45h55v-140h-55v-445h-135l-25 45q-16 -16 -36 -28q-17 -11 -42 -19t-57 -8q-43 0 -80.5 16t-65 45t-43.5 69.5t-16 89.5t16 89.5t43.5 69.5t65 45t80.5 16q26 0 47 -6t36 -13.5t23 -13.5t9 -7v55h-95v140zM345 210q0 26 -20 45.5t-50 19.5t-50 -19.5
t-20 -45.5t20 -45.5t50 -19.5t50 19.5t20 45.5z" />
    <glyph glyph-name="Emacron" unicode="&#x112;" horiz-adv-x="580" 
d="M50 0zM50 630h490v-170h-290v-60h265v-160h-265v-70h300v-170h-500v630zM445 700h-290v135h290v-135z" />
    <glyph glyph-name="emacron" unicode="&#x113;" 
d="M25 0zM505 145q-9 -28 -28 -56t-47.5 -50t-67 -35.5t-87.5 -13.5q-53 0 -98.5 19t-79 52t-53 76.5t-19.5 92.5t19.5 92.5t53 76.5t79 52t98.5 19q51 0 94.5 -18.5t76 -50t51 -73t18.5 -88.5q0 -11 -1 -21t-2 -18q-1 -9 -2 -16h-300q4 -19 21.5 -34.5t43.5 -15.5
q15 0 25 4.5t17 10.5q8 6 13 15zM275 330q-23 0 -39.5 -16t-20.5 -39h120q-4 23 -20.5 39t-39.5 16zM415 520h-290v135h290v-135z" />
    <glyph glyph-name="Edotaccent" unicode="&#x116;" horiz-adv-x="580" 
d="M50 0zM50 630h490v-170h-290v-60h265v-160h-265v-70h300v-170h-500v630zM205 770q0 38 26.5 64t68.5 26t68.5 -26t26.5 -64t-26.5 -64t-68.5 -26t-68.5 26t-26.5 64z" />
    <glyph glyph-name="edotaccent" unicode="&#x117;" 
d="M25 0zM505 145q-9 -28 -28 -56t-47.5 -50t-67 -35.5t-87.5 -13.5q-53 0 -98.5 19t-79 52t-53 76.5t-19.5 92.5t19.5 92.5t53 76.5t79 52t98.5 19q51 0 94.5 -18.5t76 -50t51 -73t18.5 -88.5q0 -11 -1 -21t-2 -18q-1 -9 -2 -16h-300q4 -19 21.5 -34.5t43.5 -15.5
q15 0 25 4.5t17 10.5q8 6 13 15zM275 330q-23 0 -39.5 -16t-20.5 -39h120q-4 23 -20.5 39t-39.5 16zM175 590q0 38 26.5 64t68.5 26t68.5 -26t26.5 -64t-26.5 -64t-68.5 -26t-68.5 26t-26.5 64z" />
    <glyph glyph-name="Eogonek" unicode="&#x118;" horiz-adv-x="580" 
d="M50 630h490v-170h-290v-60h265v-160h-265v-70h300v-170q-9 -9 -15 -20q-6 -10 -10.5 -22.5t-4.5 -27.5q0 -19 13 -32t32 -13q9 0 16.5 0.5t12.5 1.5q6 1 11 3v-79q-11 -4 -23 -8q-11 -3 -25.5 -5.5t-31.5 -2.5q-57 0 -86 26.5t-29 68.5q0 24 7.5 44.5t17.5 34.5
q11 17 25 31h-410v630z" />
    <glyph glyph-name="eogonek" unicode="&#x119;" 
d="M505 145q-19 -57 -63 -98t-112 -52q-8 -8 -13 -18q-5 -8 -8.5 -20t-3.5 -27q0 -19 13 -32t32 -13q9 0 16.5 0.5t12.5 1.5q6 1 11 3v-79q-11 -4 -23 -8q-11 -3 -25.5 -5.5t-31.5 -2.5q-57 0 -86 26.5t-29 68.5q0 23 7 42t15 33q10 17 23 30q-45 6 -84 25.5t-68.5 50.5
t-46 71.5t-16.5 87.5q0 49 19.5 92.5t53 76.5t79 52t98.5 19q51 0 94.5 -18.5t76 -50t51 -73t18.5 -88.5q0 -11 -1 -21t-2 -18q-1 -9 -2 -16h-300q4 -19 21.5 -34.5t43.5 -15.5q15 0 25 4.5t17 10.5q8 6 13 15zM275 330q-23 0 -39.5 -16t-20.5 -39h120q-4 23 -20.5 39
t-39.5 16z" />
    <glyph glyph-name="Ecaron" unicode="&#x11a;" horiz-adv-x="580" 
d="M50 0zM50 630h490v-170h-290v-60h265v-160h-265v-70h300v-170h-500v630zM340 835h150l-105 -145h-170l-105 145h150l40 -55z" />
    <glyph glyph-name="ecaron" unicode="&#x11b;" 
d="M25 0zM505 145q-9 -28 -28 -56t-47.5 -50t-67 -35.5t-87.5 -13.5q-53 0 -98.5 19t-79 52t-53 76.5t-19.5 92.5t19.5 92.5t53 76.5t79 52t98.5 19q51 0 94.5 -18.5t76 -50t51 -73t18.5 -88.5q0 -11 -1 -21t-2 -18q-1 -9 -2 -16h-300q4 -19 21.5 -34.5t43.5 -15.5
q15 0 25 4.5t17 10.5q8 6 13 15zM275 330q-23 0 -39.5 -16t-20.5 -39h120q-4 23 -20.5 39t-39.5 16zM310 655h150l-105 -145h-170l-105 145h150l40 -55z" />
    <glyph glyph-name="Gbreve" unicode="&#x11e;" horiz-adv-x="715" 
d="M30 0zM350 340h325v-340h-125l-25 60q-18 -20 -44 -35q-23 -14 -57.5 -24.5t-83.5 -10.5q-62 0 -118 25.5t-99 69.5t-68 103t-25 127q0 67 25.5 126.5t70 103.5t105 69.5t129.5 25.5q49 0 89 -9.5t71 -25t54 -35t40 -40.5q39 -48 56 -110l-200 -20q-11 14 -27 25
q-14 9 -34.5 17t-48.5 8q-26 0 -49.5 -10.5t-41.5 -29t-28.5 -43t-10.5 -52.5t10.5 -52.5t28.5 -43t41.5 -29t49.5 -10.5q24 0 42.5 6t31.5 14q15 9 26 20h-110v120zM362 690q-72 0 -114 40.5t-46 104.5h120q2 -11 7 -20q5 -8 12 -14t21 -6q13 0 20.5 6t12.5 14q5 9 7 20
h120q-4 -64 -46 -104.5t-114 -40.5z" />
    <glyph glyph-name="gbreve" unicode="&#x11f;" horiz-adv-x="565" 
d="M25 0zM340 250q0 30 -19.5 50t-45.5 20t-45.5 -20t-19.5 -50t19.5 -50t45.5 -20t45.5 20t19.5 50zM345 70q-11 -11 -28 -20q-14 -8 -35.5 -14t-51.5 -6q-41 0 -78.5 17t-65.5 46.5t-44.5 69.5t-16.5 87t16.5 87t44.5 69.5t65.5 46.5t78.5 17q32 0 57 -8.5t42 -19.5
q20 -12 36 -27l25 45h135v-410q0 -47 -17 -87t-48.5 -69.5t-76 -46.5t-98.5 -17q-39 0 -70.5 7t-55.5 18.5t-42 26.5t-31 30q-30 36 -41 83l185 20q4 -10 12 -18q7 -7 17.5 -12t25.5 -5q26 0 43 18t17 52v20zM290 505q-72 0 -114 40.5t-46 104.5h120q2 -11 7 -20
q5 -8 12 -14t21 -6q13 0 20.5 6t12.5 14q5 9 7 20h120q-4 -64 -46 -104.5t-114 -40.5z" />
    <glyph glyph-name="Gcommaaccent" unicode="&#x122;" horiz-adv-x="715" 
d="M30 0zM350 340h325v-340h-125l-25 60q-18 -20 -44 -35q-23 -14 -57.5 -24.5t-83.5 -10.5q-62 0 -118 25.5t-99 69.5t-68 103t-25 127q0 67 25.5 126.5t70 103.5t105 69.5t129.5 25.5q49 0 89 -9.5t71 -25t54 -35t40 -40.5q39 -48 56 -110l-200 -20q-11 14 -27 25
q-14 9 -34.5 17t-48.5 8q-26 0 -49.5 -10.5t-41.5 -29t-28.5 -43t-10.5 -52.5t10.5 -52.5t28.5 -43t41.5 -29t49.5 -10.5q24 0 42.5 6t31.5 14q15 9 26 20h-110v120zM366 -50q34 0 57 -25t23 -70q0 -49 -16.5 -80.5t-36.5 -50.5q-23 -22 -52 -34l-25 45q11 6 21 14
q8 7 16.5 17t12.5 24q-34 0 -57 23t-23 57t23 57t57 23z" />
    <glyph glyph-name="gcommaaccent" unicode="&#x123;" horiz-adv-x="565" 
d="M290 505q-34 0 -57 25t-23 70q0 49 16 80.5t36 50.5q23 22 53 34l25 -45q-11 -6 -21 -14q-8 -7 -16.5 -17.5t-12.5 -23.5q34 0 57 -23t23 -57t-23 -57t-57 -23zM340 250q0 30 -19.5 50t-45.5 20t-45.5 -20t-19.5 -50t19.5 -50t45.5 -20t45.5 20t19.5 50zM345 70
q-11 -11 -28 -20q-14 -8 -35.5 -14t-51.5 -6q-41 0 -78.5 17t-65.5 46.5t-44.5 69.5t-16.5 87t16.5 87t44.5 69.5t65.5 46.5t78.5 17q32 0 57 -8.5t42 -19.5q20 -12 36 -27l25 45h135v-410q0 -47 -17 -87t-48.5 -69.5t-76 -46.5t-98.5 -17q-39 0 -70.5 7t-55.5 18.5
t-42 26.5t-31 30q-30 36 -41 83l185 20q4 -10 12 -18q7 -7 17.5 -12t25.5 -5q26 0 43 18t17 52v20z" />
    <glyph glyph-name="Imacron" unicode="&#x12a;" horiz-adv-x="300" 
d="M5 0zM250 0h-200v630h200v-630zM295 695h-290v135h290v-135z" />
    <glyph glyph-name="imacron" unicode="&#x12b;" horiz-adv-x="270" 
d="M0 0zM225 0h-180v460h180v-460zM280 520h-290v135h290v-135z" />
    <glyph glyph-name="Iogonek" unicode="&#x12e;" horiz-adv-x="300" 
d="M50 630h200v-630h-110q-9 -9 -15 -20q-6 -10 -10.5 -22.5t-4.5 -27.5q0 -19 13 -32t32 -13q9 0 16.5 0.5t12.5 1.5q6 1 11 3v-79q-11 -4 -23 -8q-11 -3 -25.5 -5.5t-31.5 -2.5q-57 0 -86 26.5t-29 68.5q0 24 7.5 44.5t17.5 34.5q11 17 25 31v630z" />
    <glyph glyph-name="iogonek" unicode="&#x12f;" horiz-adv-x="260" 
d="M40 460h180v-460h-90q-9 -9 -15 -20q-6 -10 -10.5 -22.5t-4.5 -27.5q0 -19 13 -32t32 -13q9 0 16.5 0.5t12.5 1.5q6 1 11 3v-79q-11 -4 -23 -8q-11 -3 -25.5 -5.5t-31.5 -2.5q-57 0 -86 26.5t-29 68.5q0 24 7.5 44.5t17.5 34.5q11 17 25 31v460zM35 590q0 38 26.5 64
t68.5 26t68.5 -26t26.5 -64t-26.5 -64t-68.5 -26t-68.5 26t-26.5 64z" />
    <glyph glyph-name="Idotaccent" unicode="&#x130;" horiz-adv-x="300" 
d="M50 0zM55 770q0 38 26.5 64t68.5 26t68.5 -26t26.5 -64t-26.5 -64t-68.5 -26t-68.5 26t-26.5 64zM250 0h-200v630h200v-630z" />
    <glyph glyph-name="dotlessi" unicode="&#x131;" horiz-adv-x="260" 
d="M220 0h-180v460h180v-460z" />
    <glyph glyph-name="ij" unicode="&#x133;" horiz-adv-x="520" 
d="M220 250q0 -50 45 -50q5 0 11.5 0.5t11.5 1.5q6 1 12 3v255h180v-440q0 -91 -49 -140.5t-136 -49.5q-19 0 -34.5 2t-26.5 5q-13 4 -24 8v160q5 -2 10 -3t11 -1.5t14 -0.5q55 0 55 60q-11 -9 -25 -15q-12 -6 -29.5 -10.5t-40.5 -4.5q-75 0 -120 46.5t-45 133.5v250h180
v-210zM225 590q0 -38 -26.5 -64t-68.5 -26t-68.5 26t-26.5 64t26.5 64t68.5 26t68.5 -26t26.5 -64zM295 590q0 38 26.5 64t68.5 26t68.5 -26t26.5 -64t-26.5 -64t-68.5 -26t-68.5 26t-26.5 64z" />
    <glyph glyph-name="Kcommaaccent" unicode="&#x136;" horiz-adv-x="620" 
d="M50 0zM405 0l-155 270v-270h-200v630h200v-265l135 265h225l-180 -310l200 -320h-225zM320 -50q34 0 57 -25t23 -70q0 -49 -16.5 -80.5t-36.5 -50.5q-23 -22 -52 -34l-25 45q11 6 21 14q8 7 16.5 17t12.5 24q-34 0 -57 23t-23 57t23 57t57 23z" />
    <glyph glyph-name="kcommaaccent" unicode="&#x137;" horiz-adv-x="510" 
d="M40 0zM320 0l-100 190v-190h-180v630h180v-345l90 175h195l-125 -220l140 -240h-200zM270 -50q34 0 57 -25t23 -70q0 -49 -16.5 -80.5t-36.5 -50.5q-23 -22 -52 -34l-25 45q11 6 21 14q8 7 16.5 17t12.5 24q-34 0 -57 23t-23 57t23 57t57 23z" />
    <glyph glyph-name="Lacute" unicode="&#x139;" horiz-adv-x="530" 
d="M50 0zM50 630h200v-440h270v-190h-470v630zM135 834h190l-100 -140h-155z" />
    <glyph glyph-name="lacute" unicode="&#x13a;" horiz-adv-x="260" 
d="M40 0zM220 0h-180v630h180v-630zM115 835h190l-100 -140h-155z" />
    <glyph glyph-name="Lcommaaccent" unicode="&#x13b;" horiz-adv-x="530" 
d="M50 0zM50 630h200v-440h270v-190h-470v630zM290 -50q34 0 57 -25t23 -70q0 -49 -16.5 -80.5t-36.5 -50.5q-23 -22 -52 -34l-25 45q11 6 21 14q8 7 16.5 17t12.5 24q-34 0 -57 23t-23 57t23 57t57 23z" />
    <glyph glyph-name="lcommaaccent" unicode="&#x13c;" horiz-adv-x="260" 
d="M40 0zM220 0h-180v630h180v-630zM130 -50q34 0 57 -25t23 -70q0 -49 -16.5 -80.5t-36.5 -50.5q-23 -22 -52 -34l-25 45q11 6 21 14q8 7 16.5 17t12.5 24q-34 0 -57 23t-23 57t23 57t57 23z" />
    <glyph glyph-name="Lcaron" unicode="&#x13d;" horiz-adv-x="530" 
d="M325 630h180l-70 -140h-145zM50 630h200v-440h270v-190h-470v630z" />
    <glyph glyph-name="lcaron" unicode="&#x13e;" horiz-adv-x="385" 
d="M285 630h180l-70 -140h-145zM220 0h-180v630h180v-630z" />
    <glyph glyph-name="Lslash" unicode="&#x141;" horiz-adv-x="560" 
d="M80 140l-70 -40v180l70 40v310h200v-190l90 50v-180l-90 -50v-70h270v-190h-470v140z" />
    <glyph glyph-name="lslash" unicode="&#x142;" horiz-adv-x="330" 
d="M10 315l60 40v275h180v-155l70 45v-175l-70 -45v-300h-180v180l-60 -40v175z" />
    <glyph glyph-name="Nacute" unicode="&#x143;" horiz-adv-x="700" 
d="M50 0zM650 630v-630h-190l-210 300v-300h-200v630h190l210 -300v300h200zM335 835h190l-100 -140h-155z" />
    <glyph glyph-name="nacute" unicode="&#x144;" horiz-adv-x="550" 
d="M40 0zM330 470q41 0 75 -13.5t58.5 -39.5t38 -63t13.5 -84v-270h-180v230q0 30 -16 47.5t-39 17.5q-26 0 -43 -17.5t-17 -47.5v-230h-180v460h130l25 -45q16 15 36 27q17 11 42 19.5t57 8.5zM275 655h190l-100 -140h-155z" />
    <glyph glyph-name="Ncommaaccent" unicode="&#x145;" horiz-adv-x="700" 
d="M50 0zM650 630v-630h-190l-210 300v-300h-200v630h190l210 -300v300h200zM350 -50q34 0 57 -25t23 -70q0 -49 -16.5 -80.5t-36.5 -50.5q-23 -22 -52 -34l-25 45q11 6 21 14q8 7 16.5 17t12.5 24q-34 0 -57 23t-23 57t23 57t57 23z" />
    <glyph glyph-name="ncommaaccent" unicode="&#x146;" horiz-adv-x="550" 
d="M40 0zM330 470q41 0 75 -13.5t58.5 -39.5t38 -63t13.5 -84v-270h-180v230q0 30 -16 47.5t-39 17.5q-26 0 -43 -17.5t-17 -47.5v-230h-180v460h130l25 -45q16 15 36 27q17 11 42 19.5t57 8.5zM280 -50q34 0 57 -25t23 -70q0 -49 -16.5 -80.5t-36.5 -50.5q-23 -22 -52 -34
l-25 45q11 6 21 14q8 7 16.5 17t12.5 24q-34 0 -57 23t-23 57t23 57t57 23z" />
    <glyph glyph-name="Ncaron" unicode="&#x147;" horiz-adv-x="700" 
d="M50 0zM650 630v-630h-190l-210 300v-300h-200v630h190l210 -300v300h200zM390 835h150l-105 -145h-170l-105 145h150l40 -55z" />
    <glyph glyph-name="ncaron" unicode="&#x148;" horiz-adv-x="550" 
d="M40 0zM330 470q41 0 75 -13.5t58.5 -39.5t38 -63t13.5 -84v-270h-180v230q0 30 -16 47.5t-39 17.5q-26 0 -43 -17.5t-17 -47.5v-230h-180v460h130l25 -45q16 15 36 27q17 11 42 19.5t57 8.5zM325 655h150l-105 -145h-170l-105 145h150l40 -55z" />
    <glyph glyph-name="Omacron" unicode="&#x14c;" horiz-adv-x="720" 
d="M30 0zM490 315q0 28 -10.5 52.5t-28.5 43t-41.5 29t-49.5 10.5t-49.5 -10.5t-41.5 -29t-28.5 -43t-10.5 -52.5t10.5 -52.5t28.5 -43t41.5 -29t49.5 -10.5t49.5 10.5t41.5 29t28.5 43t10.5 52.5zM690 315q0 -68 -25.5 -127t-70 -103t-105 -69.5t-129.5 -25.5t-129.5 25.5
t-105 69.5t-70 103t-25.5 127q0 67 25.5 126.5t70 103.5t105 69.5t129.5 25.5t129.5 -25.5t105 -69.5t70 -103.5t25.5 -126.5zM505 695h-290v135h290v-135z" />
    <glyph glyph-name="omacron" unicode="&#x14d;" horiz-adv-x="550" 
d="M25 0zM25 230q0 49 19.5 92.5t53 76.5t79 52t98.5 19q52 0 98 -19t79.5 -52t53 -76.5t19.5 -92.5t-19.5 -92.5t-53 -76.5t-79.5 -52t-98 -19q-53 0 -98.5 19t-79 52t-53 76.5t-19.5 92.5zM345 230q0 34 -20 54.5t-50 20.5t-50 -20.5t-20 -54.5t20 -54.5t50 -20.5t50 20.5
t20 54.5zM420 520h-290v135h290v-135z" />
    <glyph glyph-name="Ohungarumlaut" unicode="&#x150;" horiz-adv-x="720" 
d="M30 0zM490 315q0 28 -10.5 52.5t-28.5 43t-41.5 29t-49.5 10.5t-49.5 -10.5t-41.5 -29t-28.5 -43t-10.5 -52.5t10.5 -52.5t28.5 -43t41.5 -29t49.5 -10.5t49.5 10.5t41.5 29t28.5 43t10.5 52.5zM690 315q0 -68 -25.5 -127t-70 -103t-105 -69.5t-129.5 -25.5t-129.5 25.5
t-105 69.5t-70 103t-25.5 127q0 67 25.5 126.5t70 103.5t105 69.5t129.5 25.5t129.5 -25.5t105 -69.5t70 -103.5t25.5 -126.5zM275 835h160l-115 -140h-125zM475 835h160l-115 -140h-125z" />
    <glyph glyph-name="ohungarumlaut" unicode="&#x151;" horiz-adv-x="550" 
d="M25 0zM25 230q0 49 19.5 92.5t53 76.5t79 52t98.5 19q52 0 98 -19t79.5 -52t53 -76.5t19.5 -92.5t-19.5 -92.5t-53 -76.5t-79.5 -52t-98 -19q-53 0 -98.5 19t-79 52t-53 76.5t-19.5 92.5zM345 230q0 34 -20 54.5t-50 20.5t-50 -20.5t-20 -54.5t20 -54.5t50 -20.5t50 20.5
t20 54.5zM190 650h160l-115 -140h-125zM390 650h160l-115 -140h-125z" />
    <glyph glyph-name="OE" unicode="&#x152;" horiz-adv-x="890" 
d="M850 460h-260v-60h235v-160h-235v-70h270v-170h-500q-73 0 -134 24t-104.5 66t-67.5 99.5t-24 125.5q0 67 24 125t67.5 100t104.5 66t134 24h490v-170zM390 180v270h-30q-26 0 -49.5 -10.5t-41.5 -29t-28.5 -43t-10.5 -52.5t10.5 -52.5t28.5 -43t41.5 -29t49.5 -10.5h30z
" />
    <glyph glyph-name="oe" unicode="&#x153;" horiz-adv-x="860" 
d="M825 145q-9 -28 -28 -56t-47.5 -50t-67 -35.5t-87.5 -13.5q-38 0 -66.5 11.5t-48.5 25.5q-23 17 -40 38q-17 -21 -42 -38q-21 -14 -53 -25.5t-75 -11.5q-51 0 -95.5 19t-77.5 52t-52.5 76.5t-19.5 92.5t19.5 92.5t52.5 76.5t77.5 52t95.5 19q43 0 75 -12t53 -26
q25 -17 42 -37q17 20 40 37q20 14 48.5 26t66.5 12q51 0 94.5 -18.5t76 -50t51 -73t18.5 -88.5q0 -11 -1 -20t-2 -16q-1 -8 -2 -14h-300q4 -23 21.5 -39t43.5 -16q15 0 25 4.5t17 10.5q8 6 13 15zM595 330q-23 0 -39.5 -16t-20.5 -39h120q-4 23 -20.5 39t-39.5 16zM270 155
q26 0 45.5 20.5t19.5 54.5t-19.5 54.5t-45.5 20.5t-45.5 -20.5t-19.5 -54.5t19.5 -54.5t45.5 -20.5z" />
    <glyph glyph-name="Racute" unicode="&#x154;" horiz-adv-x="620" 
d="M50 0zM305 190h-55v-190h-200v630h294q55 0 99.5 -17t76 -46.5t48.5 -69.5t17 -87q0 -45 -15.5 -77.5t-34.5 -52.5q-22 -25 -50 -40l140 -240h-220zM324 365q23 0 37 13t14 32t-14 32t-37 13h-74v-90h74zM295 835h190l-100 -140h-155z" />
    <glyph glyph-name="racute" unicode="&#x155;" horiz-adv-x="360" 
d="M40 0zM300 470q11 0 20 -1.5t16 -3.5q8 -3 14 -5v-185q-6 2 -14 5q-7 2 -16 3.5t-20 1.5q-34 0 -57 -23.5t-23 -61.5v-200h-180v460h130l25 -45q12 15 28 27q14 11 33 19.5t44 8.5zM175 650h190l-100 -140h-155z" />
    <glyph glyph-name="Rcommaaccent" unicode="&#x156;" horiz-adv-x="620" 
d="M50 0zM305 190h-55v-190h-200v630h294q55 0 99.5 -17t76 -46.5t48.5 -69.5t17 -87q0 -45 -15.5 -77.5t-34.5 -52.5q-22 -25 -50 -40l140 -240h-220zM324 365q23 0 37 13t14 32t-14 32t-37 13h-74v-90h74zM330 -50q34 0 57 -25t23 -70q0 -49 -16.5 -80.5t-36.5 -50.5
q-23 -22 -52 -34l-25 45q11 6 21 14q8 7 16.5 17t12.5 24q-34 0 -57 23t-23 57t23 57t57 23z" />
    <glyph glyph-name="rcommaaccent" unicode="&#x157;" horiz-adv-x="360" 
d="M40 0zM300 470q11 0 20 -1.5t16 -3.5q8 -3 14 -5v-185q-6 2 -14 5q-7 2 -16 3.5t-20 1.5q-34 0 -57 -23.5t-23 -61.5v-200h-180v460h130l25 -45q12 15 28 27q14 11 33 19.5t44 8.5zM130 -50q34 0 57 -25t23 -70q0 -49 -16.5 -80.5t-36.5 -50.5q-23 -22 -52 -34l-25 45
q11 6 21 14q8 7 16.5 17t12.5 24q-34 0 -57 23t-23 57t23 57t57 23z" />
    <glyph glyph-name="Rcaron" unicode="&#x158;" horiz-adv-x="620" 
d="M50 0zM305 190h-55v-190h-200v630h294q55 0 99.5 -17t76 -46.5t48.5 -69.5t17 -87q0 -45 -15.5 -77.5t-34.5 -52.5q-22 -25 -50 -40l140 -240h-220zM324 365q23 0 37 13t14 32t-14 32t-37 13h-74v-90h74zM350 835h150l-105 -145h-170l-105 145h150l40 -55z" />
    <glyph glyph-name="rcaron" unicode="&#x159;" horiz-adv-x="360" 
d="M5 0zM300 470q11 0 20 -1.5t16 -3.5q8 -3 14 -5v-185q-6 2 -14 5q-7 2 -16 3.5t-20 1.5q-34 0 -57 -23.5t-23 -61.5v-200h-180v460h130l25 -45q12 15 28 27q14 11 33 19.5t44 8.5zM235 655h150l-105 -145h-170l-105 145h150l40 -55z" />
    <glyph glyph-name="Sacute" unicode="&#x15a;" horiz-adv-x="560" 
d="M20 0zM30 450q0 37 16.5 71.5t47.5 61t75.5 42t100.5 15.5q62 0 110.5 -16.5t81.5 -45t50.5 -67t17.5 -81.5l-195 -20q0 23 -13 36.5t-32 13.5q-15 0 -25 -7t-10 -18q0 -15 21 -23.5t53 -17.5t68.5 -21.5t68.5 -34.5t53 -57.5t21 -90.5q0 -39 -17.5 -75.5t-49.5 -64
t-78.5 -44t-104.5 -16.5q-64 0 -114 17.5t-84.5 47.5t-53 70t-18.5 85l195 20q0 -26 16 -43t39 -17t34 10t11 25t-21 23.5t-53 17.5t-68.5 21.5t-68.5 34.5t-53 57.5t-21 90.5zM270 835h190l-100 -140h-155z" />
    <glyph glyph-name="sacute" unicode="&#x15b;" horiz-adv-x="465" 
d="M15 0zM185 155q0 -11 10 -20.5t25 -9.5q35 0 35 25q0 8 -17 12t-42.5 9.5t-55.5 14.5t-55.5 25.5t-42.5 42.5t-17 66q0 28 13.5 55t39.5 48t63 34t84 13q52 0 90.5 -10.5t64.5 -30t41.5 -46t23.5 -58.5l-170 -20q0 11 -7.5 20.5t-22.5 9.5q-11 0 -18 -6t-7 -14t17 -12
t42.5 -9.5t55.5 -14.5t55.5 -25.5t42.5 -42.5t17 -66q0 -30 -14 -58t-40.5 -49.5t-65.5 -34.5t-90 -13q-54 0 -93.5 10.5t-66 30t-42.5 46t-23 58.5zM215 650h190l-100 -140h-155z" />
    <glyph glyph-name="Scedilla" unicode="&#x15e;" horiz-adv-x="560" 
d="M30 450q0 37 16.5 71.5t47.5 61t75.5 42t100.5 15.5q62 0 110.5 -16.5t81.5 -45t50.5 -67t17.5 -81.5l-195 -20q0 23 -13 36.5t-32 13.5q-15 0 -25 -7t-10 -18q0 -15 21 -23.5t53 -17.5t68.5 -21.5t68.5 -34.5t53 -57.5t21 -90.5q0 -39 -15.5 -74t-44.5 -61.5t-71 -43.5
t-94 -21l-10 -30q29 -4 52 -15q20 -10 36.5 -27.5t16.5 -47.5q0 -41 -34.5 -70.5t-105.5 -29.5q-34 0 -57 5q-12 3 -23 6v59q5 -2 12 -3q5 -1 12.5 -1.5t15.5 -0.5q30 0 42.5 10.5t12.5 29.5q0 15 -12.5 25t-42.5 10h-10l35 80q-54 6 -97.5 24.5t-74 48t-47 67t-16.5 80.5
l195 20q0 -26 16 -43t39 -17t34 10t11 25t-21 23.5t-53 17.5t-68.5 21.5t-68.5 34.5t-53 57.5t-21 90.5z" />
    <glyph glyph-name="scedilla" unicode="&#x15f;" horiz-adv-x="465" 
d="M185 155q0 -11 10 -20.5t25 -9.5q35 0 35 25q0 8 -17 12t-42.5 9.5t-55.5 14.5t-55.5 25.5t-42.5 42.5t-17 66q0 28 13.5 55t39.5 48t63 34t84 13q52 0 90.5 -10.5t64.5 -30t41.5 -46t23.5 -58.5l-170 -20q0 11 -7.5 20.5t-22.5 9.5q-11 0 -18 -6t-7 -14t17 -12
t42.5 -9.5t55.5 -14.5t55.5 -25.5t42.5 -42.5t17 -66q0 -28 -12.5 -54.5t-36.5 -47.5t-58.5 -35t-77.5 -18l-10 -30q29 -4 52 -15q20 -10 36.5 -27.5t16.5 -47.5q0 -41 -34.5 -70.5t-105.5 -29.5q-34 0 -57 5q-12 3 -23 6v59q5 -2 12 -3q5 -1 12.5 -1.5t15.5 -0.5
q30 0 42.5 10.5t12.5 29.5q0 15 -12.5 25t-42.5 10h-10l30 80q-83 8 -126.5 46.5t-58.5 98.5z" />
    <glyph glyph-name="Scaron" unicode="&#x160;" horiz-adv-x="560" 
d="M20 0zM30 450q0 37 16.5 71.5t47.5 61t75.5 42t100.5 15.5q62 0 110.5 -16.5t81.5 -45t50.5 -67t17.5 -81.5l-195 -20q0 23 -13 36.5t-32 13.5q-15 0 -25 -7t-10 -18q0 -15 21 -23.5t53 -17.5t68.5 -21.5t68.5 -34.5t53 -57.5t21 -90.5q0 -39 -17.5 -75.5t-49.5 -64
t-78.5 -44t-104.5 -16.5q-64 0 -114 17.5t-84.5 47.5t-53 70t-18.5 85l195 20q0 -26 16 -43t39 -17t34 10t11 25t-21 23.5t-53 17.5t-68.5 21.5t-68.5 34.5t-53 57.5t-21 90.5zM321 835h150l-105 -145h-170l-105 145h150l40 -55z" />
    <glyph glyph-name="scaron" unicode="&#x161;" horiz-adv-x="465" 
d="M15 0zM185 155q0 -11 10 -20.5t25 -9.5q35 0 35 25q0 8 -17 12t-42.5 9.5t-55.5 14.5t-55.5 25.5t-42.5 42.5t-17 66q0 28 13.5 55t39.5 48t63 34t84 13q52 0 90.5 -10.5t64.5 -30t41.5 -46t23.5 -58.5l-170 -20q0 11 -7.5 20.5t-22.5 9.5q-11 0 -18 -6t-7 -14t17 -12
t42.5 -9.5t55.5 -14.5t55.5 -25.5t42.5 -42.5t17 -66q0 -30 -14 -58t-40.5 -49.5t-65.5 -34.5t-90 -13q-54 0 -93.5 10.5t-66 30t-42.5 46t-23 58.5zM275 655h150l-105 -145h-170l-105 145h150l40 -55z" />
    <glyph glyph-name="Tcommaaccent" unicode="&#x162;" horiz-adv-x="560" 
d="M15 0zM380 0h-200v440h-165v190h530v-190h-165v-440zM280 -50q34 0 57 -25t23 -70q0 -49 -16.5 -80.5t-36.5 -50.5q-23 -22 -52 -34l-25 45q11 6 21 14q8 7 16.5 17t12.5 24q-34 0 -57 23t-23 57t23 57t57 23z" />
    <glyph glyph-name="tcommaaccent" unicode="&#x163;" horiz-adv-x="400" 
d="M15 0zM260 220q0 -60 55 -60q8 0 14 0.5t11 1.5t10 3v-160q-11 -4 -24 -8q-11 -3 -26.5 -5t-34.5 -2q-87 0 -136 49.5t-49 140.5v120h-65v150h35q23 0 36.5 13.5t13.5 36.5v70h160v-110h90v-160h-90v-80zM220 -50q34 0 57 -25t23 -70q0 -49 -16.5 -80.5t-36.5 -50.5
q-23 -22 -52 -34l-25 45q11 6 21 14q8 7 16.5 17t12.5 24q-34 0 -57 23t-23 57t23 57t57 23z" />
    <glyph glyph-name="Tcaron" unicode="&#x164;" horiz-adv-x="560" 
d="M15 0zM380 0h-200v440h-165v190h530v-190h-165v-440zM320 835h150l-105 -145h-170l-105 145h150l40 -55z" />
    <glyph glyph-name="tcaron" unicode="&#x165;" horiz-adv-x="450" 
d="M350 630h180l-70 -140h-145zM260 220q0 -60 55 -60q8 0 14 0.5t11 1.5t10 3v-160q-11 -4 -24 -8q-11 -3 -26.5 -5t-34.5 -2q-87 0 -136 49.5t-49 140.5v120h-65v150h35q23 0 36.5 13.5t13.5 36.5v70h160v-110h90v-160h-90v-80z" />
    <glyph glyph-name="Umacron" unicode="&#x16a;" horiz-adv-x="670" 
d="M45 0zM245 630v-360q0 -42 24 -66t66 -24t66 24t24 66v360h200v-360q0 -64 -20 -115.5t-57.5 -88t-91.5 -56.5t-121 -20q-68 0 -121.5 20t-91 56.5t-57.5 88t-20 115.5v360h200zM480 695h-290v135h290v-135z" />
    <glyph glyph-name="umacron" unicode="&#x16b;" horiz-adv-x="555" 
d="M40 0zM225 -10q-41 0 -75 13.5t-58.5 39.5t-38 63t-13.5 84v270h180v-230q0 -30 16 -47.5t39 -17.5q26 0 43 17.5t17 47.5v230h180v-460h-130l-25 45q-16 -16 -36 -28q-17 -11 -42 -19t-57 -8zM425 515h-290v135h290v-135z" />
    <glyph glyph-name="Uring" unicode="&#x16e;" horiz-adv-x="670" 
d="M45 0zM245 630v-360q0 -42 24 -66t66 -24t66 24t24 66v360h200v-360q0 -64 -20 -115.5t-57.5 -88t-91.5 -56.5t-121 -20q-68 0 -121.5 20t-91 56.5t-57.5 88t-20 115.5v360h200zM450 780q0 -45 -31 -75t-84 -30t-84 30t-31 75t31 75t84 30t84 -30t31 -75zM370 780
q0 15 -10 25t-25 10t-25 -10t-10 -25t10 -25t25 -10t25 10t10 25z" />
    <glyph glyph-name="uring" unicode="&#x16f;" horiz-adv-x="555" 
d="M40 0zM225 -10q-41 0 -75 13.5t-58.5 39.5t-38 63t-13.5 84v270h180v-230q0 -30 16 -47.5t39 -17.5q26 0 43 17.5t17 47.5v230h180v-460h-130l-25 45q-16 -16 -36 -28q-17 -11 -42 -19t-57 -8zM395 600q0 -45 -31 -75t-84 -30t-84 30t-31 75t31 75t84 30t84 -30t31 -75z
M315 600q0 15 -10 25t-25 10t-25 -10t-10 -25t10 -25t25 -10t25 10t10 25z" />
    <glyph glyph-name="Uhungarumlaut" unicode="&#x170;" horiz-adv-x="670" 
d="M45 0zM245 630v-360q0 -42 24 -66t66 -24t66 24t24 66v360h200v-360q0 -64 -20 -115.5t-57.5 -88t-91.5 -56.5t-121 -20q-68 0 -121.5 20t-91 56.5t-57.5 88t-20 115.5v360h200zM245 835h160l-115 -140h-125zM445 835h160l-115 -140h-125z" />
    <glyph glyph-name="uhungarumlaut" unicode="&#x171;" horiz-adv-x="555" 
d="M40 0zM225 -10q-41 0 -75 13.5t-58.5 39.5t-38 63t-13.5 84v270h180v-230q0 -30 16 -47.5t39 -17.5q26 0 43 17.5t17 47.5v230h180v-460h-130l-25 45q-16 -16 -36 -28q-17 -11 -42 -19t-57 -8zM190 655h160l-115 -140h-125zM390 655h160l-115 -140h-125z" />
    <glyph glyph-name="Uogonek" unicode="&#x172;" horiz-adv-x="670" 
d="M245 630v-360q0 -42 24 -66t66 -24t66 24t24 66v360h200v-360q0 -60 -17.5 -109t-49.5 -84.5t-78.5 -56.5t-104.5 -25q-8 -8 -13 -18q-5 -8 -8.5 -20t-3.5 -27q0 -19 13 -32t32 -13q9 0 16.5 0.5t12.5 1.5q6 1 11 3v-79q-11 -4 -23 -8q-11 -3 -25.5 -5.5t-31.5 -2.5
q-57 0 -86 26.5t-29 68.5q0 23 7 42t15 33q10 17 23 30q-53 6 -97 27t-75.5 56t-49.5 83.5t-18 108.5v360h200z" />
    <glyph glyph-name="uogonek" unicode="&#x173;" horiz-adv-x="555" 
d="M360 45q-16 -16 -36 -28q-17 -11 -42 -19t-57 -8q-41 0 -75 13.5t-58.5 39.5t-38 63t-13.5 84v270h180v-230q0 -30 16 -47.5t39 -17.5q26 0 43 17.5t17 47.5v230h180v-460h-40q-9 -9 -15 -20q-6 -10 -10.5 -22.5t-4.5 -27.5q0 -19 13 -32t32 -13q9 0 16.5 0.5t12.5 1.5
q6 1 11 3v-79q-11 -4 -23 -8q-11 -3 -25.5 -5.5t-31.5 -2.5q-57 0 -86 26.5t-29 68.5q0 24 7.5 44.5t17.5 34.5q11 17 25 31z" />
    <glyph glyph-name="Ydieresis" unicode="&#x178;" horiz-adv-x="620" 
d="M0 0zM210 220l-220 410h220l100 -205l100 205h220l-220 -410v-220h-200v220zM495 765q0 -17 -7 -32.5t-18.5 -27t-27 -18.5t-32.5 -7t-32.5 7t-27 18.5t-18.5 27t-7 32.5t7 32.5t18.5 27t27 18.5t32.5 7t32.5 -7t27 -18.5t18.5 -27t7 -32.5zM295 765q0 -17 -7 -32.5
t-18.5 -27t-27 -18.5t-32.5 -7t-32.5 7t-27 18.5t-18.5 27t-7 32.5t7 32.5t18.5 27t27 18.5t32.5 7t32.5 -7t27 -18.5t18.5 -27t7 -32.5z" />
    <glyph glyph-name="Zacute" unicode="&#x179;" horiz-adv-x="580" 
d="M30 0zM295 190h255v-190h-520v165l240 275h-230v190h495v-165zM280 835h190l-100 -140h-155z" />
    <glyph glyph-name="zacute" unicode="&#x17a;" horiz-adv-x="475" 
d="M30 0zM195 295h-165v165h405v-145l-165 -150h175v-165h-415v145zM215 655h190l-100 -140h-155z" />
    <glyph glyph-name="Zdotaccent" unicode="&#x17b;" horiz-adv-x="580" 
d="M30 0zM295 190h255v-190h-520v165l240 275h-230v190h495v-165zM195 770q0 38 26.5 64t68.5 26t68.5 -26t26.5 -64t-26.5 -64t-68.5 -26t-68.5 26t-26.5 64z" />
    <glyph glyph-name="zdotaccent" unicode="&#x17c;" horiz-adv-x="475" 
d="M30 0zM195 295h-165v165h405v-145l-165 -150h175v-165h-415v145zM140 600q0 38 26.5 64t68.5 26t68.5 -26t26.5 -64t-26.5 -64t-68.5 -26t-68.5 26t-26.5 64z" />
    <glyph glyph-name="Zcaron" unicode="&#x17d;" horiz-adv-x="580" 
d="M30 0zM295 190h255v-190h-520v165l240 275h-230v190h495v-165zM330 835h150l-105 -145h-170l-105 145h150l40 -55z" />
    <glyph glyph-name="zcaron" unicode="&#x17e;" horiz-adv-x="475" 
d="M30 0zM195 295h-165v165h405v-145l-165 -150h175v-165h-415v145zM275 655h150l-105 -145h-170l-105 145h150l40 -55z" />
    <glyph glyph-name="florin" unicode="&#x192;" horiz-adv-x="435" 
d="M240 -10q-14 -75 -60.5 -117.5t-129.5 -42.5q-23 0 -41.5 3t-31.5 7q-16 4 -27 10l35 155q4 -2 9 -3t10 -1.5t11 -0.5q26 0 42 16t23 54l30 160h-70l30 170h70l15 80q14 75 60.5 117.5t129.5 42.5q23 0 40.5 -3t31.5 -7q15 -4 28 -10l-35 -155q-4 1 -9 2t-10.5 2t-10.5 1
q-26 0 -41.5 -16t-23.5 -54h95l-30 -170h-95z" />
    <glyph glyph-name="Scommaaccent" unicode="&#x218;" horiz-adv-x="560" 
d="M20 0zM30 450q0 37 16.5 71.5t47.5 61t75.5 42t100.5 15.5q62 0 110.5 -16.5t81.5 -45t50.5 -67t17.5 -81.5l-195 -20q0 23 -13 36.5t-32 13.5q-15 0 -25 -7t-10 -18q0 -15 21 -23.5t53 -17.5t68.5 -21.5t68.5 -34.5t53 -57.5t21 -90.5q0 -39 -17.5 -75.5t-49.5 -64
t-78.5 -44t-104.5 -16.5q-64 0 -114 17.5t-84.5 47.5t-53 70t-18.5 85l195 20q0 -26 16 -43t39 -17t34 10t11 25t-21 23.5t-53 17.5t-68.5 21.5t-68.5 34.5t-53 57.5t-21 90.5zM287 -50q34 0 57 -25t23 -70q0 -49 -16.5 -80.5t-36.5 -50.5q-23 -22 -52 -34l-25 45
q11 6 21 14q8 7 16.5 17t12.5 24q-34 0 -57 23t-23 57t23 57t57 23z" />
    <glyph glyph-name="scommaaccent" unicode="&#x219;" horiz-adv-x="465" 
d="M15 0zM185 155q0 -11 10 -20.5t25 -9.5q35 0 35 25q0 8 -17 12t-42.5 9.5t-55.5 14.5t-55.5 25.5t-42.5 42.5t-17 66q0 28 13.5 55t39.5 48t63 34t84 13q52 0 90.5 -10.5t64.5 -30t41.5 -46t23.5 -58.5l-170 -20q0 11 -7.5 20.5t-22.5 9.5q-11 0 -18 -6t-7 -14t17 -12
t42.5 -9.5t55.5 -14.5t55.5 -25.5t42.5 -42.5t17 -66q0 -30 -14 -58t-40.5 -49.5t-65.5 -34.5t-90 -13q-54 0 -93.5 10.5t-66 30t-42.5 46t-23 58.5zM235 -50q34 0 57 -25t23 -70q0 -49 -16.5 -80.5t-36.5 -50.5q-23 -22 -52 -34l-25 45q11 6 21 14q8 7 16.5 17t12.5 24
q-34 0 -57 23t-23 57t23 57t57 23z" />
    <glyph glyph-name="uni021A" unicode="&#x21a;" horiz-adv-x="560" 
d="M15 0zM380 0h-200v440h-165v190h530v-190h-165v-440zM280 -50q34 0 57 -25t23 -70q0 -49 -16.5 -80.5t-36.5 -50.5q-23 -22 -52 -34l-25 45q11 6 21 14q8 7 16.5 17t12.5 24q-34 0 -57 23t-23 57t23 57t57 23z" />
    <glyph glyph-name="uni021B" unicode="&#x21b;" horiz-adv-x="400" 
d="M15 0zM260 220q0 -60 55 -60q8 0 14 0.5t11 1.5t10 3v-160q-11 -4 -24 -8q-11 -3 -26.5 -5t-34.5 -2q-87 0 -136 49.5t-49 140.5v120h-65v150h35q23 0 36.5 13.5t13.5 36.5v70h160v-110h90v-160h-90v-80zM220 -50q34 0 57 -25t23 -70q0 -49 -16.5 -80.5t-36.5 -50.5
q-23 -22 -52 -34l-25 45q11 6 21 14q8 7 16.5 17t12.5 24q-34 0 -57 23t-23 57t23 57t57 23z" />
    <glyph glyph-name="afii57929" unicode="&#x2bc;" horiz-adv-x="220" 
d="M110 640q34 0 57 -25t23 -70q0 -49 -16.5 -80.5t-36.5 -50.5q-23 -22 -52 -34l-25 45q11 6 21 14q8 7 16.5 17t12.5 24q-34 0 -57 23t-23 57t23 57t57 23z" />
    <glyph glyph-name="circumflex" unicode="&#x2c6;" horiz-adv-x="440" 
d="M220 550l-40 -55h-150l105 145h170l105 -145h-150z" />
    <glyph glyph-name="caron" unicode="&#x2c7;" horiz-adv-x="440" 
d="M260 640h150l-105 -145h-170l-105 145h150l40 -55z" />
    <glyph glyph-name="breve" unicode="&#x2d8;" horiz-adv-x="380" 
d="M190 500q-72 0 -114 40.5t-46 104.5h120q2 -11 7 -20q5 -8 12 -14t21 -6q13 0 20.5 6t12.5 14q5 9 7 20h120q-4 -64 -46 -104.5t-114 -40.5z" />
    <glyph glyph-name="dotaccent" unicode="&#x2d9;" horiz-adv-x="250" 
d="M30 585q0 38 26.5 64t68.5 26t68.5 -26t26.5 -64t-26.5 -64t-68.5 -26t-68.5 26t-26.5 64z" />
    <glyph glyph-name="ring" unicode="&#x2da;" horiz-adv-x="290" 
d="M260 585q0 -45 -31 -75t-84 -30t-84 30t-31 75t31 75t84 30t84 -30t31 -75zM180 585q0 15 -10 25t-25 10t-25 -10t-10 -25t10 -25t25 -10t25 10t10 25z" />
    <glyph glyph-name="ogonek" unicode="&#x2db;" horiz-adv-x="255" 
d="M170 0q-9 -9 -15 -20q-6 -10 -10.5 -22.5t-4.5 -27.5q0 -19 13 -32t32 -13q9 0 16.5 0.5t12.5 1.5q6 1 11 3v-79q-11 -4 -23 -8q-11 -3 -25.5 -5.5t-31.5 -2.5q-57 0 -86 26.5t-29 68.5q0 24 7.5 44.5t17.5 34.5q11 17 25 31h90z" />
    <glyph glyph-name="tilde" unicode="&#x2dc;" horiz-adv-x="380" 
d="M30 505q0 75 26 107.5t64 32.5q19 0 32.5 -4.5t24.5 -10.5t20 -10.5t18 -4.5q25 0 25 25l110 -10q0 -75 -26 -107.5t-64 -32.5q-19 0 -32.5 4.5t-24.5 10.5t-20 10.5t-18 4.5q-25 0 -25 -25z" />
    <glyph glyph-name="hungarumlaut" unicode="&#x2dd;" horiz-adv-x="500" 
d="M110 640h160l-115 -140h-125zM310 640h160l-115 -140h-125z" />
    <glyph glyph-name="afii10023" unicode="&#x401;" horiz-adv-x="580" 
d="M50 630h490v-170h-290v-60h265v-160h-265v-70h300v-170h-500v630zM485 765q0 -17 -7 -32.5t-18.5 -27t-27 -18.5t-32.5 -7t-32.5 7t-27 18.5t-18.5 27t-7 32.5t7 32.5t18.5 27t27 18.5t32.5 7t32.5 -7t27 -18.5t18.5 -27t7 -32.5zM285 765q0 -17 -7 -32.5t-18.5 -27
t-27 -18.5t-32.5 -7t-32.5 7t-27 18.5t-18.5 27t-7 32.5t7 32.5t18.5 27t27 18.5t32.5 7t32.5 -7t27 -18.5t18.5 -27t7 -32.5z" />
    <glyph glyph-name="afii10051" unicode="&#x402;" horiz-adv-x="685" 
d="M460 420q45 0 82.5 -15.5t65 -45t42.5 -72.5t15 -97t-17.5 -98.5t-52.5 -76t-86.5 -48.5t-118.5 -17v180q34 0 52 17t18 43q0 23 -17 39t-43 16q-30 0 -50 -20.5t-20 -54.5v-170h-200v450h-120v180h450v-180h-130v-80q13 14 31 25q16 9 40.5 17t58.5 8z" />
    <glyph glyph-name="afii10052" unicode="&#x403;" horiz-adv-x="510" 
d="M50 0zM50 630h450v-190h-250v-440h-200v630zM255 835h190l-100 -140h-155z" />
    <glyph glyph-name="afii10053" unicode="&#x404;" horiz-adv-x="690" 
d="M420 235h-180q9 -19 26 -33q14 -12 37 -22t57 -10q28 0 48.5 10t34.5 22q16 14 27 33l200 -20q-18 -64 -58 -113q-17 -21 -40 -41t-54 -36t-70 -25.5t-88 -9.5q-69 0 -129.5 25.5t-105 69.5t-70 103t-25.5 127q0 67 25.5 126.5t69.5 103.5t103 69.5t127 25.5q49 0 88 -10
t70 -25.5t54 -36t40 -41.5q40 -49 58 -112l-200 -20q-11 18 -27 32q-14 12 -34.5 22.5t-48.5 10.5q-32 0 -53.5 -11t-35.5 -24q-16 -16 -26 -35h180v-155z" />
    <glyph glyph-name="afii10054" unicode="&#x405;" horiz-adv-x="560" 
d="M30 450q0 37 16.5 71.5t47.5 61t75.5 42t100.5 15.5q62 0 110.5 -16.5t81.5 -45t50.5 -67t17.5 -81.5l-195 -20q0 23 -13 36.5t-32 13.5q-15 0 -25 -7t-10 -18q0 -15 21 -23.5t53 -17.5t68.5 -21.5t68.5 -34.5t53 -57.5t21 -90.5q0 -39 -17.5 -75.5t-49.5 -64t-78.5 -44
t-104.5 -16.5q-64 0 -114 17.5t-84.5 47.5t-53 70t-18.5 85l195 20q0 -26 16 -43t39 -17t34 10t11 25t-21 23.5t-53 17.5t-68.5 21.5t-68.5 34.5t-53 57.5t-21 90.5z" />
    <glyph glyph-name="afii10055" unicode="&#x406;" horiz-adv-x="300" 
d="M250 0h-200v630h200v-630z" />
    <glyph glyph-name="afii10056" unicode="&#x407;" horiz-adv-x="340" 
d="M0 0zM270 0h-200v630h200v-630zM355 765q0 -17 -7 -32.5t-18.5 -27t-27 -18.5t-32.5 -7t-32.5 7t-27 18.5t-18.5 27t-7 32.5t7 32.5t18.5 27t27 18.5t32.5 7t32.5 -7t27 -18.5t18.5 -27t7 -32.5zM155 765q0 -17 -7 -32.5t-18.5 -27t-27 -18.5t-32.5 -7t-32.5 7t-27 18.5
t-18.5 27t-7 32.5t7 32.5t18.5 27t27 18.5t32.5 7t32.5 -7t27 -18.5t18.5 -27t7 -32.5z" />
    <glyph glyph-name="afii10057" unicode="&#x408;" horiz-adv-x="535" 
d="M490 630v-400q0 -54 -17 -98.5t-49 -76t-77.5 -48.5t-101.5 -17t-101.5 17t-77.5 47t-49 71t-17 90l200 20q0 -26 13 -40.5t32 -14.5t32 13.5t13 36.5v400h200z" />
    <glyph glyph-name="afii10058" unicode="&#x409;" horiz-adv-x="925" 
d="M400 0v440h-95l-20 -250q-8 -94 -60.5 -147t-139.5 -53q-30 0 -55 5q-13 2 -25 5v180h25q30 0 46 16t19 54l30 380h475v-170h60q56 0 101.5 -17t77.5 -47.5t49 -72.5t17 -93t-17 -93t-49 -72.5t-77.5 -47.5t-101.5 -17h-260zM600 280v-100h40q26 0 40.5 13.5t14.5 36.5
t-14.5 36.5t-40.5 13.5h-40z" />
    <glyph glyph-name="afii10059" unicode="&#x40a;" horiz-adv-x="945" 
d="M420 0v270h-170v-270h-200v630h200v-180h170v180h200v-180h65q54 0 98.5 -17t76 -47t48.5 -71t17 -90t-17 -90t-48.5 -71t-76 -47t-98.5 -17h-265zM620 270v-90h45q23 0 36.5 13t13.5 32t-13.5 32t-36.5 13h-45z" />
    <glyph glyph-name="afii10060" unicode="&#x40b;" horiz-adv-x="695" 
d="M465 180q0 30 -17.5 47.5t-47.5 17.5t-50 -20.5t-20 -54.5v-170h-200v450h-120v180h450v-180h-130v-80q13 14 31 25q16 9 40.5 17t58.5 8q45 0 82.5 -15.5t65 -46t42.5 -75.5t15 -103v-180h-200v180z" />
    <glyph glyph-name="afii10061" unicode="&#x40c;" horiz-adv-x="620" 
d="M405 0l-155 270v-270h-200v630h200v-265l135 265h225l-180 -310l200 -320h-225zM305 835h190l-100 -140h-155z" />
    <glyph glyph-name="afii10062" unicode="&#x40e;" horiz-adv-x="600" 
d="M0 0zM615 630l-220 -470q-19 -41 -40.5 -73t-48.5 -53.5t-61.5 -32.5t-79.5 -11q-30 0 -55 5q-13 2 -25 5v185q5 -2 12 -3q5 -1 12.5 -1.5t15.5 -0.5q19 0 32.5 4.5t23.5 10.5q11 6 19 15l-205 420h215l95 -225l95 225h215zM305 680q-72 0 -114 40.5t-46 104.5h120
q2 -11 7 -20q5 -8 12 -14t21 -6q13 0 20.5 6t12.5 14q5 9 7 20h120q-4 -64 -46 -104.5t-114 -40.5z" />
    <glyph glyph-name="afii10145" unicode="&#x40f;" horiz-adv-x="690" 
d="M445 -115h-200v115h-195v630h200v-440h190v440h200v-630h-195v-115z" />
    <glyph glyph-name="afii10017" unicode="&#x410;" horiz-adv-x="640" 
d="M320 420l-40 -150h80zM235 110l-30 -110h-215l210 630h240l210 -630h-215l-30 110h-170z" />
    <glyph glyph-name="afii10018" unicode="&#x411;" horiz-adv-x="605" 
d="M360 420q51 0 92.5 -16t71 -44t45.5 -66.5t16 -83.5t-16 -83.5t-45.5 -66.5t-71 -44t-92.5 -16h-310v630h480v-170h-280v-40h110zM340 170q45 0 45 40t-45 40h-90v-80h90z" />
    <glyph glyph-name="afii10019" unicode="&#x412;" horiz-adv-x="615" 
d="M475 335q34 -12 60 -33q23 -18 41.5 -49t18.5 -78q0 -36 -14.5 -67.5t-42.5 -55.5t-67.5 -38t-90.5 -14h-330v630h310q51 0 90 -13t65.5 -35t40.5 -51t14 -61q0 -38 -15 -63.5t-33 -41.5q-21 -18 -47 -30zM250 390h60q23 0 36.5 13t13.5 32t-13.5 32t-36.5 13h-60v-90z
M325 150q26 0 40.5 13.5t14.5 36.5t-14.5 36.5t-40.5 13.5h-75v-100h75z" />
    <glyph glyph-name="afii10020" unicode="&#x413;" horiz-adv-x="510" 
d="M50 630h450v-190h-250v-440h-200v630z" />
    <glyph glyph-name="afii10021" unicode="&#x414;" horiz-adv-x="685" 
d="M675 190v-305h-200v115h-275v-115h-200v305h40q12 7 22 20q8 11 16 30.5t12 49.5l40 340h475v-440h70zM405 440h-110l-15 -150q-3 -30 -11.5 -49.5t-17.5 -30.5q-11 -13 -22 -20h176v250z" />
    <glyph glyph-name="afii10022" unicode="&#x415;" horiz-adv-x="580" 
d="M50 630h490v-170h-290v-60h265v-160h-265v-70h300v-170h-500v630z" />
    <glyph glyph-name="afii10024" unicode="&#x416;" horiz-adv-x="900" 
d="M550 630v-255l120 255h220l-160 -310l180 -320h-225l-135 260v-260h-200v260l-135 -260h-225l180 320l-160 310h220l120 -255v255h200z" />
    <glyph glyph-name="afii10025" unicode="&#x417;" horiz-adv-x="550" 
d="M20 440q2 41 19.5 77.5t49.5 63.5t77.5 43t103.5 16q60 0 106 -15t76.5 -39.5t46.5 -57t16 -68.5q0 -34 -14 -58.5t-31 -40.5q-20 -18 -45 -31q29 -13 52 -34q20 -18 36.5 -46t16.5 -70q0 -38 -16.5 -72t-48.5 -60.5t-78.5 -42t-106.5 -15.5q-64 0 -113.5 16.5t-83.5 45
t-52.5 67t-20.5 81.5l200 20q4 -14 11 -25q6 -10 16.5 -17.5t27.5 -7.5q23 0 34 12.5t11 27.5t-11 27.5t-34 12.5h-70v150h70q15 0 25 7.5t10 22.5t-10 22.5t-25 7.5q-14 0 -22.5 -6t-13.5 -14q-6 -9 -9 -20z" />
    <glyph glyph-name="afii10026" unicode="&#x418;" horiz-adv-x="700" 
d="M250 630v-325l220 325h180v-630h-200v325l-220 -325h-180v630h200z" />
    <glyph glyph-name="afii10027" unicode="&#x419;" horiz-adv-x="700" 
d="M350 680q-72 0 -114 40.5t-46 104.5h120q2 -11 7 -20q5 -8 12 -14t21 -6q13 0 20.5 6t12.5 14q5 9 7 20h120q-4 -64 -46 -104.5t-114 -40.5zM250 630v-325l220 325h180v-630h-200v325l-220 -325h-180v630h200z" />
    <glyph glyph-name="afii10028" unicode="&#x41a;" horiz-adv-x="620" 
d="M405 0l-155 270v-270h-200v630h200v-265l135 265h225l-180 -310l200 -320h-225z" />
    <glyph glyph-name="afii10029" unicode="&#x41b;" horiz-adv-x="670" 
d="M620 630v-630h-200v440h-115l-20 -250q-8 -94 -60.5 -147t-139.5 -53q-30 0 -55 5q-13 2 -25 5v180h25q30 0 46 16t19 54l30 380h495z" />
    <glyph glyph-name="afii10030" unicode="&#x41c;" horiz-adv-x="830" 
d="M570 630h210v-630h-200v295l-135 -295h-60l-135 295v-295h-200v630h210l155 -330z" />
    <glyph glyph-name="afii10031" unicode="&#x41d;" horiz-adv-x="690" 
d="M640 630v-630h-200v225h-190v-225h-200v630h200v-215h190v215h200z" />
    <glyph glyph-name="afii10032" unicode="&#x41e;" horiz-adv-x="720" 
d="M490 315q0 28 -10.5 52.5t-28.5 43t-41.5 29t-49.5 10.5t-49.5 -10.5t-41.5 -29t-28.5 -43t-10.5 -52.5t10.5 -52.5t28.5 -43t41.5 -29t49.5 -10.5t49.5 10.5t41.5 29t28.5 43t10.5 52.5zM690 315q0 -68 -25.5 -127t-70 -103t-105 -69.5t-129.5 -25.5t-129.5 25.5
t-105 69.5t-70 103t-25.5 127q0 67 25.5 126.5t70 103.5t105 69.5t129.5 25.5t129.5 -25.5t105 -69.5t70 -103.5t25.5 -126.5z" />
    <glyph glyph-name="afii10033" unicode="&#x41f;" horiz-adv-x="690" 
d="M640 630v-630h-200v440h-190v-440h-200v630h590z" />
    <glyph glyph-name="afii10034" unicode="&#x420;" horiz-adv-x="595" 
d="M330 630q56 0 101.5 -17t77.5 -47.5t49 -72.5t17 -93t-17 -93t-49 -72.5t-77.5 -47.5t-101.5 -17h-80v-170h-200v630h280zM310 350q26 0 40.5 13.5t14.5 36.5t-14.5 36.5t-40.5 13.5h-60v-100h60z" />
    <glyph glyph-name="afii10035" unicode="&#x421;" horiz-adv-x="690" 
d="M360 180q30 0 50.5 10.5t34.5 24.5q15 15 25 35l200 -20q-15 -67 -54 -120q-17 -23 -40 -44.5t-54 -38t-71 -27t-91 -10.5q-69 0 -129.5 25.5t-105 69.5t-70 103t-25.5 127q0 67 25.5 126.5t70 103.5t105 69.5t129.5 25.5q51 0 91 -10.5t71 -27t54 -38.5t40 -44
q39 -53 54 -120l-200 -20q-10 19 -25 35q-14 13 -34.5 24t-50.5 11q-26 0 -49.5 -10.5t-41.5 -29t-28.5 -43t-10.5 -52.5t10.5 -52.5t28.5 -43t41.5 -29t49.5 -10.5z" />
    <glyph glyph-name="afii10036" unicode="&#x422;" horiz-adv-x="570" 
d="M385 0h-200v440h-165v190h530v-190h-165v-440z" />
    <glyph glyph-name="afii10037" unicode="&#x423;" horiz-adv-x="600" 
d="M615 630l-220 -470q-19 -41 -40.5 -73t-48.5 -53.5t-61.5 -32.5t-79.5 -11q-30 0 -55 5q-13 2 -25 5v185q5 -2 12 -3q5 -1 12.5 -1.5t15.5 -0.5q19 0 32.5 4.5t23.5 10.5q11 6 19 15l-205 420h215l95 -225l95 225h215z" />
    <glyph glyph-name="afii10038" unicode="&#x424;" horiz-adv-x="790" 
d="M295 60q-62 4 -112.5 25.5t-86.5 56t-56 80t-20 98.5q0 52 20 98t56 80.5t86.5 56t112.5 25.5v60h200v-60q62 -4 112.5 -25.5t86.5 -56t56 -80.5t20 -98q0 -53 -20 -98.5t-56 -80t-86.5 -56t-112.5 -25.5v-65h-200v65zM490 235q34 4 57 27.5t23 57.5t-23 57.5t-57 27.5
v-170zM300 405q-34 -4 -57 -27.5t-23 -57.5t23 -57.5t57 -27.5v170z" />
    <glyph glyph-name="afii10039" unicode="&#x425;" horiz-adv-x="620" 
d="M620 630l-185 -310l195 -320h-225l-95 170l-95 -170h-225l195 320l-185 310h225l85 -160l85 160h225z" />
    <glyph glyph-name="afii10040" unicode="&#x426;" horiz-adv-x="700" 
d="M490 0h-440v630h200v-440h170v440h200v-440h70v-305h-200v115z" />
    <glyph glyph-name="afii10041" unicode="&#x427;" horiz-adv-x="650" 
d="M600 630v-630h-200v180q-17 -6 -36 -10q-17 -4 -38.5 -7t-45.5 -3q-53 0 -97 18t-75.5 49.5t-49.5 75.5t-18 97v230h200v-195q0 -42 23.5 -66t61.5 -24q15 0 28 3t24 7q12 4 23 10v265h200z" />
    <glyph glyph-name="afii10042" unicode="&#x428;" horiz-adv-x="930" 
d="M50 0v630h200v-440h115v440h200v-440h115v440h200v-630h-830z" />
    <glyph glyph-name="afii10043" unicode="&#x429;" horiz-adv-x="960" 
d="M750 0h-700v630h200v-440h115v440h200v-440h115v440h200v-440h70v-305h-200v115z" />
    <glyph glyph-name="afii10044" unicode="&#x42a;" horiz-adv-x="640" 
d="M105 0v440h-105v190h305v-170h70q56 0 101.5 -17t77.5 -47.5t49 -72.5t17 -93t-17 -93t-49 -72.5t-77.5 -47.5t-101.5 -17h-270zM305 280v-100h50q26 0 40.5 13.5t14.5 36.5t-14.5 36.5t-40.5 13.5h-50z" />
    <glyph glyph-name="afii10045" unicode="&#x42b;" horiz-adv-x="865" 
d="M815 0h-200v630h200v-630zM50 0v630h200v-170h70q56 0 101.5 -17t77.5 -47.5t49 -72.5t17 -93t-17 -93t-49 -72.5t-77.5 -47.5t-101.5 -17h-270zM250 280v-100h50q26 0 40.5 13.5t14.5 36.5t-14.5 36.5t-40.5 13.5h-50z" />
    <glyph glyph-name="afii10046" unicode="&#x42c;" horiz-adv-x="595" 
d="M50 0v630h200v-170h80q56 0 101.5 -17t77.5 -47.5t49 -72.5t17 -93t-17 -93t-49 -72.5t-77.5 -47.5t-101.5 -17h-280zM250 280v-100h60q26 0 40.5 13.5t14.5 36.5t-14.5 36.5t-40.5 13.5h-60z" />
    <glyph glyph-name="afii10047" unicode="&#x42d;" horiz-adv-x="680" 
d="M260 390h180q-10 19 -26 35q-14 13 -35.5 24t-53.5 11q-29 0 -49 -10.5t-34 -22.5q-16 -14 -27 -32l-200 20q17 63 57 112q17 21 40.5 41.5t54.5 36t70 25.5t88 10q67 0 126.5 -25.5t103.5 -69.5t69.5 -103.5t25.5 -126.5q0 -68 -25.5 -127t-70 -103t-105 -69.5
t-129.5 -25.5q-49 0 -88 9.5t-70 25.5t-54.5 36t-40.5 41q-40 49 -57 113l200 20q11 -19 27 -33q14 -12 34 -22t49 -10q34 0 57 10t37 22q17 14 26 33h-180v155z" />
    <glyph glyph-name="afii10048" unicode="&#x42e;" horiz-adv-x="940" 
d="M600 450q-45 0 -77.5 -35.5t-32.5 -99.5t32.5 -99.5t77.5 -35.5t77.5 35.5t32.5 99.5t-32.5 99.5t-77.5 35.5zM600 640q66 0 122.5 -24t98 -67t65.5 -103t24 -131t-24 -131t-65.5 -103t-98 -67t-122.5 -24q-46 0 -83 10t-66.5 26t-51.5 36.5t-38 42.5q-38 50 -56 115h-55
v-220h-200v630h200v-230h55q16 67 54 120q16 22 38 44t51.5 38.5t67 27t84.5 10.5z" />
    <glyph glyph-name="afii10049" unicode="&#x42f;" horiz-adv-x="620" 
d="M215 0h-220l140 240q-27 15 -48 40q-18 20 -32.5 52.5t-14.5 77.5q0 47 17 87t48.5 69.5t76 46.5t98.5 17h290v-630h-200v190h-55zM370 365v90h-70q-23 0 -36.5 -13t-13.5 -32t13.5 -32t36.5 -13h70z" />
    <glyph glyph-name="afii10065" unicode="&#x430;" horiz-adv-x="495" 
d="M255 470q47 0 85 -14t64.5 -39.5t41 -60.5t14.5 -76v-280h-130l-25 45q-16 -16 -36 -28q-17 -11 -42 -19t-57 -8q-75 0 -115 36.5t-40 93.5q0 34 14 63t45.5 50.5t82 34t123.5 12.5q0 19 -10 29.5t-25 10.5q-10 0 -16 -4t-11 -9t-8 -12l-175 20q7 43 33 77q11 15 27 29
t38.5 25t52.5 17.5t69 6.5zM230 120q19 0 34.5 17.5t15.5 47.5v10q-49 0 -67 -13t-18 -32q0 -11 10 -20.5t25 -9.5z" />
    <glyph glyph-name="afii10066" unicode="&#x431;" horiz-adv-x="565" 
d="M320 450q45 0 85 -17.5t70 -48.5t47.5 -73t17.5 -91q0 -47 -18.5 -88.5t-52 -73t-79.5 -50t-100 -18.5t-101 20t-81 58.5t-53.5 94.5t-19.5 127q0 96 23 165.5t75 115t136 67.5t206 22v-155q-77 0 -126 -8t-79.5 -22t-47 -33.5t-27.5 -41.5q14 14 32 25q16 9 39.5 17
t53.5 8zM290 155q30 0 50 19.5t20 45.5t-20 45.5t-50 19.5t-50 -19.5t-20 -45.5t20 -45.5t50 -19.5z" />
    <glyph glyph-name="afii10067" unicode="&#x432;" horiz-adv-x="505" 
d="M410 240q20 -8 37 -23q14 -13 26 -34t12 -53q0 -26 -11 -49.5t-32 -41.5t-52 -28.5t-70 -10.5h-280v460h270q37 0 67 -10.5t50.5 -27.5t31.5 -40t11 -47q0 -26 -9.5 -44.5t-20.5 -29.5q-13 -13 -30 -21zM220 340v-50h35q30 0 30 25t-30 25h-35zM265 120q19 0 27 9.5
t8 20.5t-8 20.5t-27 9.5h-45v-60h45z" />
    <glyph glyph-name="afii10068" unicode="&#x433;" horiz-adv-x="410" 
d="M400 295h-180v-295h-180v460h360v-165z" />
    <glyph glyph-name="afii10069" unicode="&#x434;" horiz-adv-x="555" 
d="M545 160v-255h-180v95h-185v-95h-180v255h30q10 6 20 17q8 9 15.5 23t9.5 35l25 225h390v-300h55zM240 235q-2 -21 -7.5 -35t-11.5 -23q-7 -11 -16 -17h105v140h-65z" />
    <glyph glyph-name="afii10070" unicode="&#x435;" horiz-adv-x="535" 
d="M505 145q-9 -28 -28 -56t-47.5 -50t-67 -35.5t-87.5 -13.5q-53 0 -98.5 19t-79 52t-53 76.5t-19.5 92.5t19.5 92.5t53 76.5t79 52t98.5 19q51 0 94.5 -18.5t76 -50t51 -73t18.5 -88.5q0 -11 -1 -21t-2 -18q-1 -9 -2 -16h-300q4 -19 21.5 -34.5t43.5 -15.5q15 0 25 4.5
t17 10.5q8 6 13 15zM275 330q-23 0 -39.5 -16t-20.5 -39h120q-4 23 -20.5 39t-39.5 16z" />
    <glyph glyph-name="afii10072" unicode="&#x436;" horiz-adv-x="710" 
d="M520 0l-75 180v-180h-180v180l-75 -180h-200l120 240l-105 220h195l65 -165v165h180v-165l65 165h195l-105 -220l120 -240h-200z" />
    <glyph glyph-name="afii10073" unicode="&#x437;" horiz-adv-x="465" 
d="M365 235q22 -9 40 -23q15 -12 27.5 -32t12.5 -50q0 -26 -13 -51.5t-40 -45t-67.5 -31.5t-94.5 -12q-56 0 -96.5 11t-67.5 30.5t-43 47t-23 61.5l175 20q0 -10 4 -18q3 -7 10 -12t21 -5q35 0 35 25t-35 25h-45v110h50q30 0 30 25t-30 25q-14 0 -21 -5t-10 -10
q-4 -7 -4 -15l-170 20q7 32 23 58.5t42.5 46t66 30t93.5 10.5q51 0 89 -12t64 -31.5t39 -45t13 -51.5t-12 -44.5t-26 -29.5q-17 -13 -37 -21z" />
    <glyph glyph-name="afii10074" unicode="&#x438;" horiz-adv-x="555" 
d="M40 0v460h180v-205l140 205h155v-460h-180v205l-140 -205h-155z" />
    <glyph glyph-name="afii10075" unicode="&#x439;" horiz-adv-x="555" 
d="M40 0v460h180v-205l140 205h155v-460h-180v205l-140 -205h-155zM275 600q11 0 18 5t11 12q4 8 6 18h110q-4 -57 -42.5 -93.5t-102.5 -36.5t-102.5 36.5t-42.5 93.5h110q2 -10 6 -18q4 -7 11 -12t18 -5z" />
    <glyph glyph-name="afii10076" unicode="&#x43a;" horiz-adv-x="510" 
d="M320 0l-100 190v-190h-180v460h180v-175l90 175h195l-125 -220l140 -240h-200z" />
    <glyph glyph-name="afii10077" unicode="&#x43b;" 
d="M500 460v-460h-180v295h-65l-10 -145q-5 -75 -46.5 -117.5t-113.5 -42.5q-30 0 -55 5q-13 2 -25 5v155h20q45 0 50 55l20 250h405z" />
    <glyph glyph-name="afii10078" unicode="&#x43c;" horiz-adv-x="670" 
d="M335 235l105 225h190v-460h-180v195l-90 -195h-50l-90 195v-195h-180v460h190z" />
    <glyph glyph-name="afii10079" unicode="&#x43d;" horiz-adv-x="545" 
d="M505 460v-460h-180v145h-105v-145h-180v460h180v-150h105v150h180z" />
    <glyph glyph-name="afii10080" unicode="&#x43e;" horiz-adv-x="550" 
d="M25 230q0 49 19.5 92.5t53 76.5t79 52t98.5 19q52 0 98 -19t79.5 -52t53 -76.5t19.5 -92.5t-19.5 -92.5t-53 -76.5t-79.5 -52t-98 -19q-53 0 -98.5 19t-79 52t-53 76.5t-19.5 92.5zM345 230q0 34 -20 54.5t-50 20.5t-50 -20.5t-20 -54.5t20 -54.5t50 -20.5t50 20.5
t20 54.5z" />
    <glyph glyph-name="afii10081" unicode="&#x43f;" horiz-adv-x="545" 
d="M505 460v-460h-180v295h-105v-295h-180v460h465z" />
    <glyph glyph-name="afii10082" unicode="&#x440;" horiz-adv-x="565" 
d="M335 470q39 0 76 -18t65.5 -49.5t46 -76t17.5 -96.5q0 -53 -17.5 -97t-46 -75.5t-65.5 -49.5t-76 -18q-30 0 -52 6t-36 14q-17 9 -27 20v-190h-180v620h135l25 -45q16 15 36 27q17 11 42 19.5t57 8.5zM220 230q0 -34 20 -54.5t50 -20.5t50 20.5t20 54.5t-20 54.5
t-50 20.5t-50 -20.5t-20 -54.5z" />
    <glyph glyph-name="afii10083" unicode="&#x441;" horiz-adv-x="535" 
d="M275 470q39 0 70.5 -8t55.5 -21.5t42 -30.5t31 -35q30 -42 41 -95l-175 -20q-5 12 -14 22q-8 8 -20 15.5t-31 7.5q-30 0 -50 -20.5t-20 -54.5q0 -35 20 -55t50 -20q19 0 31 7t20 15q9 10 14 23l175 -20q-11 -54 -41 -95q-13 -18 -31 -35t-42 -30.5t-55.5 -21.5t-70.5 -8
q-53 0 -98.5 19t-79 52t-53 76.5t-19.5 92.5t19.5 92.5t53 76.5t79 52t98.5 19z" />
    <glyph glyph-name="afii10084" unicode="&#x442;" horiz-adv-x="460" 
d="M445 295h-125v-295h-180v295h-125v165h430v-165z" />
    <glyph glyph-name="afii10085" unicode="&#x443;" horiz-adv-x="520" 
d="M-5 460h190l75 -240l75 240h190l-180 -460q-32 -83 -79 -126.5t-126 -43.5q-30 0 -50 5q-11 2 -20 5v160h40q15 0 25 3.5t17 8.5q8 5 13 13z" />
    <glyph glyph-name="afii10086" unicode="&#x444;" horiz-adv-x="750" 
d="M460 165q3 -3 7 -5q8 -5 23 -5q23 0 39 18.5t16 56.5t-16 56.5t-39 18.5q-8 0 -13.5 -1.5t-9.5 -3.5q-4 -3 -7 -5v-130zM285 10q-9 -6 -21 -10q-11 -4 -25.5 -7t-33.5 -3q-34 0 -66 16.5t-57.5 47.5t-41 75.5t-15.5 100.5t15.5 100.5t41 75.5t57.5 47.5t66 16.5
q19 0 33.5 -3t25.5 -7q12 -4 21 -10v180h180v-180q9 6 21 10q11 4 25.5 7t33.5 3q34 0 66 -16.5t57.5 -47.5t41 -75.5t15.5 -100.5t-15.5 -100.5t-41 -75.5t-57.5 -47.5t-66 -16.5q-19 0 -33.5 3t-25.5 7q-12 4 -21 10v-170h-180v170zM290 295q-4 2 -8 5q-4 2 -9 3.5
t-13 1.5q-23 0 -39 -18.5t-16 -56.5t16 -56.5t39 -18.5q14 0 22 5q4 2 8 5v130z" />
    <glyph glyph-name="afii10087" unicode="&#x445;" horiz-adv-x="500" 
d="M250 350l60 110h190l-135 -225l145 -235h-195l-65 115l-65 -115h-195l145 235l-135 225h190z" />
    <glyph glyph-name="afii10088" unicode="&#x446;" horiz-adv-x="560" 
d="M370 0h-330v460h180v-295h95v295h180v-295h55v-260h-180v95z" />
    <glyph glyph-name="afii10089" unicode="&#x447;" horiz-adv-x="525" 
d="M485 460v-460h-180v135q-11 -6 -25 -10q-12 -4 -29.5 -7t-40.5 -3q-39 0 -72 13.5t-57 38.5t-37.5 60t-13.5 78v155h180v-125q0 -26 13.5 -40.5t36.5 -14.5q20 0 34 7q6 4 11 8v165h180z" />
    <glyph glyph-name="afii10090" unicode="&#x448;" horiz-adv-x="750" 
d="M40 0v460h180v-295h65v295h180v-295h65v295h180v-460h-670z" />
    <glyph glyph-name="afii10091" unicode="&#x449;" horiz-adv-x="775" 
d="M585 0h-545v460h180v-295h65v295h180v-295h65v295h180v-295h55v-260h-180v95z" />
    <glyph glyph-name="afii10092" unicode="&#x44a;" 
d="M340 340q43 0 77.5 -12.5t58.5 -35t36.5 -54t12.5 -68.5q0 -38 -12.5 -69t-36.5 -53.5t-58.5 -35t-77.5 -12.5h-245v295h-90v165h270v-120h65zM310 140q15 0 22.5 9.5t7.5 20.5t-7.5 20.5t-22.5 9.5h-40v-60h40z" />
    <glyph glyph-name="afii10093" unicode="&#x44b;" horiz-adv-x="715" 
d="M675 0h-180v460h180v-460zM280 340q43 0 77.5 -12.5t58.5 -35t36.5 -54t12.5 -68.5q0 -38 -12.5 -69t-36.5 -53.5t-58.5 -35t-77.5 -12.5h-240v460h180v-120h60zM255 140q15 0 22.5 9.5t7.5 20.5t-7.5 20.5t-22.5 9.5h-40v-60h40z" />
    <glyph glyph-name="afii10094" unicode="&#x44c;" horiz-adv-x="490" 
d="M290 340q43 0 77.5 -12.5t58.5 -35t36.5 -54t12.5 -68.5q0 -38 -12.5 -69t-36.5 -53.5t-58.5 -35t-77.5 -12.5h-250v460h180v-120h70zM260 140q15 0 22.5 9.5t7.5 20.5t-7.5 20.5t-22.5 9.5h-45v-60h45z" />
    <glyph glyph-name="afii10095" unicode="&#x44d;" horiz-adv-x="520" 
d="M200 285h105q-5 11 -14 20q-8 8 -20 14t-31 6q-17 0 -29 -7.5t-20 -15.5q-10 -10 -16 -22l-165 20q15 47 46 85q13 16 31 31t41 27t52 19.5t65 7.5q52 0 98 -19t79.5 -52t53 -76.5t19.5 -92.5t-19.5 -92.5t-53 -76.5t-79.5 -52t-98 -19q-36 0 -65 7t-52 19t-41 27.5
t-31 31.5q-31 37 -46 85l165 20q6 -13 16 -23q8 -8 20 -15t29 -7q19 0 31 6t20 14q9 9 14 20h-105v110z" />
    <glyph glyph-name="afii10096" unicode="&#x44e;" horiz-adv-x="745" 
d="M420 230q0 -34 18.5 -54.5t41.5 -20.5t41.5 20.5t18.5 54.5t-18.5 54.5t-41.5 20.5t-41.5 -20.5t-18.5 -54.5zM720 230q0 -51 -18.5 -94.5t-51 -76t-76 -51t-94.5 -18.5q-66 0 -109.5 25t-68.5 55q-30 35 -47 80h-35v-150h-180v460h180v-155h30q16 46 46 82q13 15 30 30
t39.5 27t51 19t63.5 7q51 0 94.5 -18.5t76 -51t51 -76t18.5 -94.5z" />
    <glyph glyph-name="afii10097" unicode="&#x44f;" horiz-adv-x="505" 
d="M250 330q-15 0 -25 -10t-10 -25t10 -25t25 -10h35v70h-35zM260 130l-75 -130h-195l105 165l-10 7.5t-22 23.5t-22.5 40.5t-10.5 58.5q0 36 13 66t37 52t59.5 34.5t80.5 12.5h245v-460h-180v130h-25z" />
    <glyph glyph-name="afii10071" unicode="&#x451;" 
d="M460 585q0 -17 -7 -32.5t-18.5 -27t-27 -18.5t-32.5 -7t-32.5 7t-27 18.5t-18.5 27t-7 32.5t7 32.5t18.5 27t27 18.5t32.5 7t32.5 -7t27 -18.5t18.5 -27t7 -32.5zM505 145q-9 -28 -28 -56t-47.5 -50t-67 -35.5t-87.5 -13.5q-53 0 -98.5 19t-79 52t-53 76.5t-19.5 92.5
t19.5 92.5t53 76.5t79 52t98.5 19q51 0 94.5 -18.5t76 -50t51 -73t18.5 -88.5q0 -11 -1 -21t-2 -18q-1 -9 -2 -16h-300q4 -19 21.5 -34.5t43.5 -15.5q15 0 25 4.5t17 10.5q8 6 13 15zM275 330q-23 0 -39.5 -16t-20.5 -39h120q-4 23 -20.5 39t-39.5 16zM260 585
q0 -17 -7 -32.5t-18.5 -27t-27 -18.5t-32.5 -7t-32.5 7t-27 18.5t-18.5 27t-7 32.5t7 32.5t18.5 27t27 18.5t32.5 7t32.5 -7t27 -18.5t18.5 -27t7 -32.5z" />
    <glyph glyph-name="afii10099" unicode="&#x452;" horiz-adv-x="570" 
d="M10 585h55v45h180v-45h95v-140h-95v-65q14 12 32 22q16 8 37.5 15.5t50.5 7.5q39 0 72 -14t57 -42.5t37.5 -72t13.5 -101.5q0 -125 -66 -190t-194 -65v175q75 0 75 70q0 30 -16.5 47.5t-38.5 17.5q-26 0 -43 -17.5t-17 -47.5v-185h-180v445h-55v140z" />
    <glyph glyph-name="afii10100" unicode="&#x453;" horiz-adv-x="410" 
d="M40 0zM400 295h-180v-295h-180v460h360v-165zM200 650h190l-100 -140h-155z" />
    <glyph glyph-name="afii10101" unicode="&#x454;" horiz-adv-x="530" 
d="M320 175h-105q5 -11 14 -20q8 -8 20 -14t31 -6q17 0 29 7t20 15q10 10 16 23l165 -20q-15 -48 -46 -85q-13 -16 -31 -31.5t-41 -27.5t-52 -19t-65 -7q-53 0 -98.5 19t-79 52t-53 76.5t-19.5 92.5t19.5 92.5t53 76.5t79 52t98.5 19q36 0 65 -7.5t52 -19.5t41 -27t31 -31
q31 -38 46 -85l-165 -20q-6 12 -16 22q-8 8 -20 15.5t-29 7.5q-19 0 -31 -6t-20 -14q-9 -9 -14 -20h105v-110z" />
    <glyph glyph-name="afii10102" unicode="&#x455;" horiz-adv-x="460" 
d="M185 155q0 -11 7.5 -20.5t22.5 -9.5q30 0 30 25q0 8 -16 12l-40 10t-51.5 15t-51.5 26t-40 44t-16 68q0 26 13.5 52t39 46.5t61.5 33.5t81 13q51 0 88 -10.5t62.5 -30t41 -46t23.5 -58.5l-170 -20q0 30 -25 30q-8 0 -14 -6t-6 -14t16.5 -12t40.5 -9.5t53 -14.5t53 -25.5
t40.5 -42.5t16.5 -66q0 -30 -14 -58t-40.5 -49.5t-65.5 -34.5t-90 -13q-53 0 -91 10.5t-64 30t-42 46t-23 58.5z" />
    <glyph glyph-name="afii10103" unicode="&#x456;" horiz-adv-x="260" 
d="M220 0h-180v460h180v-460zM35 590q0 38 26.5 64t68.5 26t68.5 -26t26.5 -64t-26.5 -64t-68.5 -26t-68.5 26t-26.5 64z" />
    <glyph glyph-name="afii10104" unicode="&#x457;" horiz-adv-x="280" 
d="M230 0h-180v460h180v-460zM325 585q0 -17 -7 -32.5t-18.5 -27t-27 -18.5t-32.5 -7t-32.5 7t-27 18.5t-18.5 27t-7 32.5t7 32.5t18.5 27t27 18.5t32.5 7t32.5 -7t27 -18.5t18.5 -27t7 -32.5zM125 585q0 -17 -7 -32.5t-18.5 -27t-27 -18.5t-32.5 -7t-32.5 7t-27 18.5
t-18.5 27t-7 32.5t7 32.5t18.5 27t27 18.5t32.5 7t32.5 -7t27 -18.5t18.5 -27t7 -32.5z" />
    <glyph glyph-name="afii10105" unicode="&#x458;" horiz-adv-x="260" 
d="M40 460h180v-440q0 -91 -49 -140.5t-136 -49.5q-19 0 -34.5 2t-26.5 5q-13 4 -24 8v160q5 -2 10 -3t11 -1.5t14 -0.5q55 0 55 60v400zM35 590q0 38 26.5 64t68.5 26t68.5 -26t26.5 -64t-26.5 -64t-68.5 -26t-68.5 26t-26.5 64z" />
    <glyph glyph-name="afii10106" unicode="&#x459;" horiz-adv-x="735" 
d="M535 340q43 0 77.5 -12.5t58.5 -35t36.5 -54t12.5 -68.5q0 -38 -12.5 -69t-36.5 -53.5t-58.5 -35t-77.5 -12.5h-230v295h-50l-10 -145q-5 -75 -46.5 -117.5t-113.5 -42.5q-30 0 -55 5q-13 2 -25 5v155h20q45 0 50 55l20 250h390v-120h50zM505 140q15 0 22.5 9.5t7.5 20.5
t-7.5 20.5t-22.5 9.5h-25v-60h25z" />
    <glyph glyph-name="afii10107" unicode="&#x45a;" horiz-adv-x="735" 
d="M485 460v-130h55q41 0 74.5 -12.5t57 -34.5t36 -52t12.5 -66t-12.5 -66t-36 -52t-57 -34.5t-74.5 -12.5h-235v165h-85v-165h-180v460h180v-130h85v130h180zM510 140q25 0 25 25t-25 25h-30v-50h30z" />
    <glyph glyph-name="afii10108" unicode="&#x45b;" horiz-adv-x="575" 
d="M10 585h55v45h180v-45h95v-140h-95v-65q14 12 32 22q16 8 37.5 15.5t50.5 7.5q37 0 69.5 -13.5t55.5 -39.5t36.5 -63t13.5 -84v-225h-180v185q0 30 -16 47.5t-39 17.5q-26 0 -43 -17.5t-17 -47.5v-185h-180v445h-55v140z" />
    <glyph glyph-name="afii10109" unicode="&#x45c;" horiz-adv-x="510" 
d="M40 0zM320 0l-100 190v-190h-180v460h180v-175l90 175h195l-125 -220l140 -240h-200zM250 650h190l-100 -140h-155z" />
    <glyph glyph-name="afii10110" unicode="&#x45e;" horiz-adv-x="520" 
d="M260 600q11 0 18 5t11 12q4 8 6 18h110q-4 -57 -42.5 -93.5t-102.5 -36.5t-102.5 36.5t-42.5 93.5h110q2 -10 6 -18q4 -7 11 -12t18 -5zM-5 460h190l75 -240l75 240h190l-180 -460q-32 -83 -79 -126.5t-126 -43.5q-30 0 -50 5q-11 2 -20 5v160h40q15 0 25 3.5t17 8.5
q8 5 13 13z" />
    <glyph glyph-name="afii10193" unicode="&#x45f;" horiz-adv-x="545" 
d="M360 -95h-175v95h-145v460h180v-295h105v295h180v-460h-145v-95z" />
    <glyph glyph-name="afii10050" unicode="&#x490;" horiz-adv-x="510" 
d="M50 630h250v110h200v-300h-250v-440h-200v630z" />
    <glyph glyph-name="afii10098" unicode="&#x491;" horiz-adv-x="410" 
d="M400 295h-180v-295h-180v460h180v80h180v-245z" />
    <glyph glyph-name="uni1E9E" unicode="&#x1e9e;" horiz-adv-x="645" 
d="M45 0zM490 370l10 -4t25 -12t32.5 -21t32.5 -32.5t25 -45.5t10 -60q0 -41 -15.5 -77t-43.5 -62t-67.5 -41t-88.5 -15h-100v180h65q19 0 29.5 10t10.5 25t-10.5 25t-29.5 10h-65v110l80 80h-100q-19 0 -32 -12.5t-13 -27.5v-400h-200v400q0 52 16.5 94.5t48 72.5t77 46.5
t103.5 16.5h290v-170z" />
    <glyph glyph-name="endash" unicode="&#x2013;" horiz-adv-x="510" 
d="M470 170h-430v170h430v-170z" />
    <glyph glyph-name="emdash" unicode="&#x2014;" horiz-adv-x="755" 
d="M715 170h-675v170h675v-170z" />
    <glyph glyph-name="quoteleft" unicode="&#x2018;" horiz-adv-x="250" 
d="M125 340q-19 0 -36 8t-30 22.5t-21 35t-8 44.5q0 57 18.5 95t41.5 61q26 27 60 44l35 -50q-14 -7 -26 -18q-11 -9 -20.5 -22t-13.5 -30q42 0 68.5 -26.5t26.5 -68.5t-26.5 -68.5t-68.5 -26.5z" />
    <glyph glyph-name="quoteright" unicode="&#x2019;" horiz-adv-x="250" 
d="M125 650q19 0 36 -8t30 -22.5t21 -35t8 -44.5q0 -57 -18.5 -95t-41.5 -61q-26 -27 -60 -44l-35 50q14 7 26 18q11 9 20.5 22t13.5 30q-42 0 -68.5 26.5t-26.5 68.5t26.5 68.5t68.5 26.5z" />
    <glyph glyph-name="quotesinglbase" unicode="&#x201a;" horiz-adv-x="250" 
d="M125 180q19 0 36 -8t30 -22.5t21 -35t8 -44.5q0 -57 -18.5 -95t-41.5 -61q-26 -27 -60 -44l-35 50q14 7 26 18q11 9 20.5 22t13.5 30q-42 0 -68.5 26.5t-26.5 68.5t26.5 68.5t68.5 26.5z" />
    <glyph glyph-name="quotedblleft" unicode="&#x201c;" horiz-adv-x="470" 
d="M345 340q-19 0 -36 8t-30 22.5t-21 35t-8 44.5q0 57 18.5 95t41.5 61q26 27 60 44l35 -50q-14 -7 -26 -18q-11 -9 -20.5 -22t-13.5 -30q42 0 68.5 -26.5t26.5 -68.5t-26.5 -68.5t-68.5 -26.5zM125 340q-19 0 -36 8t-30 22.5t-21 35t-8 44.5q0 57 18.5 95t41.5 61
q26 27 60 44l35 -50q-14 -7 -26 -18q-11 -9 -20.5 -22t-13.5 -30q42 0 68.5 -26.5t26.5 -68.5t-26.5 -68.5t-68.5 -26.5z" />
    <glyph glyph-name="quotedblright" unicode="&#x201d;" horiz-adv-x="470" 
d="M125 650q19 0 36 -8t30 -22.5t21 -35t8 -44.5q0 -57 -18.5 -95t-41.5 -61q-26 -27 -60 -44l-35 50q14 7 26 18q11 9 20.5 22t13.5 30q-42 0 -68.5 26.5t-26.5 68.5t26.5 68.5t68.5 26.5zM345 650q19 0 36 -8t30 -22.5t21 -35t8 -44.5q0 -57 -18.5 -95t-41.5 -61
q-26 -27 -60 -44l-35 50q14 7 26 18q11 9 20.5 22t13.5 30q-42 0 -68.5 26.5t-26.5 68.5t26.5 68.5t68.5 26.5z" />
    <glyph glyph-name="quotedblbase" unicode="&#x201e;" horiz-adv-x="470" 
d="M125 180q19 0 36 -8t30 -22.5t21 -35t8 -44.5q0 -57 -18.5 -95t-41.5 -61q-26 -27 -60 -44l-35 50q14 7 26 18q11 9 20.5 22t13.5 30q-42 0 -68.5 26.5t-26.5 68.5t26.5 68.5t68.5 26.5zM345 180q19 0 36 -8t30 -22.5t21 -35t8 -44.5q0 -57 -18.5 -95t-41.5 -61
q-26 -27 -60 -44l-35 50q14 7 26 18q11 9 20.5 22t13.5 30q-42 0 -68.5 26.5t-26.5 68.5t26.5 68.5t68.5 26.5z" />
    <glyph glyph-name="dagger" unicode="&#x2020;" horiz-adv-x="465" 
d="M425 365h-105v-215h-175v215h-105v165h105v100h175v-100h105v-165z" />
    <glyph glyph-name="daggerdbl" unicode="&#x2021;" horiz-adv-x="465" 
d="M40 555h105v75h175v-75h105v-135h-105v-60h105v-135h-105v-75h-175v75h-105v135h105v60h-105v135z" />
    <glyph glyph-name="bullet" unicode="&#x2022;" horiz-adv-x="390" 
d="M310 270q0 -23 -9.5 -43.5t-25.5 -36.5t-37 -25.5t-43 -9.5q-23 0 -43.5 9.5t-36.5 25.5t-25.5 36.5t-9.5 43.5q0 22 9.5 43t25.5 37t36.5 25.5t43.5 9.5q22 0 43 -9.5t37 -25.5t25.5 -37t9.5 -43z" />
    <glyph glyph-name="ellipsis" unicode="&#x2026;" horiz-adv-x="730" 
d="M30 85q0 42 26.5 68.5t68.5 26.5t68.5 -26.5t26.5 -68.5t-26.5 -68.5t-68.5 -26.5t-68.5 26.5t-26.5 68.5zM270 85q0 42 26.5 68.5t68.5 26.5t68.5 -26.5t26.5 -68.5t-26.5 -68.5t-68.5 -26.5t-68.5 26.5t-26.5 68.5zM510 85q0 42 26.5 68.5t68.5 26.5t68.5 -26.5
t26.5 -68.5t-26.5 -68.5t-68.5 -26.5t-68.5 26.5t-26.5 68.5z" />
    <glyph glyph-name="perthousand" unicode="&#x2030;" horiz-adv-x="1000" 
d="M80 0l385 630h150l-385 -630h-150zM550 135q0 15 -10 25t-25 10t-25 -10t-10 -25t10 -25t25 -10t25 10t10 25zM365 135q0 30 11.5 56.5t31.5 46t47.5 31t59.5 11.5t59.5 -11.5t47.5 -31t31.5 -46t11.5 -56.5t-11.5 -56.5t-31.5 -46t-47.5 -31t-59.5 -11.5t-59.5 11.5
t-47.5 31t-31.5 46t-11.5 56.5zM615 630l-385 -630h-150l385 630h150zM135 495q0 -15 10 -25t25 -10t25 10t10 25t-10 25t-25 10t-25 -10t-10 -25zM320 495q0 -30 -11.5 -56.5t-31.5 -46t-47.5 -31t-59.5 -11.5t-59.5 11.5t-47.5 31t-31.5 46t-11.5 56.5t11.5 56.5t31.5 46
t47.5 31t59.5 11.5t59.5 -11.5t47.5 -31t31.5 -46t11.5 -56.5zM865 135q0 15 -10 25t-25 10t-25 -10t-10 -25t10 -25t25 -10t25 10t10 25zM680 135q0 30 11.5 56.5t31.5 46t47.5 31t59.5 11.5t59.5 -11.5t47.5 -31t31.5 -46t11.5 -56.5t-11.5 -56.5t-31.5 -46t-47.5 -31
t-59.5 -11.5t-59.5 11.5t-47.5 31t-31.5 46t-11.5 56.5z" />
    <glyph glyph-name="guilsinglleft" unicode="&#x2039;" horiz-adv-x="370" 
d="M220 225l120 -175h-190l-120 175l120 175h190z" />
    <glyph glyph-name="guilsinglright" unicode="&#x203a;" horiz-adv-x="370" 
d="M150 225l-120 175h190l120 -175l-120 -175h-190z" />
    <glyph glyph-name="fraction" unicode="&#x2044;" horiz-adv-x="155" 
d="M-190 0l385 630h150l-385 -630h-150z" />
    <glyph glyph-name="zerosuperior" unicode="&#x2070;" horiz-adv-x="340" 
d="M145 565q0 -26 8.5 -38t16.5 -12t16.5 12t8.5 38t-8.5 38t-16.5 12t-16.5 -12t-8.5 -38zM20 565q0 36 11.5 65.5t31.5 50.5t47.5 32.5t59.5 11.5t59.5 -11.5t47.5 -32.5t31.5 -50.5t11.5 -65.5t-11.5 -65.5t-31.5 -50.5t-47.5 -32.5t-59.5 -11.5t-59.5 11.5t-47.5 32.5
t-31.5 50.5t-11.5 65.5z" />
    <glyph glyph-name="foursuperior" unicode="&#x2074;" horiz-adv-x="305" 
d="M290 470h-30v-60h-125v60h-135v70l110 180h150v-150h30v-100zM150 560v65l-40 -65h40z" />
    <glyph glyph-name="fivesuperior" unicode="&#x2075;" horiz-adv-x="305" 
d="M180 615q53 0 84 -29t31 -71q0 -45 -36.5 -77.5t-108.5 -32.5q-68 0 -100 26.5t-40 68.5l120 10q1 -4 4 -8q5 -7 16 -7q8 0 14 7t6 18t-6 18t-14 7q-6 0 -10 -2.5t-7 -5.5q-4 -4 -5 -7h-108l25 190h225v-80h-125l-5 -30q4 1 9 2t12.5 2t18.5 1z" />
    <glyph glyph-name="sixsuperior" unicode="&#x2076;" horiz-adv-x="300" 
d="M150 405q-32 0 -58 9.5t-44 26t-28 38.5t-10 46q0 20 6 39.5t14 33.5q9 17 20 32l64 90h131l-60 -85q45 -4 75 -34.5t30 -75.5q0 -24 -10 -46t-28 -38.5t-44 -26t-58 -9.5zM170 525q0 11 -6 18t-14 7t-14 -7t-6 -18t6 -18t14 -7t14 7t6 18z" />
    <glyph glyph-name="sevensuperior" unicode="&#x2077;" horiz-adv-x="275" 
d="M265 720v-90l-100 -220h-130l90 200h-105v110h245z" />
    <glyph glyph-name="eightsuperior" unicode="&#x2078;" horiz-adv-x="310" 
d="M155 535q-25 0 -25 -25t25 -25t25 25t-25 25zM155 405q-75 0 -110 29t-35 71q0 17 7 29t15 20q10 10 23 16q-10 6 -18 16q-7 8 -12 20t-5 29t8.5 33t25.5 29t42 20.5t59 7.5t59 -7.5t42 -20.5t25.5 -29t8.5 -33t-5.5 -29t-12.5 -20q-8 -10 -17 -16q12 -6 22 -16
q8 -8 15.5 -20t7.5 -29q0 -42 -35 -71t-110 -29zM155 605q8 0 14 6t6 14t-6 14t-14 6t-14 -6t-6 -14t6 -14t14 -6z" />
    <glyph glyph-name="ninesuperior" unicode="&#x2079;" horiz-adv-x="300" 
d="M150 725q32 0 58 -9.5t44 -26t28 -38.5t10 -46q0 -21 -6 -40t-14 -33q-9 -17 -20 -32l-64 -90h-131l60 85q-45 4 -75 34.5t-30 75.5q0 24 10 46t28 38.5t44 26t58 9.5zM130 605q0 -11 6 -18t14 -7t14 7t6 18t-6 18t-14 7t-14 -7t-6 -18z" />
    <glyph glyph-name="zeroinferior" unicode="&#x2080;" horiz-adv-x="340" 
d="M145 60q0 -26 8.5 -38t16.5 -12t16.5 12t8.5 38t-8.5 38t-16.5 12t-16.5 -12t-8.5 -38zM20 60q0 36 11.5 65.5t31.5 50.5t47.5 32.5t59.5 11.5t59.5 -11.5t47.5 -32.5t31.5 -50.5t11.5 -65.5t-11.5 -65.5t-31.5 -50.5t-47.5 -32.5t-59.5 -11.5t-59.5 11.5t-47.5 32.5
t-31.5 50.5t-11.5 65.5z" />
    <glyph glyph-name="oneinferior" unicode="&#x2081;" horiz-adv-x="275" 
d="M215 215v-310h-125v165l-25 -15l-55 85l120 75h85z" />
    <glyph glyph-name="twoinferior" unicode="&#x2082;" horiz-adv-x="289" 
d="M274 5v-100h-260v80l115 90q7 6 12 12q5 5 9 11t4 12q0 15 -15 15q-8 0 -14 -7t-6 -18l-109 10q7 49 41 79.5t98 30.5t97 -29t33 -71q0 -15 -6 -29t-15 -26t-19.5 -22.5t-19.5 -17.5l-25 -20h80z" />
    <glyph glyph-name="threeinferior" unicode="&#x2083;" horiz-adv-x="295" 
d="M5 120q8 45 40.5 72.5t104.5 27.5q32 0 56 -7.5t40.5 -20.5t25 -29t8.5 -33t-6 -29t-14 -20q-9 -10 -20 -16q12 -6 22 -16q8 -8 15.5 -20t7.5 -29q0 -42 -33.5 -71t-101.5 -29q-75 0 -109 27.5t-41 72.5l120 10q-1 -6 2 -10q4 -10 18 -10q8 0 14 3.5t6 11.5t-6 11.5
t-14 3.5h-30v80h25q8 0 14 3.5t6 11.5t-6 11.5t-14 3.5q-14 0 -18 -10q-3 -4 -2 -10z" />
    <glyph glyph-name="fourinferior" unicode="&#x2084;" horiz-adv-x="305" 
d="M290 -35h-30v-60h-125v60h-135v70l110 180h150v-150h30v-100zM150 55v65l-40 -65h40z" />
    <glyph glyph-name="fiveinferior" unicode="&#x2085;" horiz-adv-x="305" 
d="M180 110q53 0 84 -29t31 -71q0 -45 -36.5 -77.5t-108.5 -32.5q-68 0 -100 26.5t-40 68.5l120 10q1 -4 4 -8q5 -7 16 -7q8 0 14 7t6 18t-6 18t-14 7q-6 0 -10 -2.5t-7 -5.5q-4 -4 -5 -7h-108l25 190h225v-80h-125l-5 -30q4 1 9 2t12.5 2t18.5 1z" />
    <glyph glyph-name="sixinferior" unicode="&#x2086;" horiz-adv-x="300" 
d="M150 -100q-32 0 -58 9.5t-44 26t-28 38.5t-10 46q0 20 6 39.5t14 33.5q9 17 20 32l64 90h131l-60 -85q45 -4 75 -34.5t30 -75.5q0 -24 -10 -46t-28 -38.5t-44 -26t-58 -9.5zM170 20q0 11 -6 18t-14 7t-14 -7t-6 -18t6 -18t14 -7t14 7t6 18z" />
    <glyph glyph-name="seveninferior" unicode="&#x2087;" horiz-adv-x="275" 
d="M265 215v-90l-100 -220h-130l90 200h-105v110h245z" />
    <glyph glyph-name="eightinferior" unicode="&#x2088;" horiz-adv-x="310" 
d="M155 30q-25 0 -25 -25t25 -25t25 25t-25 25zM155 -100q-75 0 -110 29t-35 71q0 17 7 29t15 20q10 10 23 16q-10 6 -18 16q-7 8 -12 20t-5 29t8.5 33t25.5 29t42 20.5t59 7.5t59 -7.5t42 -20.5t25.5 -29t8.5 -33t-5.5 -29t-12.5 -20q-8 -10 -17 -16q12 -6 22 -16
q8 -8 15.5 -20t7.5 -29q0 -42 -35 -71t-110 -29zM155 100q8 0 14 6t6 14t-6 14t-14 6t-14 -6t-6 -14t6 -14t14 -6z" />
    <glyph glyph-name="nineinferior" unicode="&#x2089;" horiz-adv-x="300" 
d="M150 220q32 0 58 -9.5t44 -26t28 -38.5t10 -46q0 -21 -6 -40t-14 -33q-9 -17 -20 -32l-64 -90h-131l60 85q-45 4 -75 34.5t-30 75.5q0 24 10 46t28 38.5t44 26t58 9.5zM130 100q0 -11 6 -18t14 -7t14 7t6 18t-6 18t-14 7t-14 -7t-6 -18z" />
    <glyph glyph-name="Euro" unicode="&#x20ac;" horiz-adv-x="715" 
d="M10 300h50v30h-50v85h65q23 63 65 112q18 21 41.5 41.5t53.5 36t67.5 25.5t82.5 10q49 0 88 -10t70 -25.5t54 -36t40 -41.5q40 -49 58 -112l-200 -20q-11 18 -27 32q-14 12 -34.5 22.5t-48.5 10.5q-25 0 -43 -7.5t-31 -15.5q-15 -10 -26 -22h125v-85h-155v-30h155v-85
h-125q11 -13 26 -23q13 -8 31 -15t43 -7q28 0 48.5 10t34.5 22q16 14 27 33l200 -20q-18 -64 -58 -113q-17 -21 -40 -41t-54 -36t-70 -25.5t-88 -9.5q-45 0 -82.5 9.5t-67.5 25.5t-53.5 36t-41.5 41q-42 49 -65 113h-65v85z" />
    <glyph glyph-name="uni20B4" unicode="&#x20b4;" horiz-adv-x="570" 
d="M35 210v85h500v-85h-239q-9 -7 -16 -13q-6 -6 -10.5 -12.5t-4.5 -14.5q0 -15 10 -22.5t25 -7.5q19 0 32 13.5t13 36.5l185 -20q-4 -39 -20 -72t-46.5 -57t-76 -37.5t-107.5 -13.5q-56 0 -99 13.5t-72 36t-44 51.5t-15 59q0 13 3 24t7 19q4 10 10 17h-35zM535 420v-85
h-500v85h240q8 5 15 12q5 5 10 12.5t5 15.5q0 15 -10 22.5t-25 7.5q-19 0 -32 -13.5t-13 -36.5l-185 20q4 39 20 72t46.5 57t76 37.5t107.5 13.5q56 0 99 -14t72 -36.5t44 -51t15 -58.5q0 -14 -3 -24.5t-7 -18.5q-4 -10 -10 -17h35z" />
    <glyph glyph-name="uni20BD" unicode="&#x20bd;" horiz-adv-x="595" 
d="M25 375h55v255h245q60 0 106.5 -15.5t78.5 -42.5t48.5 -62.5t16.5 -74.5t-16.5 -74.5t-48.5 -62.5t-78.5 -42.5t-106.5 -15.5h-45v-30h150v-130h-150v-80h-200v80h-55v130h55v30h-55v135zM305 375q26 0 43 16t17 39t-17 39t-43 16h-25v-110h25z" />
    <glyph glyph-name="afii61352" unicode="&#x2116;" horiz-adv-x="1050" 
d="M650 630v-630h-190l-210 300v-300h-200v630h190l210 -300v300h200zM825 335q0 -15 10 -25t25 -10t25 10t10 25t-10 25t-25 10t-25 -10t-10 -25zM1020 335q0 -32 -12.5 -60t-34 -49t-50.5 -33.5t-63 -12.5t-63 12.5t-50.5 33.5t-34 49t-12.5 60t12.5 60t34 49t50.5 33.5
t63 12.5t63 -12.5t50.5 -33.5t34 -49t12.5 -60zM1010 0h-300v140h300v-140z" />
    <glyph glyph-name="trademark" unicode="&#x2122;" horiz-adv-x="660" 
d="M400 480v-115h-110v265h100l65 -95l65 95h100v-265h-110v115l-40 -60h-30zM80 365v160h-70v105h250v-105h-70v-160h-110z" />
    <glyph glyph-name="arrowleft" unicode="&#x2190;" horiz-adv-x="1000" 
d="M425 165v-210l-355 355l355 355v-210l-70 -70h575v-150h-575z" />
    <glyph glyph-name="arrowup" unicode="&#x2191;" horiz-adv-x="1000" 
d="M575 465v-575h-150v575l-70 -70h-210l355 355l355 -355h-210z" />
    <glyph glyph-name="arrowright" unicode="&#x2192;" horiz-adv-x="1000" 
d="M645 235h-575v150h575l-70 70v210l355 -355l-355 -355v210z" />
    <glyph glyph-name="arrowdown" unicode="&#x2193;" horiz-adv-x="1000" 
d="M645 245h210l-355 -355l-355 355h210l70 -70v575h150v-575z" />
    <glyph glyph-name="arrowboth" unicode="&#x2194;" horiz-adv-x="1000" 
d="M355 235l70 -70v-210l-355 355l355 355v-210l-70 -70h290l-70 70v210l355 -355l-355 -355v210l70 70h-290z" />
    <glyph glyph-name="arrowupdn" unicode="&#x2195;" horiz-adv-x="1000" 
d="M575 175l70 70h210l-355 -355l-355 355h210l70 -70v290l-70 -70h-210l355 355l355 -355h-210l-70 70v-290z" />
    <glyph glyph-name="uni2196" unicode="&#x2196;" horiz-adv-x="1000" 
d="M830 85l-105 -105l-405 405v-95l-150 -150v500h500l-150 -150h-95z" />
    <glyph glyph-name="uni2197" unicode="&#x2197;" horiz-adv-x="1000" 
d="M575 490h-95l-150 150h500v-500l-150 150v95l-405 -405l-105 105z" />
    <glyph glyph-name="uni2198" unicode="&#x2198;" horiz-adv-x="1000" 
d="M170 535l105 105l405 -405v95l150 150v-500h-500l150 150h95z" />
    <glyph glyph-name="uni2199" unicode="&#x2199;" horiz-adv-x="1000" 
d="M425 130h95l150 -150h-500v500l150 -150v-95l405 405l105 -105z" />
    <glyph glyph-name="minus" unicode="&#x2212;" horiz-adv-x="480" 
d="M440 170h-400v170h400v-170z" />
    <glyph glyph-name="approxequal" unicode="&#x2248;" horiz-adv-x="480" 
d="M470 235q0 -75 -40.5 -117.5t-104.5 -42.5q-26 0 -47 7t-38 15.5t-30.5 15.5t-24.5 7q-32 0 -40 -40l-135 10q0 75 40.5 117.5t104.5 42.5q26 0 47 -7t38 -15.5t30.5 -15.5t24.5 -7q32 0 40 40zM470 440q0 -75 -40.5 -117.5t-104.5 -42.5q-26 0 -47 7t-38 15.5
t-30.5 15.5t-24.5 7q-32 0 -40 -40l-135 10q0 75 40.5 117.5t104.5 42.5q26 0 47 -7t38 -15.5t30.5 -15.5t24.5 -7q32 0 40 40z" />
    <glyph glyph-name="notequal" unicode="&#x2260;" horiz-adv-x="480" 
d="M60 5l30 75h-60v145h120l25 60h-145v145h200l30 75h160l-30 -75h60v-145h-120l-25 -60h145v-145h-200l-30 -75h-160z" />
    <glyph glyph-name="lessequal" unicode="&#x2264;" horiz-adv-x="475" 
d="M230 320l205 -50v-140l-395 120v140l395 120v-140zM435 120v-120h-395v120h395z" />
    <glyph glyph-name="greaterequal" unicode="&#x2265;" horiz-adv-x="475" 
d="M40 370v140l395 -120v-140l-395 -120v140l205 50zM435 120v-120h-395v120h395z" />
    <glyph glyph-name="uni2460" unicode="&#x2460;" horiz-adv-x="1000" 
d="M60 320q0 92 34.5 172t94 139.5t139.5 94t172 34.5t172 -34.5t139.5 -94t94 -139.5t34.5 -172t-34.5 -172t-94 -139.5t-139.5 -94t-172 -34.5t-172 34.5t-139.5 94t-94 139.5t-34.5 172zM220 320q0 -58 22 -109t60 -89t89 -60t109 -22t109 22t89 60t60 89t22 109t-22 109
t-60 89t-89 60t-109 22t-109 -22t-89 -60t-60 -89t-22 -109zM580 520v-400h-130v250l-40 -25l-60 95l120 80h110z" />
    <glyph glyph-name="uni2461" unicode="&#x2461;" horiz-adv-x="1000" 
d="M60 320q0 92 34.5 172t94 139.5t139.5 94t172 34.5t172 -34.5t139.5 -94t94 -139.5t34.5 -172t-34.5 -172t-94 -139.5t-139.5 -94t-172 -34.5t-172 34.5t-139.5 94t-94 139.5t-34.5 172zM220 320q0 -58 22 -109t60 -89t89 -60t109 -22t109 22t89 60t60 89t22 109t-22 109
t-60 89t-89 60t-109 22t-109 -22t-89 -60t-60 -89t-22 -109zM655 240v-120h-300v80l145 150q3 5 7 10q3 5 5.5 11t2.5 14q0 15 -6 20t-14 5q-25 0 -25 -35l-125 15q2 30 13.5 55.5t32 44.5t48 29.5t61.5 10.5q75 0 115 -36t40 -89q0 -25 -8.5 -45.5t-19.5 -36.5
q-12 -18 -27 -33l-50 -50h105z" />
    <glyph glyph-name="uni2462" unicode="&#x2462;" horiz-adv-x="1000" 
d="M60 320q0 92 34.5 172t94 139.5t139.5 94t172 34.5t172 -34.5t139.5 -94t94 -139.5t34.5 -172t-34.5 -172t-94 -139.5t-139.5 -94t-172 -34.5t-172 34.5t-139.5 94t-94 139.5t-34.5 172zM220 320q0 -58 22 -109t60 -89t89 -60t109 -22t109 22t89 60t60 89t22 109t-22 109
t-60 89t-89 60t-109 22t-109 -22t-89 -60t-60 -89t-22 -109zM340 400q2 26 14 49.5t32.5 41.5t49 28.5t64.5 10.5q37 0 66 -9.5t49 -25.5t30 -37t10 -43q0 -23 -8.5 -38.5t-19.5 -26.5q-12 -12 -27 -20q18 -8 32 -21q12 -11 22.5 -29.5t10.5 -44.5q0 -24 -11 -47t-31.5 -40
t-50.5 -27.5t-67 -10.5q-39 0 -70 10.5t-52.5 29t-33.5 43t-14 52.5l130 15q0 -10 4 -18q3 -7 9 -12t17 -5q30 0 30 25t-30 25h-40v100h40q8 0 14 4.5t6 15.5t-6 15.5t-14 4.5t-12.5 -5t-7.5 -10q-4 -7 -5 -15z" />
    <glyph glyph-name="uni2463" unicode="&#x2463;" horiz-adv-x="1000" 
d="M60 320q0 92 34.5 172t94 139.5t139.5 94t172 34.5t172 -34.5t139.5 -94t94 -139.5t34.5 -172t-34.5 -172t-94 -139.5t-139.5 -94t-172 -34.5t-172 34.5t-139.5 94t-94 139.5t-34.5 172zM220 320q0 -58 22 -109t60 -89t89 -60t109 -22t109 22t89 60t60 89t22 109t-22 109
t-60 89t-89 60t-109 22t-109 -22t-89 -60t-60 -89t-22 -109zM660 180h-40v-60h-130v60h-165v110l149 230h146v-220h40v-120zM450 300h50v75z" />
    <glyph glyph-name="uni2464" unicode="&#x2464;" horiz-adv-x="1000" 
d="M60 320q0 92 34.5 172t94 139.5t139.5 94t172 34.5t172 -34.5t139.5 -94t94 -139.5t34.5 -172t-34.5 -172t-94 -139.5t-139.5 -94t-172 -34.5t-172 34.5t-139.5 94t-94 139.5t-34.5 172zM220 320q0 -58 22 -109t60 -89t89 -60t109 -22t109 22t89 60t60 89t22 109t-22 109
t-60 89t-89 60t-109 22t-109 -22t-89 -60t-60 -89t-22 -109zM535 390q28 0 52 -10t41 -27.5t27 -42.5t10 -55q0 -64 -42.5 -104.5t-117.5 -40.5q-38 0 -67.5 10.5t-50.5 28.5t-33 41.5t-14 49.5l130 10q2 -8 6 -13q3 -5 8.5 -8.5t15.5 -3.5q11 0 20.5 8t9.5 27t-9.5 27
t-20.5 8q-10 0 -15.5 -3t-8.5 -7q-4 -4 -6 -10h-120l30 245h255v-105h-150l-5 -35q6 2 14 5q7 2 17 3.5t24 1.5z" />
    <glyph glyph-name="uni2465" unicode="&#x2465;" horiz-adv-x="1000" 
d="M60 320q0 92 34.5 172t94 139.5t139.5 94t172 34.5t172 -34.5t139.5 -94t94 -139.5t34.5 -172t-34.5 -172t-94 -139.5t-139.5 -94t-172 -34.5t-172 34.5t-139.5 94t-94 139.5t-34.5 172zM220 320q0 -58 22 -109t60 -89t89 -60t109 -22t109 22t89 60t60 89t22 109t-22 109
t-60 89t-89 60t-109 22t-109 -22t-89 -60t-60 -89t-22 -109zM500 110q-38 0 -68 11.5t-52 31.5t-33.5 47.5t-11.5 59.5q0 28 9.5 54.5t20.5 46.5q13 24 30 44l80 115h140l-80 -115q56 -8 93 -46.5t37 -98.5q0 -32 -11.5 -59.5t-33.5 -47.5t-52.5 -31.5t-67.5 -11.5zM470 260
q0 -15 9.5 -22.5t20.5 -7.5t20.5 7.5t9.5 22.5t-9.5 22.5t-20.5 7.5t-20.5 -7.5t-9.5 -22.5z" />
    <glyph glyph-name="uni2466" unicode="&#x2466;" horiz-adv-x="1000" 
d="M60 320q0 92 34.5 172t94 139.5t139.5 94t172 34.5t172 -34.5t139.5 -94t94 -139.5t34.5 -172t-34.5 -172t-94 -139.5t-139.5 -94t-172 -34.5t-172 34.5t-139.5 94t-94 139.5t-34.5 172zM220 320q0 -58 22 -109t60 -89t89 -60t109 -22t109 22t89 60t60 89t22 109t-22 109
t-60 89t-89 60t-109 22t-109 -22t-89 -60t-60 -89t-22 -109zM650 520v-105l-140 -295h-140l135 280h-145v120h290z" />
    <glyph glyph-name="uni2467" unicode="&#x2467;" horiz-adv-x="1000" 
d="M60 320q0 92 34.5 172t94 139.5t139.5 94t172 34.5t172 -34.5t139.5 -94t94 -139.5t34.5 -172t-34.5 -172t-94 -139.5t-139.5 -94t-172 -34.5t-172 34.5t-139.5 94t-94 139.5t-34.5 172zM220 320q0 -58 22 -109t60 -89t89 -60t109 -22t109 22t89 60t60 89t22 109t-22 109
t-60 89t-89 60t-109 22t-109 -22t-89 -60t-60 -89t-22 -109zM500 215q11 0 20.5 7.5t9.5 22.5t-9.5 22.5t-20.5 7.5t-20.5 -7.5t-9.5 -22.5t9.5 -22.5t20.5 -7.5zM500 380q25 0 25 25t-25 25t-25 -25t25 -25zM500 110q-41 0 -73 10.5t-53.5 28.5t-32.5 41.5t-11 49.5
t10 44.5t22 29.5q14 13 33 21q-14 8 -25 19q-10 10 -17.5 25t-7.5 36q0 22 10 43t30 37t48.5 25.5t66.5 9.5q37 0 66 -9.5t49 -25.5t30 -37t10 -43q0 -21 -8 -36t-17 -25q-11 -11 -25 -19q18 -8 32 -21q12 -11 22.5 -29.5t10.5 -44.5t-11 -49.5t-32.5 -41.5t-53.5 -28.5
t-73 -10.5z" />
    <glyph glyph-name="uni2468" unicode="&#x2468;" horiz-adv-x="1000" 
d="M940 320q0 -92 -34.5 -172t-94 -139.5t-139.5 -94t-172 -34.5t-172 34.5t-139.5 94t-94 139.5t-34.5 172t34.5 172t94 139.5t139.5 94t172 34.5t172 -34.5t139.5 -94t94 -139.5t34.5 -172zM780 320q0 58 -22 109t-60 89t-89 60t-109 22t-109 -22t-89 -60t-60 -89
t-22 -109t22 -109t60 -89t89 -60t109 -22t109 22t89 60t60 89t22 109zM500 530q37 0 67.5 -11.5t52.5 -31.5t33.5 -47.5t11.5 -59.5q0 -29 -9.5 -55t-20.5 -46q-13 -24 -30 -44l-80 -115h-140l80 115q-28 4 -52 15.5t-41 30.5t-27 44t-10 55q0 32 11.5 59.5t33.5 47.5
t52 31.5t68 11.5zM530 380q0 15 -9.5 22.5t-20.5 7.5t-20.5 -7.5t-9.5 -22.5t9.5 -22.5t20.5 -7.5t20.5 7.5t9.5 22.5z" />
    <glyph glyph-name="uni24EA" unicode="&#x24ea;" horiz-adv-x="1000" 
d="M940 320q0 -92 -34.5 -172t-94 -139.5t-139.5 -94t-172 -34.5t-172 34.5t-139.5 94t-94 139.5t-34.5 172t34.5 172t94 139.5t139.5 94t172 34.5t172 -34.5t139.5 -94t94 -139.5t34.5 -172zM780 320q0 58 -22 109t-60 89t-89 60t-109 22t-109 -22t-89 -60t-60 -89
t-22 -109t22 -109t60 -89t89 -60t109 -22t109 22t89 60t60 89t22 109zM555 320q0 49 -16 69.5t-39 20.5t-39 -20.5t-16 -69.5t16 -69.5t39 -20.5t39 20.5t16 69.5zM685 320q0 -49 -14 -88t-39 -66t-59 -41.5t-73 -14.5t-73 14.5t-59 41.5t-39 66t-14 88t14 88t39 66t59 41.5
t73 14.5t73 -14.5t59 -41.5t39 -66t14 -88z" />
    <glyph glyph-name="uni24FF" unicode="&#x24ff;" horiz-adv-x="1000" 
d="M940 320q0 -92 -34.5 -172t-94 -139.5t-139.5 -94t-172 -34.5t-172 34.5t-139.5 94t-94 139.5t-34.5 172t34.5 172t94 139.5t139.5 94t172 34.5t172 -34.5t139.5 -94t94 -139.5t34.5 -172zM555 320q0 -49 -16 -69.5t-39 -20.5t-39 20.5t-16 69.5t16 69.5t39 20.5
t39 -20.5t16 -69.5zM685 320q0 49 -14 88t-39 66t-59 41.5t-73 14.5t-73 -14.5t-59 -41.5t-39 -66t-14 -88t14 -88t39 -66t59 -41.5t73 -14.5t73 14.5t59 41.5t39 66t14 88z" />
    <glyph glyph-name="uni2776" unicode="&#x2776;" horiz-adv-x="1000" 
d="M60 320q0 92 34.5 172t94 139.5t139.5 94t172 34.5t172 -34.5t139.5 -94t94 -139.5t34.5 -172t-34.5 -172t-94 -139.5t-139.5 -94t-172 -34.5t-172 34.5t-139.5 94t-94 139.5t-34.5 172zM470 520l-120 -80l60 -95l40 25v-250h130v400h-110z" />
    <glyph glyph-name="uni2777" unicode="&#x2777;" horiz-adv-x="1000" 
d="M60 320q0 92 34.5 172t94 139.5t139.5 94t172 34.5t172 -34.5t139.5 -94t94 -139.5t34.5 -172t-34.5 -172t-94 -139.5t-139.5 -94t-172 -34.5t-172 34.5t-139.5 94t-94 139.5t-34.5 172zM550 240l50 50q15 15 27 33q11 16 19.5 36.5t8.5 45.5q0 53 -40 89t-115 36
q-34 0 -61.5 -10.5t-48 -29.5t-32 -44.5t-13.5 -55.5l125 -15q0 35 25 35q8 0 14 -5t6 -20q0 -8 -2.5 -14t-5.5 -11q-4 -5 -7 -10l-145 -150v-80h300v120h-105z" />
    <glyph glyph-name="uni2778" unicode="&#x2778;" horiz-adv-x="1000" 
d="M60 320q0 92 34.5 172t94 139.5t139.5 94t172 34.5t172 -34.5t139.5 -94t94 -139.5t34.5 -172t-34.5 -172t-94 -139.5t-139.5 -94t-172 -34.5t-172 34.5t-139.5 94t-94 139.5t-34.5 172zM470 385q1 8 5 15q3 5 7.5 10t12.5 5t14 -4.5t6 -15.5t-6 -15.5t-14 -4.5h-40v-100
h40q30 0 30 -25t-30 -25q-11 0 -17 5t-9 12q-4 8 -4 18l-130 -15q2 -28 14 -52.5t33.5 -43t52.5 -29t70 -10.5q37 0 67 10.5t50.5 27.5t31.5 40t11 47q0 26 -10.5 44.5t-22.5 29.5q-14 13 -32 21q15 8 27 20q11 11 19.5 26.5t8.5 38.5q0 22 -10 43t-30 37t-49 25.5t-66 9.5
q-36 0 -64.5 -10.5t-49 -28.5t-32.5 -41.5t-14 -49.5z" />
    <glyph glyph-name="uni2779" unicode="&#x2779;" horiz-adv-x="1000" 
d="M60 320q0 92 34.5 172t94 139.5t139.5 94t172 34.5t172 -34.5t139.5 -94t94 -139.5t34.5 -172t-34.5 -172t-94 -139.5t-139.5 -94t-172 -34.5t-172 34.5t-139.5 94t-94 139.5t-34.5 172zM660 300h-40v220h-146l-149 -230v-110h165v-60h130v60h40v120zM500 375v-75h-50z
" />
    <glyph glyph-name="uni277A" unicode="&#x277a;" horiz-adv-x="1000" 
d="M60 320q0 92 34.5 172t94 139.5t139.5 94t172 34.5t172 -34.5t139.5 -94t94 -139.5t34.5 -172t-34.5 -172t-94 -139.5t-139.5 -94t-172 -34.5t-172 34.5t-139.5 94t-94 139.5t-34.5 172zM535 390q-14 0 -24 -1.5t-17 -3.5q-8 -3 -14 -5l5 35h150v105h-255l-30 -245h120
q2 6 6 10q3 4 8.5 7t15.5 3q11 0 20.5 -8t9.5 -27t-9.5 -27t-20.5 -8q-10 0 -15.5 3.5t-8.5 8.5q-4 5 -6 13l-130 -10q2 -26 14 -49.5t33 -41.5t50.5 -28.5t67.5 -10.5q75 0 117.5 40.5t42.5 104.5q0 30 -10 55t-27 42.5t-41 27.5t-52 10z" />
    <glyph glyph-name="uni277B" unicode="&#x277b;" horiz-adv-x="1000" 
d="M60 320q0 92 34.5 172t94 139.5t139.5 94t172 34.5t172 -34.5t139.5 -94t94 -139.5t34.5 -172t-34.5 -172t-94 -139.5t-139.5 -94t-172 -34.5t-172 34.5t-139.5 94t-94 139.5t-34.5 172zM500 110q37 0 67.5 11.5t52.5 31.5t33.5 47.5t11.5 59.5q0 60 -37 98.5t-93 46.5
l80 115h-140l-80 -115q-17 -20 -30 -44q-11 -20 -20.5 -46.5t-9.5 -54.5q0 -32 11.5 -59.5t33.5 -47.5t52 -31.5t68 -11.5zM470 260q0 15 9.5 22.5t20.5 7.5t20.5 -7.5t9.5 -22.5t-9.5 -22.5t-20.5 -7.5t-20.5 7.5t-9.5 22.5z" />
    <glyph glyph-name="uni277C" unicode="&#x277c;" horiz-adv-x="1000" 
d="M60 320q0 92 34.5 172t94 139.5t139.5 94t172 34.5t172 -34.5t139.5 -94t94 -139.5t34.5 -172t-34.5 -172t-94 -139.5t-139.5 -94t-172 -34.5t-172 34.5t-139.5 94t-94 139.5t-34.5 172zM360 520v-120h145l-135 -280h140l140 295v105h-290z" />
    <glyph glyph-name="uni277D" unicode="&#x277d;" horiz-adv-x="1000" 
d="M60 320q0 92 34.5 172t94 139.5t139.5 94t172 34.5t172 -34.5t139.5 -94t94 -139.5t34.5 -172t-34.5 -172t-94 -139.5t-139.5 -94t-172 -34.5t-172 34.5t-139.5 94t-94 139.5t-34.5 172zM500 215q-11 0 -20.5 7.5t-9.5 22.5t9.5 22.5t20.5 7.5t20.5 -7.5t9.5 -22.5
t-9.5 -22.5t-20.5 -7.5zM500 380q-25 0 -25 25t25 25t25 -25t-25 -25zM500 110q41 0 73 10.5t53.5 28.5t32.5 41.5t11 49.5t-10.5 44.5t-22.5 29.5q-14 13 -32 21q14 8 25 19q9 10 17 25t8 36q0 22 -10 43t-30 37t-49 25.5t-66 9.5q-38 0 -66.5 -9.5t-48.5 -25.5t-30 -37
t-10 -43q0 -21 7.5 -36t17.5 -25q11 -11 25 -19q-19 -8 -33 -21q-12 -11 -22 -29.5t-10 -44.5t11 -49.5t32.5 -41.5t53.5 -28.5t73 -10.5z" />
    <glyph glyph-name="uni277E" unicode="&#x277e;" horiz-adv-x="1000" 
d="M940 320q0 -92 -34.5 -172t-94 -139.5t-139.5 -94t-172 -34.5t-172 34.5t-139.5 94t-94 139.5t-34.5 172t34.5 172t94 139.5t139.5 94t172 34.5t172 -34.5t139.5 -94t94 -139.5t34.5 -172zM500 530q-38 0 -68 -11.5t-52 -31.5t-33.5 -47.5t-11.5 -59.5q0 -30 10 -55
t27 -44t41 -30.5t52 -15.5l-80 -115h140l80 115q17 20 30 44q11 20 20.5 46t9.5 55q0 32 -11.5 59.5t-33.5 47.5t-52.5 31.5t-67.5 11.5zM530 380q0 -15 -9.5 -22.5t-20.5 -7.5t-20.5 7.5t-9.5 22.5t9.5 22.5t20.5 7.5t20.5 -7.5t9.5 -22.5z" />
    <glyph glyph-name="commaaccent" unicode="&#xf6c3;" horiz-adv-x="220" 
d="M110 -45q34 0 57 -25t23 -70q0 -49 -16.5 -80.5t-36.5 -50.5q-23 -22 -52 -34l-25 45q11 6 21 14q8 7 16.5 17t12.5 24q-34 0 -57 23t-23 57t23 57t57 23z" />
    <glyph glyph-name="cyrBreve" unicode="&#xf6d1;" horiz-adv-x="380" 
d="M190 680q-72 0 -114 40.5t-46 104.5h120q2 -11 7 -20q5 -8 12 -14t21 -6q13 0 20.5 6t12.5 14q5 9 7 20h120q-4 -64 -46 -104.5t-114 -40.5z" />
    <glyph glyph-name="cyrbreve" unicode="&#xf6d4;" horiz-adv-x="350" 
d="M175 600q11 0 18 5t11 12q4 8 6 18h110q-4 -57 -42.5 -93.5t-102.5 -36.5t-102.5 36.5t-42.5 93.5h110q2 -10 6 -18q4 -7 11 -12t18 -5z" />
    <glyph glyph-name="zero.osf" unicode="&#xf730;" horiz-adv-x="590" 
d="M350 230q0 23 -14.5 36.5t-40.5 13.5t-40.5 -13.5t-14.5 -36.5t14.5 -36.5t40.5 -13.5t40.5 13.5t14.5 36.5zM550 230q0 -56 -20 -100t-55 -75.5t-81.5 -48t-98.5 -16.5q-56 0 -103 18.5t-81 51t-52.5 76t-18.5 94.5t18.5 94.5t52.5 76t81 51t103 18.5q52 0 98.5 -16.5
t81.5 -48t55 -76t20 -99.5z" />
    <glyph glyph-name="one.osf" unicode="&#xf731;" horiz-adv-x="390" 
d="M340 460v-460h-200v250l-60 -40l-90 130l180 120h170z" />
    <glyph glyph-name="two.osf" unicode="&#xf732;" horiz-adv-x="490" 
d="M450 300q0 -34 -10.5 -60t-22.5 -44q-14 -21 -32 -36h70v-160h-425v90l190 125q15 10 25 23t10 32q0 17 -8 23.5t-22 6.5t-24.5 -12.5t-10.5 -32.5l-175 20q2 41 18.5 76.5t45 62t68 41.5t88.5 15q51 0 90.5 -14t67.5 -37.5t42.5 -54t14.5 -64.5z" />
    <glyph glyph-name="three.osf" unicode="&#xf733;" horiz-adv-x="545" 
d="M525 45q0 -49 -17.5 -90t-49.5 -71t-78.5 -47t-104.5 -17t-104.5 16.5t-79.5 44t-51 64t-20 75.5l200 20q3 -11 9 -20q5 -8 13.5 -14t22.5 -6q19 0 32 13t13 32t-13 32t-32 13q-10 0 -18 -1.5t-14 -3.5q-7 -3 -13 -5l-85 95l85 105h-160v180h430v-110l-100 -120
q37 -13 67 -38q26 -21 47 -57t21 -90z" />
    <glyph glyph-name="four.osf" unicode="&#xf734;" horiz-adv-x="550" 
d="M540 0h-60v-170h-200v170h-260v160l230 300h230v-280h60v-180zM215 180h75v95z" />
    <glyph glyph-name="five.osf" unicode="&#xf735;" horiz-adv-x="545" 
d="M20 0zM325 260q41 0 77.5 -16t63.5 -44.5t43 -68t16 -86.5q0 -49 -17.5 -90t-49.5 -71t-78.5 -47t-104.5 -17t-104.5 16.5t-79.5 44t-51 64t-20 75.5l200 20q3 -11 9 -20q5 -8 13.5 -14t22.5 -6q19 0 32 14.5t13 40.5t-13 40.5t-32 14.5q-11 0 -20 -5t-14 -10
q-7 -7 -11 -15h-185l45 380h400v-160h-235l-10 -60q10 6 24 10q12 4 28.5 7t37.5 3z" />
    <glyph glyph-name="six.osf" unicode="&#xf736;" 
d="M20 0zM275 -10q-58 0 -105 18t-80.5 49.5t-51.5 75.5t-18 97q0 42 14 80.5t31 68.5q19 35 45 66l130 185h210l-130 -185q45 -6 83.5 -25t66.5 -48.5t44 -68t16 -83.5q0 -49 -18 -91t-51.5 -73t-80.5 -48.5t-105 -17.5zM225 220q0 -23 13.5 -36.5t36.5 -13.5t36.5 13.5
t13.5 36.5t-13.5 36.5t-36.5 13.5t-36.5 -13.5t-13.5 -36.5z" />
    <glyph glyph-name="seven.osf" unicode="&#xf737;" horiz-adv-x="490" 
d="M20 0zM470 460v-165l-215 -465h-215l205 440h-225v190h450z" />
    <glyph glyph-name="eight.osf" unicode="&#xf738;" horiz-adv-x="560" 
d="M20 0zM280 250q-19 0 -32 -13.5t-13 -36.5t13 -36.5t32 -13.5t32 13.5t13 36.5t-13 36.5t-32 13.5zM280 485q-15 0 -25 -10.5t-10 -29.5t10 -29.5t25 -10.5t25 10.5t10 29.5t-10 29.5t-25 10.5zM280 -10q-64 0 -112.5 16t-81.5 43t-49.5 63.5t-16.5 77.5q0 42 15.5 70
t34.5 46q22 21 50 34q-21 13 -38 31q-14 16 -25.5 39t-11.5 55q0 34 15.5 65.5t45.5 56t74 39t100 14.5t100 -14.5t74 -39t45.5 -56t15.5 -65.5q0 -32 -12 -55t-26 -39q-17 -18 -37 -31q28 -13 50 -34q19 -18 34.5 -46t15.5 -70q0 -41 -16.5 -77.5t-49.5 -63.5t-81.5 -43
t-112.5 -16z" />
    <glyph glyph-name="nine.osf" unicode="&#xf739;" 
d="M10 0zM265 470q58 0 105 -18t80.5 -49.5t51.5 -76t18 -96.5q0 -42 -14 -80.5t-31 -68.5q-20 -35 -45 -66l-130 -185h-210l130 185q-45 6 -83.5 25t-66.5 48.5t-44 68t-16 83.5q0 49 18 91t51.5 73t80.5 48.5t105 17.5zM315 240q0 23 -13.5 36.5t-36.5 13.5t-36.5 -13.5
t-13.5 -36.5t13.5 -36.5t36.5 -13.5t36.5 13.5t13.5 36.5z" />
    <glyph glyph-name="s_t" unicode="&#xfb06;" horiz-adv-x="850" 
d="M205 470q8 0 15.5 -1t14.5 -2q8 -1 15 -2q-2 5 -3 12q-1 5 -1.5 12.5t-0.5 15.5q0 36 16 69t46 59t72.5 41.5t95.5 15.5q54 0 97.5 -16t74 -43t47 -63.5t16.5 -77.5v-30h90v-160h-90v-80q0 -60 55 -60q8 0 14 0.5t11 1.5t10 3v-160q-11 -4 -24 -8q-11 -3 -26.5 -5
t-34.5 -2q-87 0 -136 49.5t-49 140.5v120h-45v150h15q23 0 36.5 12.5t13.5 27.5q0 23 -18 39t-52 16q-38 0 -61.5 -23.5t-23.5 -61.5q0 -19 5.5 -33t13.5 -28.5t16.5 -32t14.5 -41.5l-170 -20q0 11 -7.5 20.5t-22.5 9.5q-11 0 -18 -6t-7 -14t17 -12t42.5 -9.5t55.5 -14.5
t55.5 -25.5t42.5 -42.5t17 -66q0 -30 -14 -58t-40.5 -49.5t-65.5 -34.5t-90 -13q-54 0 -93.5 10.5t-66 30t-42.5 46t-23 58.5l170 20q0 -11 10 -20.5t25 -9.5q35 0 35 25q0 8 -17 12t-42.5 9.5t-55.5 14.5t-55.5 25.5t-42.5 42.5t-17 66q0 28 13.5 55t37.5 48t57 34t72 13z
" />
    <glyph glyph-name="lslash.alt" horiz-adv-x="350" 
d="M10 315l60 40v275h180v-155l70 45v-175l-70 -45v-80q0 -60 55 -60q8 0 14 0.5t11 1.5t10 3v-160q-11 -4 -24 -8q-11 -3 -26.5 -5t-34.5 -2q-87 0 -136 49.5t-49 140.5l-60 -40v175z" />
    <glyph glyph-name="Germandbls" horiz-adv-x="645" 
d="M490 370l10 -4t25 -12t32.5 -21t32.5 -32.5t25 -45.5t10 -60q0 -41 -15.5 -77t-43.5 -62t-67.5 -41t-88.5 -15h-100v180h65q19 0 29.5 10t10.5 25t-10.5 25t-29.5 10h-65v110l80 80h-100q-19 0 -32 -12.5t-13 -27.5v-400h-200v400q0 52 16.5 94.5t48 72.5t77 46.5
t103.5 16.5h290v-170z" />
    <glyph glyph-name="a.alt" horiz-adv-x="565" 
d="M345 230q0 34 -20 54.5t-50 20.5t-50 -20.5t-20 -54.5t20 -54.5t50 -20.5t50 20.5t20 54.5zM525 0h-135l-25 45q-16 -16 -36 -28q-17 -11 -42 -19t-57 -8q-39 0 -76 18t-65.5 49.5t-46 75.5t-17.5 97q0 52 17.5 96.5t46 76t65.5 49.5t76 18q32 0 57 -8.5t42 -19.5
q20 -12 36 -27l25 45h135v-460z" />
    <glyph glyph-name="afii10085.alt" horiz-adv-x="520" 
d="M-5 460h190l75 -240l75 240h190l-240 -620h-195q6 13 12 29q5 14 11.5 31t14.5 35q17 41 37 95z" />
    <glyph glyph-name="l.alt" horiz-adv-x="320" 
d="M220 220q0 -60 55 -60q8 0 14 0.5t11 1.5t10 3v-160q-11 -4 -24 -8q-11 -3 -26.5 -5t-34.5 -2q-87 0 -136 49.5t-49 140.5v450h180v-410z" />
    <glyph glyph-name="y.alt" horiz-adv-x="555" 
d="M335 65q-14 -10 -31 -18q-14 -7 -34.5 -12t-44.5 -5q-41 0 -75 13.5t-58.5 39.5t-38 63t-13.5 84v230h180v-210q0 -30 16 -47.5t39 -17.5q26 0 43 17.5t17 47.5v210h180v-420q0 -47 -15.5 -85.5t-46 -66.5t-75.5 -43t-103 -15q-54 0 -93.5 11t-66 31.5t-42.5 50t-23 67.5
l170 20q4 -10 11 -18q6 -7 16.5 -12t27.5 -5q26 0 43 18.5t17 56.5v15z" />
    <glyph glyph-name="I.alt" horiz-adv-x="460" 
d="M130 450h-90v180h380v-180h-90v-270h90v-180h-380v180h90v270z" />
    <glyph glyph-name="c_t" horiz-adv-x="900" 
d="M255 470q8 0 15.5 -1t14.5 -2q8 -1 15 -2q-2 5 -3 12q-1 5 -1.5 12.5t-0.5 15.5q0 36 16 69t46 59t72.5 41.5t95.5 15.5q54 0 97.5 -16t74 -43t47 -63.5t16.5 -77.5v-30h90v-160h-90v-80q0 -60 55 -60q8 0 14 0.5t11 1.5t10 3v-160q-11 -4 -24 -8q-11 -3 -26.5 -5
t-34.5 -2q-87 0 -136 49.5t-49 140.5v120h-45v150h15q23 0 36.5 12.5t13.5 27.5q0 23 -18 39t-52 16q-38 0 -61.5 -23.5t-23.5 -61.5q0 -23 9 -43t20.5 -41t23 -44.5t17.5 -51.5l-175 -20q-5 12 -14 22q-8 8 -20 15.5t-31 7.5q-30 0 -50 -20.5t-20 -54.5q0 -35 20 -55
t50 -20q19 0 31 7t20 15q9 10 14 23l175 -20q-11 -54 -41 -95q-13 -18 -31 -35t-42 -30.5t-55.5 -21.5t-70.5 -8q-53 0 -98.5 19t-79 52t-53 76.5t-19.5 92.5t19 92.5t51 76.5t73.5 52t86.5 19z" />
    <glyph glyph-name="foundryicon" horiz-adv-x="1538" 
d="M278 429h-72v-199h-35v199h-71v31h178v-31zM519 396q32 0 54.5 -24.5t22.5 -59.5q0 -36 -22.5 -60.5t-54.5 -24.5q-29 0 -47 21v-79h-34v224h24l9 -19q8 10 20.5 16t27.5 6zM516 258q19 0 33 15.5t14 38.5q0 21 -14 36.5t-33 15.5q-20 0 -33.5 -15.5t-13.5 -36.5
q0 -23 13.5 -38.5t33.5 -15.5zM377 393h37l-77 -190q-16 -34 -49 -34q-7 0 -10 1v28q23 0 31 20l6 16l-63 159h37l44 -116zM701 396q32 0 54 -24t22 -59q0 -2 -0.5 -4.5t-0.5 -4.5v-6h-119q2 -17 14.5 -29t29.5 -12q12 0 22 4t15 13h35q-9 -23 -29 -35t-43 -12
q-32 0 -55 24.5t-23 60.5q0 17 6 32.5t16.5 27t25 18t30.5 6.5zM745 325q-1 17 -14.5 28.5t-29.5 11.5t-29 -10.5t-15 -29.5h88zM939 429h-72v-199h-35v199h-71v31h178v-31zM1180 396q32 0 54.5 -24.5t22.5 -59.5q0 -36 -22.5 -60.5t-54.5 -24.5q-29 0 -47 21v-79h-34v224
h24l9 -19q8 10 20.5 16t27.5 6zM1177 258q19 0 33 15.5t14 38.5q0 21 -14 36.5t-33 15.5q-20 0 -33.5 -15.5t-13.5 -36.5q0 -23 13.5 -38.5t33.5 -15.5zM1038 393h37l-77 -190q-16 -34 -49 -34q-7 0 -10 1v28q23 0 31 20l6 16l-63 159h37l44 -116zM1362 396q32 0 54 -24
t22 -59q0 -2 -0.5 -4.5t-0.5 -4.5v-6h-119q2 -17 14.5 -29t29.5 -12q12 0 22 4t15 13h35q-9 -23 -29 -35t-43 -12q-32 0 -55 24.5t-23 60.5q0 17 6 32.5t16.5 27t25 18t30.5 6.5zM1406 325q-1 17 -14.5 28.5t-29.5 11.5t-29 -10.5t-15 -29.5h88z" />
    <glyph glyph-name="r_f" horiz-adv-x="635" 
d="M345 290h-45q-34 0 -57 -23.5t-23 -61.5v-205h-180v460h130l25 -45q12 9 28 17q14 7 33 12.5t44 5.5h45v5q0 91 49 140.5t136 49.5q19 0 34.5 -2.5t26.5 -5.5q13 -4 24 -7v-160l-12 2q-5 1 -11.5 2t-11.5 1q-14 0 -22.5 -4t-13.5 -9q-6 -5 -9 -12h80v-160h-90v-290h-180
v290z" />
    <glyph glyph-name="r_t" horiz-adv-x="665" 
d="M525 220q0 -60 55 -60q8 0 14 0.5t11 1.5t10 3v-160q-11 -4 -24 -8q-11 -3 -26.5 -5t-34.5 -2q-87 0 -136 49.5t-49 140.5v110h-45q-34 0 -57 -23.5t-23 -61.5v-205h-180v460h130l25 -45q12 9 28 17q14 7 33 12.5t44 5.5h20q23 0 34 14t11 36v70h160v-120h90v-160h-90
v-70z" />
    <glyph glyph-name="afii10065.alt" horiz-adv-x="565" 
d="M25 0zM345 230q0 34 -20 54.5t-50 20.5t-50 -20.5t-20 -54.5t20 -54.5t50 -20.5t50 20.5t20 54.5zM525 0h-135l-25 45q-16 -16 -36 -28q-17 -11 -42 -19t-57 -8q-39 0 -76 18t-65.5 49.5t-46 75.5t-17.5 97q0 52 17.5 96.5t46 76t65.5 49.5t76 18q32 0 57 -8.5t42 -19.5
q20 -12 36 -27l25 45h135v-460z" />
    <glyph glyph-name="afii10110.alt" horiz-adv-x="520" 
d="M0 0zM260 505q-72 0 -114 40.5t-46 104.5h120q2 -11 7 -20q5 -8 12 -14t21 -6q13 0 20.5 6t12.5 14q5 9 7 20h120q-4 -64 -46 -104.5t-114 -40.5zM-5 460h190l75 -240l75 240h190l-240 -620h-195q6 13 12 29q5 14 11.5 31t14.5 35q17 41 37 95z" />
    <glyph glyph-name="agrave.alt" horiz-adv-x="565" 
d="M25 0zM380 515h-155l-100 140h190zM345 230q0 34 -20 54.5t-50 20.5t-50 -20.5t-20 -54.5t20 -54.5t50 -20.5t50 20.5t20 54.5zM525 0h-135l-25 45q-16 -16 -36 -28q-17 -11 -42 -19t-57 -8q-39 0 -76 18t-65.5 49.5t-46 75.5t-17.5 97q0 52 17.5 96.5t46 76t65.5 49.5
t76 18q32 0 57 -8.5t42 -19.5q20 -12 36 -27l25 45h135v-460z" />
    <glyph glyph-name="aacute.alt" horiz-adv-x="565" 
d="M25 0zM280 655h190l-100 -140h-155zM345 230q0 34 -20 54.5t-50 20.5t-50 -20.5t-20 -54.5t20 -54.5t50 -20.5t50 20.5t20 54.5zM525 0h-135l-25 45q-16 -16 -36 -28q-17 -11 -42 -19t-57 -8q-39 0 -76 18t-65.5 49.5t-46 75.5t-17.5 97q0 52 17.5 96.5t46 76t65.5 49.5
t76 18q32 0 57 -8.5t42 -19.5q20 -12 36 -27l25 45h135v-460z" />
    <glyph glyph-name="abreve.alt" horiz-adv-x="565" 
d="M25 0zM290 505q-72 0 -114 40.5t-46 104.5h120q2 -11 7 -20q5 -8 12 -14t21 -6q13 0 20.5 6t12.5 14q5 9 7 20h120q-4 -64 -46 -104.5t-114 -40.5zM345 230q0 34 -20 54.5t-50 20.5t-50 -20.5t-20 -54.5t20 -54.5t50 -20.5t50 20.5t20 54.5zM525 0h-135l-25 45
q-16 -16 -36 -28q-17 -11 -42 -19t-57 -8q-39 0 -76 18t-65.5 49.5t-46 75.5t-17.5 97q0 52 17.5 96.5t46 76t65.5 49.5t76 18q32 0 57 -8.5t42 -19.5q20 -12 36 -27l25 45h135v-460z" />
    <glyph glyph-name="acircumflex.alt" horiz-adv-x="565" 
d="M25 0zM285 565l-40 -55h-150l105 145h170l105 -145h-150zM345 230q0 34 -20 54.5t-50 20.5t-50 -20.5t-20 -54.5t20 -54.5t50 -20.5t50 20.5t20 54.5zM525 0h-135l-25 45q-16 -16 -36 -28q-17 -11 -42 -19t-57 -8q-39 0 -76 18t-65.5 49.5t-46 75.5t-17.5 97
q0 52 17.5 96.5t46 76t65.5 49.5t76 18q32 0 57 -8.5t42 -19.5q20 -12 36 -27l25 45h135v-460z" />
    <glyph glyph-name="adieresis.alt" horiz-adv-x="565" 
d="M25 0zM475 585q0 -17 -7 -32.5t-18.5 -27t-27 -18.5t-32.5 -7t-32.5 7t-27 18.5t-18.5 27t-7 32.5t7 32.5t18.5 27t27 18.5t32.5 7t32.5 -7t27 -18.5t18.5 -27t7 -32.5zM275 585q0 -17 -7 -32.5t-18.5 -27t-27 -18.5t-32.5 -7t-32.5 7t-27 18.5t-18.5 27t-7 32.5t7 32.5
t18.5 27t27 18.5t32.5 7t32.5 -7t27 -18.5t18.5 -27t7 -32.5zM345 230q0 34 -20 54.5t-50 20.5t-50 -20.5t-20 -54.5t20 -54.5t50 -20.5t50 20.5t20 54.5zM525 0h-135l-25 45q-16 -16 -36 -28q-17 -11 -42 -19t-57 -8q-39 0 -76 18t-65.5 49.5t-46 75.5t-17.5 97
q0 52 17.5 96.5t46 76t65.5 49.5t76 18q32 0 57 -8.5t42 -19.5q20 -12 36 -27l25 45h135v-460z" />
    <glyph glyph-name="amacron.alt" horiz-adv-x="565" 
d="M25 0zM430 520h-290v135h290v-135zM345 230q0 34 -20 54.5t-50 20.5t-50 -20.5t-20 -54.5t20 -54.5t50 -20.5t50 20.5t20 54.5zM525 0h-135l-25 45q-16 -16 -36 -28q-17 -11 -42 -19t-57 -8q-39 0 -76 18t-65.5 49.5t-46 75.5t-17.5 97q0 52 17.5 96.5t46 76t65.5 49.5
t76 18q32 0 57 -8.5t42 -19.5q20 -12 36 -27l25 45h135v-460z" />
    <glyph glyph-name="aogonek.alt" horiz-adv-x="565" 
d="M365 45q-16 -16 -36 -28q-17 -11 -42 -19t-57 -8q-39 0 -76 18t-65.5 49.5t-46 75.5t-17.5 97q0 52 17.5 96.5t46 76t65.5 49.5t76 18q32 0 57 -8.5t42 -19.5q20 -12 36 -27l25 45h135v-460h-45q-9 -9 -15 -20q-6 -10 -10.5 -22.5t-4.5 -27.5q0 -19 13 -32t32 -13
q9 0 16.5 0.5t12.5 1.5q6 1 11 3v-79q-11 -4 -23 -8q-11 -3 -25.5 -5.5t-31.5 -2.5q-57 0 -86 26.5t-29 68.5q0 24 7.5 44.5t17.5 34.5q11 17 25 31zM345 230q0 34 -20 54.5t-50 20.5t-50 -20.5t-20 -54.5t20 -54.5t50 -20.5t50 20.5t20 54.5z" />
    <glyph glyph-name="aring.alt" horiz-adv-x="565" 
d="M25 0zM400 600q0 -45 -31 -75t-84 -30t-84 30t-31 75t31 75t84 30t84 -30t31 -75zM320 600q0 15 -10 25t-25 10t-25 -10t-10 -25t10 -25t25 -10t25 10t10 25zM345 230q0 34 -20 54.5t-50 20.5t-50 -20.5t-20 -54.5t20 -54.5t50 -20.5t50 20.5t20 54.5zM525 0h-135l-25 45
q-16 -16 -36 -28q-17 -11 -42 -19t-57 -8q-39 0 -76 18t-65.5 49.5t-46 75.5t-17.5 97q0 52 17.5 96.5t46 76t65.5 49.5t76 18q32 0 57 -8.5t42 -19.5q20 -12 36 -27l25 45h135v-460z" />
    <glyph glyph-name="atilde.alt" horiz-adv-x="565" 
d="M25 0zM130 520q0 75 26 107.5t64 32.5q19 0 32.5 -4.5t24.5 -10.5t20 -10.5t18 -4.5q25 0 25 25l110 -10q0 -75 -26 -107.5t-64 -32.5q-19 0 -32.5 4.5t-24.5 10.5t-20 10.5t-18 4.5q-25 0 -25 -25zM345 230q0 34 -20 54.5t-50 20.5t-50 -20.5t-20 -54.5t20 -54.5
t50 -20.5t50 20.5t20 54.5zM525 0h-135l-25 45q-16 -16 -36 -28q-17 -11 -42 -19t-57 -8q-39 0 -76 18t-65.5 49.5t-46 75.5t-17.5 97q0 52 17.5 96.5t46 76t65.5 49.5t76 18q32 0 57 -8.5t42 -19.5q20 -12 36 -27l25 45h135v-460z" />
    <glyph glyph-name="lacute.alt" horiz-adv-x="320" 
d="M40 0zM115 835h190l-100 -140h-155zM220 220q0 -60 55 -60q8 0 14 0.5t11 1.5t10 3v-160q-11 -4 -24 -8q-11 -3 -26.5 -5t-34.5 -2q-87 0 -136 49.5t-49 140.5v450h180v-410z" />
    <glyph glyph-name="lcaron.alt" horiz-adv-x="385" 
d="M285 630h180l-70 -140h-145zM220 220q0 -60 55 -60q8 0 14 0.5t11 1.5t10 3v-160q-11 -4 -24 -8q-11 -3 -26.5 -5t-34.5 -2q-87 0 -136 49.5t-49 140.5v450h180v-410z" />
    <glyph glyph-name="lcommaaccent.alt" horiz-adv-x="320" 
d="M40 0zM220 220q0 -60 55 -60q8 0 14 0.5t11 1.5t10 3v-160q-11 -4 -24 -8q-11 -3 -26.5 -5t-34.5 -2q-87 0 -136 49.5t-49 140.5v450h180v-410zM180 -50q34 0 57 -25t23 -70q0 -49 -16.5 -80.5t-36.5 -50.5q-23 -22 -52 -34l-25 45q11 6 21 14q8 7 16.5 17t12.5 24
q-34 0 -57 23t-23 57t23 57t57 23z" />
    <glyph glyph-name="Igrave.alt" horiz-adv-x="460" 
d="M40 0zM305 695h-155l-100 140h190zM130 450h-90v180h380v-180h-90v-270h90v-180h-380v180h90v270z" />
    <glyph glyph-name="Iacute.alt" horiz-adv-x="460" 
d="M40 0zM215 835h190l-100 -140h-155zM130 450h-90v180h380v-180h-90v-270h90v-180h-380v180h90v270z" />
    <glyph glyph-name="Icircumflex.alt" horiz-adv-x="460" 
d="M40 0zM230 745l-40 -55h-150l105 145h170l105 -145h-150zM130 450h-90v180h380v-180h-90v-270h90v-180h-380v180h90v270z" />
    <glyph glyph-name="Idieresis.alt" horiz-adv-x="460" 
d="M40 0zM415 765q0 -17 -7 -32.5t-18.5 -27t-27 -18.5t-32.5 -7t-32.5 7t-27 18.5t-18.5 27t-7 32.5t7 32.5t18.5 27t27 18.5t32.5 7t32.5 -7t27 -18.5t18.5 -27t7 -32.5zM215 765q0 -17 -7 -32.5t-18.5 -27t-27 -18.5t-32.5 -7t-32.5 7t-27 18.5t-18.5 27t-7 32.5t7 32.5
t18.5 27t27 18.5t32.5 7t32.5 -7t27 -18.5t18.5 -27t7 -32.5zM130 450h-90v180h380v-180h-90v-270h90v-180h-380v180h90v270z" />
    <glyph glyph-name="Idotaccent.alt" horiz-adv-x="460" 
d="M40 0zM135 770q0 38 26.5 64t68.5 26t68.5 -26t26.5 -64t-26.5 -64t-68.5 -26t-68.5 26t-26.5 64zM130 450h-90v180h380v-180h-90v-270h90v-180h-380v180h90v270z" />
    <glyph glyph-name="Imacron.alt" horiz-adv-x="460" 
d="M40 0zM375 695h-290v135h290v-135zM130 450h-90v180h380v-180h-90v-270h90v-180h-380v180h90v270z" />
    <glyph glyph-name="Iogonek.alt" horiz-adv-x="460" 
d="M40 0v180h90v270h-90v180h380v-180h-90v-270h90v-180q-9 -9 -15 -20q-6 -10 -10.5 -22.5t-4.5 -27.5q0 -19 13 -32t32 -13q9 0 16.5 0.5t12.5 1.5q6 1 11 3v-79q-11 -4 -23 -8q-11 -3 -25.5 -5.5t-31.5 -2.5q-57 0 -86 26.5t-29 68.5q0 24 7.5 44.5t17.5 34.5
q11 17 25 31h-290z" />
    <glyph glyph-name="yacute.alt" horiz-adv-x="555" 
d="M40 0zM265 655h190l-100 -140h-155zM335 65q-14 -10 -31 -18q-14 -7 -34.5 -12t-44.5 -5q-41 0 -75 13.5t-58.5 39.5t-38 63t-13.5 84v230h180v-210q0 -30 16 -47.5t39 -17.5q26 0 43 17.5t17 47.5v210h180v-420q0 -47 -15.5 -85.5t-46 -66.5t-75.5 -43t-103 -15
q-54 0 -93.5 11t-66 31.5t-42.5 50t-23 67.5l170 20q4 -10 11 -18q6 -7 16.5 -12t27.5 -5q26 0 43 18.5t17 56.5v15z" />
    <glyph glyph-name="ydieresis.alt" horiz-adv-x="555" 
d="M40 0zM465 585q0 -17 -7 -32.5t-18.5 -27t-27 -18.5t-32.5 -7t-32.5 7t-27 18.5t-18.5 27t-7 32.5t7 32.5t18.5 27t27 18.5t32.5 7t32.5 -7t27 -18.5t18.5 -27t7 -32.5zM265 585q0 -17 -7 -32.5t-18.5 -27t-27 -18.5t-32.5 -7t-32.5 7t-27 18.5t-18.5 27t-7 32.5t7 32.5
t18.5 27t27 18.5t32.5 7t32.5 -7t27 -18.5t18.5 -27t7 -32.5zM335 65q-14 -10 -31 -18q-14 -7 -34.5 -12t-44.5 -5q-41 0 -75 13.5t-58.5 39.5t-38 63t-13.5 84v230h180v-210q0 -30 16 -47.5t39 -17.5q26 0 43 17.5t17 47.5v210h180v-420q0 -47 -15.5 -85.5t-46 -66.5
t-75.5 -43t-103 -15q-54 0 -93.5 11t-66 31.5t-42.5 50t-23 67.5l170 20q4 -10 11 -18q6 -7 16.5 -12t27.5 -5q26 0 43 18.5t17 56.5v15z" />
    <glyph glyph-name="zero.tab" 
d="M355 315q0 71 -25.5 103t-59.5 32t-59.5 -32t-25.5 -103t25.5 -103t59.5 -32t59.5 32t25.5 103zM555 315q0 -75 -22 -135t-60.5 -102.5t-90.5 -65t-112 -22.5t-112 22.5t-90.5 65t-60.5 102.5t-22 135t22 135t60.5 102.5t90.5 65t112 22.5t112 -22.5t90.5 -65
t60.5 -102.5t22 -135z" />
    <glyph glyph-name="one.tab" 
d="M180 190v210l-60 -40l-90 150l180 120h170v-440h130v-190h-460v190h130z" />
    <glyph glyph-name="two.tab" 
d="M505 190v-190h-470v130l205 215q14 13 25 26q9 11 17 24.5t8 24.5q0 15 -10 22.5t-25 7.5t-27.5 -13.5t-12.5 -36.5l-195 20q2 47 20 87t50 69.5t76.5 46.5t98.5 17q56 0 100.5 -16t75.5 -43t47.5 -63.5t16.5 -77.5q0 -42 -18 -78t-40 -63q-26 -32 -57 -59l-50 -50h165z
" />
    <glyph glyph-name="three.tab" 
d="M20 440q2 41 19.5 77.5t49 63.5t76 43t100.5 16q58 0 103 -15t75.5 -39.5t46 -57t15.5 -68.5q0 -34 -14 -58.5t-31 -40.5q-20 -18 -45 -31q29 -13 52 -34q20 -18 36.5 -46t16.5 -70q0 -38 -16.5 -72t-48 -60.5t-77 -42t-103.5 -15.5q-62 0 -110.5 16.5t-82 45t-52 67
t-20.5 81.5l200 20q3 -14 10 -25q5 -10 15 -17.5t25 -7.5q19 0 29.5 12.5t10.5 27.5t-11 27.5t-34 12.5h-60v150h60q15 0 25 7.5t10 22.5t-9.5 22.5t-20.5 7.5t-18.5 -6t-12.5 -14q-5 -9 -9 -20z" />
    <glyph glyph-name="four.tab" 
d="M530 100h-60v-100h-200v100h-260v160l230 370h230v-350h60v-180zM205 280h75v120z" />
    <glyph glyph-name="five.tab" 
d="M325 430q41 0 77.5 -16t63.5 -44.5t43 -68t16 -86.5q0 -49 -17.5 -90t-49.5 -71t-78.5 -47t-104.5 -17t-104.5 16.5t-79.5 44t-51 64t-20 75.5l200 20q3 -11 9 -20q5 -8 13.5 -14t22.5 -6q19 0 32 14.5t13 40.5t-13 40.5t-32 14.5q-11 0 -20 -5t-14 -10q-7 -7 -11 -15
h-185l45 380h400v-160h-235l-10 -60q10 6 24 10q12 4 28.5 7t37.5 3z" />
    <glyph glyph-name="six.tab" 
d="M270 -10q-58 0 -105 18t-80.5 49.5t-51.5 75.5t-18 97q0 42 14 80.5t31 68.5q19 35 45 66l130 185h210l-130 -185q45 -6 83.5 -25t66.5 -48.5t44 -68t16 -83.5q0 -49 -18 -91t-51.5 -73t-80.5 -48.5t-105 -17.5zM220 220q0 -23 13.5 -36.5t36.5 -13.5t36.5 13.5
t13.5 36.5t-13.5 36.5t-36.5 13.5t-36.5 -13.5t-13.5 -36.5z" />
    <glyph glyph-name="seven.tab" 
d="M505 630v-165l-215 -465h-215l205 440h-225v190h450z" />
    <glyph glyph-name="eight.tab" 
d="M270 250q-19 0 -32 -13.5t-13 -36.5t13 -36.5t32 -13.5t32 13.5t13 36.5t-13 36.5t-32 13.5zM270 485q-15 0 -25 -10.5t-10 -29.5t10 -29.5t25 -10.5t25 10.5t10 29.5t-10 29.5t-25 10.5zM270 -10q-64 0 -112.5 16t-81.5 43t-49.5 63.5t-16.5 77.5q0 42 15.5 70t34.5 46
q22 21 50 34q-21 13 -38 31q-14 16 -25.5 39t-11.5 55q0 34 15.5 65.5t45.5 56t74 39t100 14.5t100 -14.5t74 -39t45.5 -56t15.5 -65.5q0 -32 -12 -55t-26 -39q-17 -18 -37 -31q28 -13 50 -34q19 -18 34.5 -46t15.5 -70q0 -41 -16.5 -77.5t-49.5 -63.5t-81.5 -43t-112.5 -16
z" />
    <glyph glyph-name="nine.tab" 
d="M270 640q58 0 105 -18t80.5 -49.5t51.5 -76t18 -96.5q0 -42 -14 -80.5t-31 -68.5q-20 -35 -45 -66l-130 -185h-210l130 185q-45 6 -83.5 25t-66.5 48.5t-44 68t-16 83.5q0 49 18 91t51.5 73t80.5 48.5t105 17.5zM320 410q0 23 -13.5 36.5t-36.5 13.5t-36.5 -13.5
t-13.5 -36.5t13.5 -36.5t36.5 -13.5t36.5 13.5t13.5 36.5z" />
    <glyph glyph-name="at.case" horiz-adv-x="765" 
d="M30 0zM380 640q79 0 144 -25.5t112 -70t73 -105t26 -129.5q0 -45 -11.5 -79.5t-32 -58t-49 -35.5t-62.5 -12q-30 0 -51 9.5t-34 20.5q-16 13 -25 30q-10 -17 -26 -30q-14 -11 -35.5 -20.5t-53.5 -9.5t-60 12.5t-49 35.5t-33.5 55.5t-12.5 71.5t12 71.5t32.5 55.5
t46.5 35.5t54 12.5q19 0 33.5 -5.5t25.5 -12.5q12 -8 21 -17l10 25h105v-155q0 -42 12.5 -58.5t27.5 -16.5t27.5 16.5t12.5 58.5q0 47 -17 87t-48.5 69.5t-76 46.5t-98.5 17q-51 0 -94 -17.5t-74.5 -48.5t-49 -73t-17.5 -91t17.5 -91t49 -73t74.5 -48.5t94 -17.5
q32 0 58 7.5t46 17.5q23 11 41 25l65 -90q-22 -20 -54 -35q-27 -14 -66 -24.5t-90 -10.5q-75 0 -139 26.5t-111 72.5t-73.5 108t-26.5 133t26.5 133t73.5 108t111 72.5t139 26.5zM420 300q0 30 -15.5 47.5t-34.5 17.5t-34.5 -17.5t-15.5 -47.5t15.5 -47.5t34.5 -17.5
t34.5 17.5t15.5 47.5z" />
    <glyph glyph-name="parenleft.case" horiz-adv-x="385" 
d="M50 0zM260 300q0 -74 16 -137t36 -111q23 -55 53 -102l-150 -100q-47 56 -83 126q-31 60 -56.5 142t-25.5 182t25.5 182t56.5 142q36 70 83 126l150 -100q-30 -47 -53 -102q-20 -48 -36 -111.5t-16 -136.5z" />
    <glyph glyph-name="parenright.case" horiz-adv-x="385" 
d="M20 0zM125 300q0 73 -16.5 136.5t-36.5 111.5q-23 55 -52 102l150 100q46 -56 82 -126q31 -60 57 -142t26 -182t-26 -182.5t-57 -141.5q-36 -70 -82 -126l-150 100q29 47 52 102q20 48 36.5 111t16.5 137z" />
    <glyph glyph-name="bracketleft.case" horiz-adv-x="365" 
d="M50 0zM240 75h95v-180h-285v810h285v-180h-95v-450z" />
    <glyph glyph-name="bracketright.case" horiz-adv-x="365" 
d="M30 0zM125 525h-95v180h285v-810h-285v180h95v450z" />
    <glyph glyph-name="braceleft.case" horiz-adv-x="400" 
d="M40 0zM40 375q17 0 30 7q11 5 20.5 17.5t9.5 35.5v80q0 98 47 144t153 46h70v-180h-30q-23 0 -36.5 -13.5t-13.5 -36.5v-70q0 -32 -12 -52t-26 -32q-17 -14 -37 -21q20 -7 37 -21q14 -12 26 -32t12 -52v-70q0 -23 13.5 -36.5t36.5 -13.5h30v-180h-70q-106 0 -153 46
t-47 144v80q0 23 -9.5 34.5t-20.5 17.5q-13 6 -30 8v150z" />
    <glyph glyph-name="braceright.case" horiz-adv-x="400" 
d="M30 0zM360 225q-17 -2 -30 -8q-11 -6 -20.5 -17.5t-9.5 -34.5v-80q0 -98 -47 -144t-153 -46h-70v180h30q23 0 36.5 13.5t13.5 36.5v70q0 32 11.5 52t25.5 32q17 14 38 21q-21 7 -38 21q-14 12 -25.5 32t-11.5 52v70q0 23 -13.5 36.5t-36.5 13.5h-30v180h70q106 0 153 -46
t47 -144v-80q0 -23 9.5 -35.5t20.5 -17.5q13 -7 30 -7v-150z" />
    <glyph glyph-name="exclamdown.case" horiz-adv-x="310" 
d="M70 410h170l20 -410h-210zM250 545q0 -42 -26.5 -68.5t-68.5 -26.5t-68.5 26.5t-26.5 68.5t26.5 68.5t68.5 26.5t68.5 -26.5t26.5 -68.5z" />
    <glyph glyph-name="questiondown.case" horiz-adv-x="475" 
d="M10 170q0 32 9.5 55t24.5 40.5t32.5 32t33 30.5t26.5 35t14 47h180q0 -53 -17 -88t-38 -59t-38 -39.5t-17 -28.5q0 -25 25 -25q11 0 23 11t12 34l185 -20q-2 -43 -19 -80.5t-47 -65t-71.5 -43.5t-92.5 -16q-54 0 -96 14t-70.5 38.5t-43.5 57t-15 70.5zM145 545
q0 42 26.5 68.5t68.5 26.5t68.5 -26.5t26.5 -68.5t-26.5 -68.5t-68.5 -26.5t-68.5 26.5t-26.5 68.5z" />
    <glyph glyph-name="guillemotleft.case" horiz-adv-x="585" 
d="M30 125zM320 125h-170l-120 175l120 175h170l-120 -175zM555 125h-170l-120 175l120 175h170l-120 -175z" />
    <glyph glyph-name="guillemotright.case" horiz-adv-x="585" 
d="M30 125zM385 300l-120 175h170l120 -175l-120 -175h-170zM150 300l-120 175h170l120 -175l-120 -175h-170z" />
    <glyph glyph-name="guilsinglleft.case" horiz-adv-x="370" 
d="M30 125zM220 300l120 -175h-190l-120 175l120 175h190z" />
    <glyph glyph-name="guilsinglright.case" horiz-adv-x="370" 
d="M30 125zM150 300l-120 175h190l120 -175l-120 -175h-190z" />
    <glyph glyph-name="hyphen.case" horiz-adv-x="400" 
d="M360 245h-320v170h320v-170z" />
    <glyph glyph-name="endash.case" horiz-adv-x="510" 
d="M470 245h-430v170h430v-170z" />
    <glyph glyph-name="emdash.case" horiz-adv-x="755" 
d="M715 245h-675v170h675v-170z" />
    <glyph glyph-name="bullet.case" horiz-adv-x="390" 
d="M80 195zM310 310q0 -23 -9.5 -43.5t-25.5 -36.5t-37 -25.5t-43 -9.5q-23 0 -43.5 9.5t-36.5 25.5t-25.5 36.5t-9.5 43.5q0 22 9.5 43t25.5 37t36.5 25.5t43.5 9.5q22 0 43 -9.5t37 -25.5t25.5 -37t9.5 -43z" />
    <glyph glyph-name="periodcentered.case" horiz-adv-x="240" 
d="M25 335q0 42 26.5 68.5t68.5 26.5t68.5 -26.5t26.5 -68.5t-26.5 -68.5t-68.5 -26.5t-68.5 26.5t-26.5 68.5z" />
    <glyph glyph-name="zero.numr" horiz-adv-x="340" 
d="M145 475q0 -26 8.5 -38t16.5 -12t16.5 12t8.5 38t-8.5 38t-16.5 12t-16.5 -12t-8.5 -38zM20 475q0 36 11.5 65.5t31.5 50.5t47.5 32.5t59.5 11.5t59.5 -11.5t47.5 -32.5t31.5 -50.5t11.5 -65.5t-11.5 -65.5t-31.5 -50.5t-47.5 -32.5t-59.5 -11.5t-59.5 11.5t-47.5 32.5
t-31.5 50.5t-11.5 65.5z" />
    <glyph glyph-name="one.numr" horiz-adv-x="275" 
d="M215 630v-310h-125v165l-25 -15l-55 85l120 75h85z" />
    <glyph glyph-name="two.numr" horiz-adv-x="289" 
d="M274 420v-100h-260v80l115 90q7 6 12 12q5 5 9 11t4 12q0 15 -15 15q-8 0 -14 -7t-6 -18l-109 10q7 49 41 79.5t98 30.5t97 -29t33 -71q0 -15 -6 -29t-15 -26t-19.5 -22.5t-19.5 -17.5l-25 -20h80z" />
    <glyph glyph-name="three.numr" horiz-adv-x="295" 
d="M5 535q8 45 40.5 72.5t104.5 27.5q32 0 56 -7.5t40.5 -20.5t25 -29t8.5 -33t-6 -29t-14 -20q-9 -10 -20 -16q12 -6 22 -16q8 -8 15.5 -20t7.5 -29q0 -42 -33.5 -71t-101.5 -29q-75 0 -109 27.5t-41 72.5l120 10q-1 -6 2 -10q4 -10 18 -10q8 0 14 3.5t6 11.5t-6 11.5
t-14 3.5h-30v80h25q8 0 14 3.5t6 11.5t-6 11.5t-14 3.5q-14 0 -18 -10q-3 -4 -2 -10z" />
    <glyph glyph-name="four.numr" horiz-adv-x="305" 
d="M290 380h-30v-60h-125v60h-135v70l110 180h150v-150h30v-100zM150 470v65l-40 -65h40z" />
    <glyph glyph-name="five.numr" horiz-adv-x="305" 
d="M180 525q53 0 84 -29t31 -71q0 -45 -36.5 -77.5t-108.5 -32.5q-68 0 -100 26.5t-40 68.5l120 10q1 -4 4 -8q5 -7 16 -7q8 0 14 7t6 18t-6 18t-14 7q-6 0 -10 -2.5t-7 -5.5q-4 -4 -5 -7h-108l25 190h225v-80h-125l-5 -30q4 1 9 2t12.5 2t18.5 1z" />
    <glyph glyph-name="six.numr" horiz-adv-x="300" 
d="M150 315q-32 0 -58 9.5t-44 26t-28 38.5t-10 46q0 20 6 39.5t14 33.5q9 17 20 32l64 90h131l-60 -85q45 -4 75 -34.5t30 -75.5q0 -24 -10 -46t-28 -38.5t-44 -26t-58 -9.5zM170 435q0 11 -6 18t-14 7t-14 -7t-6 -18t6 -18t14 -7t14 7t6 18z" />
    <glyph glyph-name="seven.numr" horiz-adv-x="275" 
d="M265 630v-90l-100 -220h-130l90 200h-105v110h245z" />
    <glyph glyph-name="eight.numr" horiz-adv-x="310" 
d="M155 445q-25 0 -25 -25t25 -25t25 25t-25 25zM155 315q-75 0 -110 29t-35 71q0 17 7 29t15 20q10 10 23 16q-10 6 -18 16q-7 8 -12 20t-5 29t8.5 33t25.5 29t42 20.5t59 7.5t59 -7.5t42 -20.5t25.5 -29t8.5 -33t-5.5 -29t-12.5 -20q-8 -10 -17 -16q12 -6 22 -16
q8 -8 15.5 -20t7.5 -29q0 -42 -35 -71t-110 -29zM155 515q8 0 14 6t6 14t-6 14t-14 6t-14 -6t-6 -14t6 -14t14 -6z" />
    <glyph glyph-name="nine.numr" horiz-adv-x="300" 
d="M150 635q32 0 58 -9.5t44 -26t28 -38.5t10 -46q0 -21 -6 -40t-14 -33q-9 -17 -20 -32l-64 -90h-131l60 85q-45 4 -75 34.5t-30 75.5q0 24 10 46t28 38.5t44 26t58 9.5zM130 515q0 -11 6 -18t14 -7t14 7t6 18t-6 18t-14 7t-14 -7t-6 -18z" />
    <glyph glyph-name="zero.dnom" horiz-adv-x="340" 
d="M145 155q0 -26 8.5 -38t16.5 -12t16.5 12t8.5 38t-8.5 38t-16.5 12t-16.5 -12t-8.5 -38zM20 155q0 36 11.5 65.5t31.5 50.5t47.5 32.5t59.5 11.5t59.5 -11.5t47.5 -32.5t31.5 -50.5t11.5 -65.5t-11.5 -65.5t-31.5 -50.5t-47.5 -32.5t-59.5 -11.5t-59.5 11.5t-47.5 32.5
t-31.5 50.5t-11.5 65.5z" />
    <glyph glyph-name="one.dnom" horiz-adv-x="275" 
d="M215 310v-310h-125v165l-25 -15l-55 85l120 75h85z" />
    <glyph glyph-name="two.dnom" horiz-adv-x="289" 
d="M274 100v-100h-260v80l115 90q7 6 12 12q5 5 9 11t4 12q0 15 -15 15q-8 0 -14 -7t-6 -18l-109 10q7 49 41 79.5t98 30.5t97 -29t33 -71q0 -15 -6 -29t-15 -26t-19.5 -22.5t-19.5 -17.5l-25 -20h80z" />
    <glyph glyph-name="three.dnom" horiz-adv-x="295" 
d="M5 215q8 45 40.5 72.5t104.5 27.5q32 0 56 -7.5t40.5 -20.5t25 -29t8.5 -33t-6 -29t-14 -20q-9 -10 -20 -16q12 -6 22 -16q8 -8 15.5 -20t7.5 -29q0 -42 -33.5 -71t-101.5 -29q-75 0 -109 27.5t-41 72.5l120 10q-1 -6 2 -10q4 -10 18 -10q8 0 14 3.5t6 11.5t-6 11.5
t-14 3.5h-30v80h25q8 0 14 3.5t6 11.5t-6 11.5t-14 3.5q-14 0 -18 -10q-3 -4 -2 -10z" />
    <glyph glyph-name="four.dnom" horiz-adv-x="305" 
d="M290 60h-30v-60h-125v60h-135v70l110 180h150v-150h30v-100zM150 150v65l-40 -65h40z" />
    <glyph glyph-name="five.dnom" horiz-adv-x="305" 
d="M180 205q53 0 84 -29t31 -71q0 -45 -36.5 -77.5t-108.5 -32.5q-68 0 -100 26.5t-40 68.5l120 10q1 -4 4 -8q5 -7 16 -7q8 0 14 7t6 18t-6 18t-14 7q-6 0 -10 -2.5t-7 -5.5q-4 -4 -5 -7h-108l25 190h225v-80h-125l-5 -30q4 1 9 2t12.5 2t18.5 1z" />
    <glyph glyph-name="six.dnom" horiz-adv-x="300" 
d="M150 -5q-32 0 -58 9.5t-44 26t-28 38.5t-10 46q0 20 6 39.5t14 33.5q9 17 20 32l64 90h131l-60 -85q45 -4 75 -34.5t30 -75.5q0 -24 -10 -46t-28 -38.5t-44 -26t-58 -9.5zM170 115q0 11 -6 18t-14 7t-14 -7t-6 -18t6 -18t14 -7t14 7t6 18z" />
    <glyph glyph-name="seven.dnom" horiz-adv-x="275" 
d="M265 310v-90l-100 -220h-130l90 200h-105v110h245z" />
    <glyph glyph-name="eight.dnom" horiz-adv-x="310" 
d="M155 125q-25 0 -25 -25t25 -25t25 25t-25 25zM155 -5q-75 0 -110 29t-35 71q0 17 7 29t15 20q10 10 23 16q-10 6 -18 16q-7 8 -12 20t-5 29t8.5 33t25.5 29t42 20.5t59 7.5t59 -7.5t42 -20.5t25.5 -29t8.5 -33t-5.5 -29t-12.5 -20q-8 -10 -17 -16q12 -6 22 -16
q8 -8 15.5 -20t7.5 -29q0 -42 -35 -71t-110 -29zM155 195q8 0 14 6t6 14t-6 14t-14 6t-14 -6t-6 -14t6 -14t14 -6z" />
    <glyph glyph-name="nine.dnom" horiz-adv-x="300" 
d="M150 315q32 0 58 -9.5t44 -26t28 -38.5t10 -46q0 -21 -6 -40t-14 -33q-9 -17 -20 -32l-64 -90h-131l60 85q-45 4 -75 34.5t-30 75.5q0 24 10 46t28 38.5t44 26t58 9.5zM130 195q0 -11 6 -18t14 -7t14 7t6 18t-6 18t-14 7t-14 -7t-6 -18z" />
    <glyph glyph-name="zero.osftab" 
d="M15 0zM325 230q0 23 -14.5 36.5t-40.5 13.5t-40.5 -13.5t-14.5 -36.5t14.5 -36.5t40.5 -13.5t40.5 13.5t14.5 36.5zM525 230q0 -56 -20 -100t-55 -75.5t-81.5 -48t-98.5 -16.5q-56 0 -103 18.5t-81 51t-52.5 76t-18.5 94.5t18.5 94.5t52.5 76t81 51t103 18.5
q52 0 98.5 -16.5t81.5 -48t55 -76t20 -99.5z" />
    <glyph glyph-name="one.osftab" 
d="M380 460v-290h130v-170h-460v170h130v80l-60 -40l-90 130l180 120h170z" />
    <glyph glyph-name="two.osftab" 
d="M40 0zM475 300q0 -34 -10.5 -60t-22.5 -44q-14 -21 -32 -36h70v-160h-425v90l190 125q15 10 25 23t10 32q0 17 -8 23.5t-22 6.5t-24.5 -12.5t-10.5 -32.5l-175 20q2 41 18.5 76.5t45 62t68 41.5t88.5 15q51 0 90.5 -14t67.5 -37.5t42.5 -54t14.5 -64.5z" />
    <glyph glyph-name="three.osftab" 
d="M15 0zM520 45q0 -49 -17.5 -90t-49.5 -71t-78.5 -47t-104.5 -17t-104.5 16.5t-79.5 44t-51 64t-20 75.5l200 20q3 -11 9 -20q5 -8 13.5 -14t22.5 -6q19 0 32 13t13 32t-13 32t-32 13q-10 0 -18 -1.5t-14 -3.5q-7 -3 -13 -5l-85 95l85 105h-160v180h430v-110l-100 -120
q37 -13 67 -38q26 -21 47 -57t21 -90z" />
    <glyph glyph-name="four.osftab" 
d="M10 0zM530 0h-60v-170h-200v170h-260v160l230 300h230v-280h60v-180zM205 180h75v95z" />
    <glyph glyph-name="five.osftab" 
d="M15 0zM320 260q41 0 77.5 -16t63.5 -44.5t43 -68t16 -86.5q0 -49 -17.5 -90t-49.5 -71t-78.5 -47t-104.5 -17t-104.5 16.5t-79.5 44t-51 64t-20 75.5l200 20q3 -11 9 -20q5 -8 13.5 -14t22.5 -6q19 0 32 14.5t13 40.5t-13 40.5t-32 14.5q-11 0 -20 -5t-14 -10
q-7 -7 -11 -15h-185l45 380h400v-160h-235l-10 -60q10 6 24 10q12 4 28.5 7t37.5 3z" />
    <glyph glyph-name="six.osftab" 
d="M15 0zM270 -10q-58 0 -105 18t-80.5 49.5t-51.5 75.5t-18 97q0 42 14 80.5t31 68.5q19 35 45 66l130 185h210l-130 -185q45 -6 83.5 -25t66.5 -48.5t44 -68t16 -83.5q0 -49 -18 -91t-51.5 -73t-80.5 -48.5t-105 -17.5zM220 220q0 -23 13.5 -36.5t36.5 -13.5t36.5 13.5
t13.5 36.5t-13.5 36.5t-36.5 13.5t-36.5 -13.5t-13.5 -36.5z" />
    <glyph glyph-name="seven.osftab" 
d="M50 0zM500 460v-165l-215 -465h-215l205 440h-225v190h450z" />
    <glyph glyph-name="eight.osftab" 
d="M10 0zM270 250q-19 0 -32 -13.5t-13 -36.5t13 -36.5t32 -13.5t32 13.5t13 36.5t-13 36.5t-32 13.5zM270 485q-15 0 -25 -10.5t-10 -29.5t10 -29.5t25 -10.5t25 10.5t10 29.5t-10 29.5t-25 10.5zM270 -10q-64 0 -112.5 16t-81.5 43t-49.5 63.5t-16.5 77.5q0 42 15.5 70
t34.5 46q22 21 50 34q-21 13 -38 31q-14 16 -25.5 39t-11.5 55q0 34 15.5 65.5t45.5 56t74 39t100 14.5t100 -14.5t74 -39t45.5 -56t15.5 -65.5q0 -32 -12 -55t-26 -39q-17 -18 -37 -31q28 -13 50 -34q19 -18 34.5 -46t15.5 -70q0 -41 -16.5 -77.5t-49.5 -63.5t-81.5 -43
t-112.5 -16z" />
    <glyph glyph-name="nine.osftab" 
d="M15 0zM270 470q58 0 105 -18t80.5 -49.5t51.5 -76t18 -96.5q0 -42 -14 -80.5t-31 -68.5q-20 -35 -45 -66l-130 -185h-210l130 185q-45 6 -83.5 25t-66.5 48.5t-44 68t-16 83.5q0 49 18 91t51.5 73t80.5 48.5t105 17.5zM320 240q0 23 -13.5 36.5t-36.5 13.5t-36.5 -13.5
t-13.5 -36.5t13.5 -36.5t36.5 -13.5t36.5 13.5t13.5 36.5z" />
    <glyph glyph-name="plus.lf" horiz-adv-x="480" 
d="M35 95zM155 95v125h-120v170h120v125h170v-125h120v-170h-120v-125h-170z" />
    <glyph glyph-name="less.lf" horiz-adv-x="475" 
d="M40 50zM435 210v-160l-395 150v160l395 150v-160l-205 -70z" />
    <glyph glyph-name="equal.lf" horiz-adv-x="480" 
d="M45 130zM435 130h-390v145h390v-145zM435 335h-390v145h390v-145z" />
    <glyph glyph-name="greater.lf" horiz-adv-x="475" 
d="M40 50zM40 350v160l395 -150v-160l-395 -150v160l205 70z" />
    <glyph glyph-name="asciitilde.lf" horiz-adv-x="480" 
d="M10 215zM470 405q0 -49 -10.5 -84.5t-29 -59t-43 -35t-52.5 -11.5q-26 0 -47 7t-38 15.5t-30.5 15.5t-24.5 7q-32 0 -40 -40l-145 10q0 49 10.5 84.5t29 59t43 35t52.5 11.5q26 0 47 -7t38 -15.5t30.5 -15.5t24.5 -7q32 0 40 40z" />
    <glyph glyph-name="logicalnot.lf" horiz-adv-x="505" 
d="M30 205zM285 300h-255v170h435v-265h-180v95z" />
    <glyph glyph-name="plusminus.lf" horiz-adv-x="480" 
d="M35 50zM445 50h-410v165h120v80h-120v170h120v125h170v-125h120v-170h-120v-80h120v-165z" />
    <glyph glyph-name="minus.lf" horiz-adv-x="480" 
d="M40 220zM440 220h-400v170h400v-170z" />
    <glyph glyph-name="multiply.lf" horiz-adv-x="480" 
d="M35 100zM350 305l95 -95l-110 -110l-95 95l-95 -95l-110 110l95 95l-95 95l110 110l95 -95l95 95l110 -110z" />
    <glyph glyph-name="divide.lf" horiz-adv-x="480" 
d="M35 50zM240 50q-38 0 -61.5 23t-23.5 57t23.5 57t61.5 23t61.5 -23t23.5 -57t-23.5 -57t-61.5 -23zM240 560q38 0 61.5 -23t23.5 -57t-23.5 -57t-61.5 -23t-61.5 23t-23.5 57t23.5 57t61.5 23zM35 370h410v-130h-410v130z" />
    <glyph glyph-name="notequal.lf" horiz-adv-x="480" 
d="M30 55zM60 55l30 75h-60v145h120l25 60h-145v145h200l30 75h160l-30 -75h60v-145h-120l-25 -60h145v-145h-200l-30 -75h-160z" />
    <glyph glyph-name="approxequal.lf" horiz-adv-x="480" 
d="M10 125zM470 285q0 -75 -40.5 -117.5t-104.5 -42.5q-26 0 -47 7t-38 15.5t-30.5 15.5t-24.5 7q-32 0 -40 -40l-135 10q0 75 40.5 117.5t104.5 42.5q26 0 47 -7t38 -15.5t30.5 -15.5t24.5 -7q32 0 40 40zM470 490q0 -75 -40.5 -117.5t-104.5 -42.5q-26 0 -47 7t-38 15.5
t-30.5 15.5t-24.5 7q-32 0 -40 -40l-135 10q0 75 40.5 117.5t104.5 42.5q26 0 47 -7t38 -15.5t30.5 -15.5t24.5 -7q32 0 40 40z" />
    <glyph glyph-name="lessequal.lf" horiz-adv-x="475" 
d="M40 50zM230 370l205 -50v-140l-395 120v140l395 120v-140zM435 170v-120h-395v120h395z" />
    <glyph glyph-name="greaterequal.lf" horiz-adv-x="475" 
d="M40 50zM40 420v140l395 -120v-140l-395 -120v140l205 50zM435 170v-120h-395v120h395z" />
    <glyph glyph-name="colon.lf" horiz-adv-x="250" 
d="M30 175q0 42 26.5 68.5t68.5 26.5t68.5 -26.5t26.5 -68.5t-26.5 -68.5t-68.5 -26.5t-68.5 26.5t-26.5 68.5zM30 415q0 42 26.5 68.5t68.5 26.5t68.5 -26.5t26.5 -68.5t-26.5 -68.5t-68.5 -26.5t-68.5 26.5t-26.5 68.5z" />
    <glyph glyph-name="a.smcp" horiz-adv-x="580" 
d="M290 370l-35 -140h70zM215 80l-20 -80h-205l190 550h220l190 -550h-205l-20 80h-150z" />
    <glyph glyph-name="aacute.smcp" horiz-adv-x="580" 
d="M0 0zM290 370l-35 -140h70zM215 80l-20 -80h-205l190 550h220l190 -550h-205l-20 80h-150zM275 750h190l-100 -140h-155z" />
    <glyph glyph-name="abreve.smcp" horiz-adv-x="580" 
d="M0 0zM290 370l-35 -140h70zM215 80l-20 -80h-205l190 550h220l190 -550h-205l-20 80h-150zM290 610q-72 0 -114 40.5t-46 104.5h120q2 -11 7 -20q5 -8 12 -14t21 -6q13 0 20.5 6t12.5 14q5 9 7 20h120q-4 -64 -46 -104.5t-114 -40.5z" />
    <glyph glyph-name="acircumflex.smcp" horiz-adv-x="580" 
d="M0 0zM290 370l-35 -140h70zM215 80l-20 -80h-205l190 550h220l190 -550h-205l-20 80h-150zM290 660l-40 -55h-150l105 145h170l105 -145h-150z" />
    <glyph glyph-name="adieresis.smcp" horiz-adv-x="580" 
d="M0 0zM290 370l-35 -140h70zM215 80l-20 -80h-205l190 550h220l190 -550h-205l-20 80h-150zM475 685q0 -17 -7 -32.5t-18.5 -27t-27 -18.5t-32.5 -7t-32.5 7t-27 18.5t-18.5 27t-7 32.5t7 32.5t18.5 27t27 18.5t32.5 7t32.5 -7t27 -18.5t18.5 -27t7 -32.5zM275 685
q0 -17 -7 -32.5t-18.5 -27t-27 -18.5t-32.5 -7t-32.5 7t-27 18.5t-18.5 27t-7 32.5t7 32.5t18.5 27t27 18.5t32.5 7t32.5 -7t27 -18.5t18.5 -27t7 -32.5z" />
    <glyph glyph-name="agrave.smcp" horiz-adv-x="580" 
d="M0 0zM290 370l-35 -140h70zM215 80l-20 -80h-205l190 550h220l190 -550h-205l-20 80h-150zM370 610h-155l-100 140h190z" />
    <glyph glyph-name="amacron.smcp" horiz-adv-x="580" 
d="M0 0zM290 370l-35 -140h70zM215 80l-20 -80h-205l190 550h220l190 -550h-205l-20 80h-150zM435 610h-290v135h290v-135z" />
    <glyph glyph-name="aogonek.smcp" horiz-adv-x="580" 
d="M365 80h-150l-20 -80h-205l190 550h220l190 -550h-115q-9 -9 -15 -20q-6 -10 -10.5 -22.5t-4.5 -27.5q0 -19 13 -32t32 -13q9 0 16.5 0.5t12.5 1.5q6 1 11 3v-79q-11 -4 -23 -8q-11 -3 -25.5 -5.5t-31.5 -2.5q-57 0 -86 26.5t-29 68.5q0 24 7.5 44.5t17.5 34.5
q11 17 25 31zM290 370l-35 -140h70z" />
    <glyph glyph-name="aring.smcp" horiz-adv-x="580" 
d="M0 0zM290 370l-35 -140h70zM215 80l-20 -80h-205l190 550h220l190 -550h-205l-20 80h-150zM405 695q0 -45 -31 -75t-84 -30t-84 30t-31 75t31 75t84 30t84 -30t31 -75zM325 695q0 15 -10 25t-25 10t-25 -10t-10 -25t10 -25t25 -10t25 10t10 25z" />
    <glyph glyph-name="atilde.smcp" horiz-adv-x="580" 
d="M0 0zM290 370l-35 -140h70zM215 80l-20 -80h-205l190 550h220l190 -550h-205l-20 80h-150zM130 615q0 75 26 107.5t64 32.5q19 0 32.5 -4.5t24.5 -10.5t20 -10.5t18 -4.5q25 0 25 25l110 -10q0 -75 -26 -107.5t-64 -32.5q-19 0 -32.5 4.5t-24.5 10.5t-20 10.5t-18 4.5
q-25 0 -25 -25z" />
    <glyph glyph-name="ae.smcp" horiz-adv-x="810" 
d="M360 85h-145l-40 -85h-205l265 550h535v-150h-220v-50h200v-145h-200v-55h230v-150h-420v85zM360 390l-70 -145h70v145z" />
    <glyph glyph-name="b.smcp" horiz-adv-x="555" 
d="M430 290q29 -8 52 -26q20 -15 36.5 -41t16.5 -68q0 -32 -13 -60t-37 -49t-59.5 -33.5t-80.5 -12.5h-300v550h280q47 0 82.5 -11.5t59.5 -30.5t36 -44.5t12 -53.5q0 -32 -13.5 -55t-29.5 -37q-18 -17 -42 -28zM235 340h40q19 0 29.5 9.5t10.5 25.5q0 15 -10.5 25t-29.5 10
h-40v-70zM290 140q19 0 29.5 10t10.5 25t-10.5 25t-29.5 10h-55v-70h55z" />
    <glyph glyph-name="c.smcp" horiz-adv-x="625" 
d="M325 160q26 0 44.5 9.5t29.5 20.5q13 13 21 30l185 -20q-14 -59 -48 -105q-15 -20 -35.5 -39t-49 -33.5t-65 -23.5t-82.5 -9q-64 0 -118.5 22.5t-95 61.5t-63.5 91t-23 110t23 110t63.5 91t95 61.5t118.5 22.5q46 0 82.5 -9t65 -24t49 -34t35.5 -38q34 -47 48 -105
l-180 -20q-10 17 -24 30q-12 11 -31 20.5t-45 9.5q-23 0 -43 -9t-35 -24.5t-23.5 -36.5t-8.5 -45t8.5 -45t23.5 -36.5t35 -24.5t43 -9z" />
    <glyph glyph-name="cacute.smcp" horiz-adv-x="625" 
d="M25 0zM325 160q26 0 44.5 9.5t29.5 20.5q13 13 21 30l185 -20q-14 -59 -48 -105q-15 -20 -35.5 -39t-49 -33.5t-65 -23.5t-82.5 -9q-64 0 -118.5 22.5t-95 61.5t-63.5 91t-23 110t23 110t63.5 91t95 61.5t118.5 22.5q46 0 82.5 -9t65 -24t49 -34t35.5 -38q34 -47 48 -105
l-180 -20q-10 17 -24 30q-12 11 -31 20.5t-45 9.5q-23 0 -43 -9t-35 -24.5t-23.5 -36.5t-8.5 -45t8.5 -45t23.5 -36.5t35 -24.5t43 -9zM300 750h190l-100 -140h-155z" />
    <glyph glyph-name="ccaron.smcp" horiz-adv-x="625" 
d="M25 0zM325 160q26 0 44.5 9.5t29.5 20.5q13 13 21 30l185 -20q-14 -59 -48 -105q-15 -20 -35.5 -39t-49 -33.5t-65 -23.5t-82.5 -9q-64 0 -118.5 22.5t-95 61.5t-63.5 91t-23 110t23 110t63.5 91t95 61.5t118.5 22.5q46 0 82.5 -9t65 -24t49 -34t35.5 -38q34 -47 48 -105
l-180 -20q-10 17 -24 30q-12 11 -31 20.5t-45 9.5q-23 0 -43 -9t-35 -24.5t-23.5 -36.5t-8.5 -45t8.5 -45t23.5 -36.5t35 -24.5t43 -9zM360 750h150l-105 -145h-170l-105 145h150l40 -55z" />
    <glyph glyph-name="ccedilla.smcp" horiz-adv-x="625" 
d="M325 160q26 0 44.5 9.5t29.5 20.5q13 13 21 30l185 -20q-12 -54 -43 -98q-13 -19 -31.5 -37.5t-44 -33.5t-58 -25.5t-72.5 -13.5l-11 -32q29 -4 52 -15q20 -10 36.5 -27.5t16.5 -47.5q0 -41 -34.5 -70.5t-105.5 -29.5q-34 0 -57 5q-12 3 -23 6v59q5 -2 12 -3
q5 -1 12.5 -1.5t15.5 -0.5q30 0 42.5 10.5t12.5 29.5q0 15 -12.5 25t-42.5 10h-10l32 82q-58 6 -107 30.5t-84.5 62.5t-55.5 87t-20 103q0 58 23 110t63.5 91t95 61.5t118.5 22.5q46 0 82.5 -9t65 -24t49 -34t35.5 -38q34 -47 48 -105l-180 -20q-10 17 -24 30
q-12 11 -31 20.5t-45 9.5q-23 0 -43 -9t-35 -24.5t-23.5 -36.5t-8.5 -45t8.5 -45t23.5 -36.5t35 -24.5t43 -9z" />
    <glyph glyph-name="ccircumflex.smcp" horiz-adv-x="625" 
d="M25 0zM325 160q26 0 44.5 9.5t29.5 20.5q13 13 21 30l185 -20q-14 -59 -48 -105q-15 -20 -35.5 -39t-49 -33.5t-65 -23.5t-82.5 -9q-64 0 -118.5 22.5t-95 61.5t-63.5 91t-23 110t23 110t63.5 91t95 61.5t118.5 22.5q46 0 82.5 -9t65 -24t49 -34t35.5 -38q34 -47 48 -105
l-180 -20q-10 17 -24 30q-12 11 -31 20.5t-45 9.5q-23 0 -43 -9t-35 -24.5t-23.5 -36.5t-8.5 -45t8.5 -45t23.5 -36.5t35 -24.5t43 -9zM320 660l-40 -55h-150l105 145h170l105 -145h-150z" />
    <glyph glyph-name="d.smcp" horiz-adv-x="585" 
d="M260 170q49 0 79.5 30t30.5 75t-30.5 75t-79.5 30h-25v-210h25zM45 550h216q66 0 120.5 -21t94.5 -57.5t62 -87t22 -109.5t-22 -109.5t-62 -87t-94.5 -57.5t-120.5 -21h-216v550z" />
    <glyph glyph-name="dcaron.smcp" horiz-adv-x="585" 
d="M45 0zM260 170q49 0 79.5 30t30.5 75t-30.5 75t-79.5 30h-25v-210h25zM45 550h216q66 0 120.5 -21t94.5 -57.5t62 -87t22 -109.5t-22 -109.5t-62 -87t-94.5 -57.5t-120.5 -21h-216v550zM324 750h150l-105 -145h-170l-105 145h150l40 -55z" />
    <glyph glyph-name="dcroat.smcp" horiz-adv-x="610" 
d="M70 200h-50v140h50v210h216q66 0 120.5 -21t94.5 -57.5t62 -87t22 -109.5t-22 -109.5t-62 -87t-94.5 -57.5t-120.5 -21h-216v200zM285 170q49 0 79.5 30t30.5 75t-30.5 75t-79.5 30h-25v-40h50v-140h-50v-30h25z" />
    <glyph glyph-name="eth.smcp" horiz-adv-x="610" 
d="M20 0zM70 200h-50v140h50v210h216q66 0 120.5 -21t94.5 -57.5t62 -87t22 -109.5t-22 -109.5t-62 -87t-94.5 -57.5t-120.5 -21h-216v200zM285 170q49 0 79.5 30t30.5 75t-30.5 75t-79.5 30h-25v-40h50v-140h-50v-30h25z" />
    <glyph glyph-name="e.smcp" horiz-adv-x="525" 
d="M45 550h440v-150h-250v-50h230v-145h-230v-55h260v-150h-450v550z" />
    <glyph glyph-name="eacute.smcp" horiz-adv-x="525" 
d="M45 0zM45 550h440v-150h-250v-50h230v-145h-230v-55h260v-150h-450v550zM240 750h190l-100 -140h-155z" />
    <glyph glyph-name="ecaron.smcp" horiz-adv-x="525" 
d="M45 0zM45 550h440v-150h-250v-50h230v-145h-230v-55h260v-150h-450v550zM310 750h150l-105 -145h-170l-105 145h150l40 -55z" />
    <glyph glyph-name="ecircumflex.smcp" horiz-adv-x="525" 
d="M45 0zM45 550h440v-150h-250v-50h230v-145h-230v-55h260v-150h-450v550zM270 660l-40 -55h-150l105 145h170l105 -145h-150z" />
    <glyph glyph-name="edieresis.smcp" horiz-adv-x="525" 
d="M45 0zM45 550h440v-150h-250v-50h230v-145h-230v-55h260v-150h-450v550zM455 685q0 -17 -7 -32.5t-18.5 -27t-27 -18.5t-32.5 -7t-32.5 7t-27 18.5t-18.5 27t-7 32.5t7 32.5t18.5 27t27 18.5t32.5 7t32.5 -7t27 -18.5t18.5 -27t7 -32.5zM255 685q0 -17 -7 -32.5
t-18.5 -27t-27 -18.5t-32.5 -7t-32.5 7t-27 18.5t-18.5 27t-7 32.5t7 32.5t18.5 27t27 18.5t32.5 7t32.5 -7t27 -18.5t18.5 -27t7 -32.5z" />
    <glyph glyph-name="edotaccent.smcp" horiz-adv-x="525" 
d="M45 0zM45 550h440v-150h-250v-50h230v-145h-230v-55h260v-150h-450v550zM175 695q0 38 26.5 64t68.5 26t68.5 -26t26.5 -64t-26.5 -64t-68.5 -26t-68.5 26t-26.5 64z" />
    <glyph glyph-name="egrave.smcp" horiz-adv-x="525" 
d="M45 0zM45 550h440v-150h-250v-50h230v-145h-230v-55h260v-150h-450v550zM365 610h-155l-100 140h190z" />
    <glyph glyph-name="emacron.smcp" horiz-adv-x="525" 
d="M45 0zM45 550h440v-150h-250v-50h230v-145h-230v-55h260v-150h-450v550zM415 610h-290v135h290v-135z" />
    <glyph glyph-name="eogonek.smcp" horiz-adv-x="525" 
d="M45 550h440v-150h-250v-50h230v-145h-230v-55h260v-150q-9 -9 -15 -20q-6 -10 -10.5 -22.5t-4.5 -27.5q0 -19 13 -32t32 -13q9 0 16.5 0.5t12.5 1.5q6 1 11 3v-79q-11 -4 -23 -8q-11 -3 -25.5 -5.5t-31.5 -2.5q-57 0 -86 26.5t-29 68.5q0 24 7.5 44.5t17.5 34.5
q11 17 25 31h-360v550z" />
    <glyph glyph-name="f.smcp" horiz-adv-x="490" 
d="M45 550h430v-160h-240v-65h191v-165h-191v-160h-190v550z" />
    <glyph glyph-name="g.smcp" horiz-adv-x="645" 
d="M315 300h295v-300h-115l-25 50q-15 -17 -39 -30q-20 -11 -51 -20.5t-75 -9.5q-56 0 -106.5 22.5t-89 61.5t-61.5 91t-23 110t23 110t63.5 91t95 61.5t118.5 22.5q45 0 81 -8.5t64 -22t49 -31.5t36 -36q35 -43 50 -97l-180 -20q-11 12 -26 22q-13 8 -31.5 15.5t-42.5 7.5
q-23 0 -43 -9t-35 -24.5t-23.5 -36.5t-8.5 -45t8.5 -45t23 -36.5t34.5 -24.5t44 -9q22 0 37.5 4.5t26.5 10.5q12 6 21 15h-95v110z" />
    <glyph glyph-name="gbreve.smcp" horiz-adv-x="645" 
d="M25 0zM315 300h295v-300h-115l-25 50q-15 -17 -39 -30q-20 -11 -51 -20.5t-75 -9.5q-56 0 -106.5 22.5t-89 61.5t-61.5 91t-23 110t23 110t63.5 91t95 61.5t118.5 22.5q45 0 81 -8.5t64 -22t49 -31.5t36 -36q35 -43 50 -97l-180 -20q-11 12 -26 22q-13 8 -31.5 15.5
t-42.5 7.5q-23 0 -43 -9t-35 -24.5t-23.5 -36.5t-8.5 -45t8.5 -45t23 -36.5t34.5 -24.5t44 -9q22 0 37.5 4.5t26.5 10.5q12 6 21 15h-95v110zM320 610q-72 0 -114 40.5t-46 104.5h120q2 -11 7 -20q5 -8 12 -14t21 -6q13 0 20.5 6t12.5 14q5 9 7 20h120q-4 -64 -46 -104.5
t-114 -40.5z" />
    <glyph glyph-name="gcommaaccent.smcp" horiz-adv-x="645" 
d="M25 0zM315 300h295v-300h-115l-25 50q-15 -17 -39 -30q-20 -11 -51 -20.5t-75 -9.5q-56 0 -106.5 22.5t-89 61.5t-61.5 91t-23 110t23 110t63.5 91t95 61.5t118.5 22.5q45 0 81 -8.5t64 -22t49 -31.5t36 -36q35 -43 50 -97l-180 -20q-11 12 -26 22q-13 8 -31.5 15.5
t-42.5 7.5q-23 0 -43 -9t-35 -24.5t-23.5 -36.5t-8.5 -45t8.5 -45t23 -36.5t34.5 -24.5t44 -9q22 0 37.5 4.5t26.5 10.5q12 6 21 15h-95v110zM322 -45q34 0 57 -25t23 -70q0 -49 -16.5 -80.5t-36.5 -50.5q-23 -22 -52 -34l-25 45q11 6 21 14q8 7 16.5 17t12.5 24
q-34 0 -57 23t-23 57t23 57t57 23z" />
    <glyph glyph-name="h.smcp" horiz-adv-x="620" 
d="M575 550v-550h-190v200h-150v-200h-190v550h190v-180h150v180h190z" />
    <glyph glyph-name="i.smcp" horiz-adv-x="280" 
d="M235 0h-190v550h190v-550z" />
    <glyph glyph-name="iacute.smcp" horiz-adv-x="280" 
d="M45 0zM235 0h-190v550h190v-550zM125 750h190l-100 -140h-155z" />
    <glyph glyph-name="icircumflex.smcp" horiz-adv-x="280" 
d="M0 0zM235 0h-190v550h190v-550zM140 660l-40 -55h-150l105 145h170l105 -145h-150z" />
    <glyph glyph-name="idieresis.smcp" horiz-adv-x="280" 
d="M0 0zM235 0h-190v550h190v-550zM325 685q0 -17 -7 -32.5t-18.5 -27t-27 -18.5t-32.5 -7t-32.5 7t-27 18.5t-18.5 27t-7 32.5t7 32.5t18.5 27t27 18.5t32.5 7t32.5 -7t27 -18.5t18.5 -27t7 -32.5zM125 685q0 -17 -7 -32.5t-18.5 -27t-27 -18.5t-32.5 -7t-32.5 7t-27 18.5
t-18.5 27t-7 32.5t7 32.5t18.5 27t27 18.5t32.5 7t32.5 -7t27 -18.5t18.5 -27t7 -32.5z" />
    <glyph glyph-name="dotlessi.smcp" horiz-adv-x="280" 
d="M45 0zM235 0h-190v550h190v-550zM45 695q0 38 26.5 64t68.5 26t68.5 -26t26.5 -64t-26.5 -64t-68.5 -26t-68.5 26t-26.5 64z" />
    <glyph glyph-name="igrave.smcp" horiz-adv-x="280" 
d="M0 0zM235 0h-190v550h190v-550zM220 610h-155l-100 140h190z" />
    <glyph glyph-name="imacron.smcp" horiz-adv-x="280" 
d="M0 0zM235 0h-190v550h190v-550zM285 610h-290v135h290v-135z" />
    <glyph glyph-name="iogonek.smcp" horiz-adv-x="280" 
d="M45 550h190v-550h-100q-9 -9 -15 -20q-6 -10 -10.5 -22.5t-4.5 -27.5q0 -19 13 -32t32 -13q9 0 16.5 0.5t12.5 1.5q6 1 11 3v-79q-11 -4 -23 -8q-11 -3 -25.5 -5.5t-31.5 -2.5q-57 0 -86 26.5t-29 68.5q0 24 7.5 44.5t17.5 34.5q11 17 25 31v550z" />
    <glyph glyph-name="j.smcp" horiz-adv-x="485" 
d="M445 550v-350q0 -45 -16 -83.5t-45.5 -66.5t-71 -44t-92.5 -16t-91.5 15t-69 42t-44 63.5t-15.5 79.5l180 20q0 -40 40 -40q15 0 25 10t10 30v340h190z" />
    <glyph glyph-name="k.smcp" horiz-adv-x="570" 
d="M360 0l-125 220v-220h-190v550h190v-220l110 220h215l-145 -270l165 -280h-220z" />
    <glyph glyph-name="kcommaaccent.smcp" horiz-adv-x="570" 
d="M45 0zM360 0l-125 220v-220h-190v550h190v-220l110 220h215l-145 -270l165 -280h-220zM285 -45q34 0 57 -25t23 -70q0 -49 -16.5 -80.5t-36.5 -50.5q-23 -22 -52 -34l-25 45q11 6 21 14q8 7 16.5 17t12.5 24q-34 0 -57 23t-23 57t23 57t57 23z" />
    <glyph glyph-name="l.smcp" horiz-adv-x="480" 
d="M45 550h190v-370h235v-180h-425v550z" />
    <glyph glyph-name="lacute.smcp" horiz-adv-x="480" 
d="M45 0zM45 550h190v-370h235v-180h-425v550zM125 750h190l-100 -140h-155z" />
    <glyph glyph-name="lcaron.smcp" horiz-adv-x="480" 
d="M310 550h160l-80 -140h-130zM45 550h190v-370h235v-180h-425v550z" />
    <glyph glyph-name="lcommaaccent.smcp" horiz-adv-x="480" 
d="M45 0zM45 550h190v-370h235v-180h-425v550zM240 -45q34 0 57 -25t23 -70q0 -49 -16.5 -80.5t-36.5 -50.5q-23 -22 -52 -34l-25 45q11 6 21 14q8 7 16.5 17t12.5 24q-34 0 -57 23t-23 57t23 57t57 23z" />
    <glyph glyph-name="lslash.smcp" horiz-adv-x="505" 
d="M70 120l-60 -35v160l60 35v270h190v-165l75 45v-160l-75 -45v-45h235v-180h-425v120z" />
    </font>
</defs>
</svg>
